<?xml version="1.0" encoding="UTF-8" standalone="no"?>
<!DOCTYPE svg PUBLIC "-//W3C//DTD SVG 1.1//EN" "http://www.w3.org/Graphics/SVG/1.1/DTD/svg11.dtd">
<svg xmlns="http://www.w3.org/2000/svg" xmlns:xlink="http://www.w3.org/1999/xlink" version="1.1" width="339.287pt" height="309.496pt" viewBox="0 0 339.287 309.496">
<g enable-background="new">
<g>
<g>
<clipPath id="cp0">
<path transform="matrix(1,0,0,-1,-1.705,309.496)" d="M 0 0 L 340.992 0 L 340.992 323.136 L 0 323.136 Z "/>
</clipPath>
<g clip-path="url(#cp0)">
<g>
<clipPath id="cp1">
<path transform="matrix(1,0,0,-1,-81.193,309.496)" d="M 0 0 L 460.8 0 L 460.8 345.6 L 0 345.6 Z "/>
</clipPath>
<g clip-path="url(#cp1)">
<path transform="matrix(1,0,0,-1,-81.193,309.496)" d="M 0 0 L 460.8 0 L 460.8 345.6 L 0 345.6 Z " fill="#ffffff"/>
<path transform="matrix(1,0,0,-1,-81.193,309.496)" d="M 138.24 103.68 L 414.72 103.68 L 414.72 304.128 L 138.24 304.128 Z " fill="#ffffff"/>
<path transform="matrix(1,0,0,-1,-81.193,309.496)" d="M 138.24 83.6352 L 177.73714 83.6352 L 177.73714 103.68 L 138.24 103.68 Z " fill="#ffffff"/>
<path transform="matrix(1,0,0,-1,-81.193,309.496)" stroke-width="1" stroke-linecap="butt" stroke-miterlimit="10" stroke-linejoin="miter" fill="none" stroke="#000000" d="M 138.24 83.6352 L 177.73714 83.6352 L 177.73714 103.68 L 138.24 103.68 Z "/>
<text xml:space="preserve" transform="matrix(1 0 -0 1 61.990884 213.27902)" font-size="8.5" font-family="DejaVuSans"><tspan y="0" x="0 5.673375 11.070875 16.272877 21.670378 26.897877">Adobe </tspan></text>
<text xml:space="preserve" transform="matrix(1 0 -0 1 60.225259 223.36652)" font-size="8.5" font-family="DejaVuSans"><tspan y="0" x="0 2.703 8.075001 13.107 16.439002 19.9325 25.143002 29.818"> Extract</tspan></text>
<path transform="matrix(1,0,0,-1,-81.193,309.496)" d="M 177.73714 83.6352 L 217.23429 83.6352 L 217.23429 103.68 L 177.73714 103.68 Z " fill="#ffffff"/>
<path transform="matrix(1,0,0,-1,-81.193,309.496)" stroke-width="1" stroke-linecap="butt" stroke-miterlimit="10" stroke-linejoin="miter" fill="none" stroke="#000000" d="M 177.73714 83.6352 L 217.23429 83.6352 L 217.23429 103.68 L 177.73714 103.68 Z "/>
<text xml:space="preserve" transform="matrix(1 0 -0 1 99.08959 213.27902)" font-size="8.5" font-family="DejaVuSans"><tspan y="0" x="0 5.814 11.2115 16.422 21.097 26.486 31.713501">Apache </tspan></text>
<text xml:space="preserve" transform="matrix(1 0 -0 1 106.29272 223.36652)" font-size="8.5" font-family="DejaVuSans"><tspan y="0" x="0 2.703 7.6465 10.0095009 14.790377"> Tika</tspan></text>
<path transform="matrix(1,0,0,-1,-81.193,309.496)" d="M 217.23429 83.6352 L 256.7314 83.6352 L 256.7314 103.68 L 217.23429 103.68 Z " fill="#ffffff"/>
<path transform="matrix(1,0,0,-1,-81.193,309.496)" stroke-width="1" stroke-linecap="butt" stroke-miterlimit="10" stroke-linejoin="miter" fill="none" stroke="#000000" d="M 217.23429 83.6352 L 256.7314 83.6352 L 256.7314 103.68 L 217.23429 103.68 Z "/>
<text xml:space="preserve" transform="matrix(1 0 -0 1 136.39142 218.32279)" font-size="8.5" font-family="DejaVuSans"><tspan y="0" x="0 5.933 11.305 17.212502 24.548003 27.055502 33.4135">CERMINE</tspan></text>
<path transform="matrix(1,0,0,-1,-81.193,309.496)" d="M 256.7314 83.6352 L 296.22859 83.6352 L 296.22859 103.68 L 256.7314 103.68 Z " fill="#ffffff"/>
<path transform="matrix(1,0,0,-1,-81.193,309.496)" stroke-width="1" stroke-linecap="butt" stroke-miterlimit="10" stroke-linejoin="miter" fill="none" stroke="#000000" d="M 256.7314 83.6352 L 296.22859 83.6352 L 296.22859 103.68 L 256.7314 103.68 Z "/>
<text xml:space="preserve" transform="matrix(1 0 -0 1 181.13077 218.32279)" font-size="8.5" font-family="DejaVuSans"><tspan y="0" x="0 6.5875 9.8935 15.095501 20.493002 22.856003">Grobid</tspan></text>
<path transform="matrix(1,0,0,-1,-81.193,309.496)" d="M 296.22859 83.6352 L 335.7257 83.6352 L 335.7257 103.68 L 296.22859 103.68 Z " fill="#ffffff"/>
<path transform="matrix(1,0,0,-1,-81.193,309.496)" stroke-width="1" stroke-linecap="butt" stroke-miterlimit="10" stroke-linejoin="miter" fill="none" stroke="#000000" d="M 296.22859 83.6352 L 335.7257 83.6352 L 335.7257 103.68 L 296.22859 103.68 Z "/>
<text xml:space="preserve" transform="matrix(1 0 -0 1 221.18259 218.32279)" font-size="8.5" font-family="DejaVuSans"><tspan y="0" x="0 5.1255 10.523001 13.515001 19.188378 23.863377">PdfAct</tspan></text>
<path transform="matrix(1,0,0,-1,-81.193,309.496)" d="M 335.7257 83.6352 L 375.22288 83.6352 L 375.22288 103.68 L 335.7257 103.68 Z " fill="#ffffff"/>
<path transform="matrix(1,0,0,-1,-81.193,309.496)" stroke-width="1" stroke-linecap="butt" stroke-miterlimit="10" stroke-linejoin="miter" fill="none" stroke="#000000" d="M 335.7257 83.6352 L 375.22288 83.6352 L 375.22288 103.68 L 335.7257 103.68 Z "/>
<text xml:space="preserve" transform="matrix(1 0 -0 1 254.56253 218.32279)" font-size="8.5" font-family="DejaVuSans"><tspan y="0" x="0 5.1255 10.1575 17.493 22.882 28.0075 34.5525">PyMuPDF</tspan></text>
<path transform="matrix(1,0,0,-1,-81.193,309.496)" d="M 375.22288 83.6352 L 414.72 83.6352 L 414.72 103.68 L 375.22288 103.68 Z " fill="#ffffff"/>
<path transform="matrix(1,0,0,-1,-81.193,309.496)" stroke-width="1" stroke-linecap="butt" stroke-miterlimit="10" stroke-linejoin="miter" fill="none" stroke="#000000" d="M 375.22288 83.6352 L 414.72 83.6352 L 414.72 103.68 L 375.22288 103.68 Z "/>
<text xml:space="preserve" transform="matrix(1 0 -0 1 295.95033 213.27902)" font-size="8.5" font-family="DejaVuSans"><tspan y="0" x="0 5.3975007 10.0725 12.4355 17.663 23.052 27.727002 32.954504">Science </tspan></text>
<text xml:space="preserve" transform="matrix(1 0 -0 1 300.8722 223.36652)" font-size="8.5" font-family="DejaVuSans"><tspan y="0" x="0 2.703 7.4535005 12.6640009 16.157502 20.586003"> Parse</tspan></text>
<path transform="matrix(1,0,0,-1,-81.193,309.496)" d="M 86.0025 70.07676 L 138.24 70.07676 L 138.24 83.6352 L 86.0025 83.6352 Z " fill="#8a51a5"/>
<path transform="matrix(1,0,0,-1,-81.193,309.496)" stroke-width="1" stroke-linecap="butt" stroke-miterlimit="10" stroke-linejoin="miter" fill="none" stroke="#000000" d="M 86.0025 70.07676 L 138.24 70.07676 L 138.24 83.6352 L 86.0025 83.6352 Z "/>
<text xml:space="preserve" transform="matrix(1 0 -0 1 10.033249 235.12439)" font-size="8.5" font-family="DejaVuSans"><tspan y="0" x="0 4.7505 9.961 13.4545 18.665 24.062502 27.556002 32.766504 38.164">Paragraph</tspan></text>
<path transform="matrix(1,0,0,-1,-81.193,309.496)" d="M 138.24 70.07676 L 177.73714 70.07676 L 177.73714 83.6352 L 138.24 83.6352 Z " fill="#ffffff"/>
<path transform="matrix(1,0,0,-1,-81.193,309.496)" stroke-width="1" stroke-linecap="butt" stroke-miterlimit="10" stroke-linejoin="miter" fill="none" stroke="#000000" d="M 138.24 70.07676 L 177.73714 70.07676 L 177.73714 83.6352 L 138.24 83.6352 Z "/>
<text xml:space="preserve" transform="matrix(1 0 -0 1 65.66276 235.39783)" font-size="10" font-family="DejaVuSans"><tspan y="0" x="0 6.3600008 9.540001 15.900002">0.74</tspan></text>
<path transform="matrix(1,0,0,-1,-81.193,309.496)" d="M 177.73714 70.07676 L 217.23429 70.07676 L 217.23429 83.6352 L 177.73714 83.6352 Z " fill="#ffffff"/>
<path transform="matrix(1,0,0,-1,-81.193,309.496)" stroke-width="1" stroke-linecap="butt" stroke-miterlimit="10" stroke-linejoin="miter" fill="none" stroke="#000000" d="M 177.73714 70.07676 L 217.23429 70.07676 L 217.23429 83.6352 L 177.73714 83.6352 Z "/>
<text xml:space="preserve" transform="matrix(1 0 -0 1 105.159908 235.39783)" font-size="10" font-family="DejaVuSans"><tspan y="0" x="0 6.3600008 9.540001 15.900002">0.52</tspan></text>
<path transform="matrix(1,0,0,-1,-81.193,309.496)" d="M 217.23429 70.07676 L 256.7314 70.07676 L 256.7314 83.6352 L 217.23429 83.6352 Z " fill="#ffffff"/>
<path transform="matrix(1,0,0,-1,-81.193,309.496)" stroke-width="1" stroke-linecap="butt" stroke-miterlimit="10" stroke-linejoin="miter" fill="none" stroke="#000000" d="M 217.23429 70.07676 L 256.7314 70.07676 L 256.7314 83.6352 L 217.23429 83.6352 Z "/>
<text xml:space="preserve" transform="matrix(1 0 -0 1 144.65705 235.39783)" font-size="10" font-family="DejaVuSans"><tspan y="0" x="0 6.3600008 9.540001 15.900002">0.85</tspan></text>
<path transform="matrix(1,0,0,-1,-81.193,309.496)" d="M 256.7314 70.07676 L 296.22859 70.07676 L 296.22859 83.6352 L 256.7314 83.6352 Z " fill="#ffffff"/>
<path transform="matrix(1,0,0,-1,-81.193,309.496)" stroke-width="1" stroke-linecap="butt" stroke-miterlimit="10" stroke-linejoin="miter" fill="none" stroke="#000000" d="M 256.7314 70.07676 L 296.22859 70.07676 L 296.22859 83.6352 L 256.7314 83.6352 Z "/>
<text xml:space="preserve" transform="matrix(1 0 -0 1 184.1542 235.39783)" font-size="10" font-family="DejaVuSans"><tspan y="0" x="0 6.3600008 9.540001 15.900002">0.90</tspan></text>
<path transform="matrix(1,0,0,-1,-81.193,309.496)" d="M 296.22859 70.07676 L 335.7257 70.07676 L 335.7257 83.6352 L 296.22859 83.6352 Z " fill="#ffffff"/>
<path transform="matrix(1,0,0,-1,-81.193,309.496)" stroke-width="1" stroke-linecap="butt" stroke-miterlimit="10" stroke-linejoin="miter" fill="none" stroke="#000000" d="M 296.22859 70.07676 L 335.7257 70.07676 L 335.7257 83.6352 L 296.22859 83.6352 Z "/>
<text xml:space="preserve" transform="matrix(1 0 -0 1 223.65134 235.39783)" font-size="10" font-family="DejaVuSans"><tspan y="0" x="0 6.3600008 9.540001 15.900002">0.85</tspan></text>
<path transform="matrix(1,0,0,-1,-81.193,309.496)" d="M 335.7257 70.07676 L 375.22288 70.07676 L 375.22288 83.6352 L 335.7257 83.6352 Z " fill="#ffffff"/>
<path transform="matrix(1,0,0,-1,-81.193,309.496)" stroke-width="1" stroke-linecap="butt" stroke-miterlimit="10" stroke-linejoin="miter" fill="none" stroke="#000000" d="M 335.7257 70.07676 L 375.22288 70.07676 L 375.22288 83.6352 L 335.7257 83.6352 Z "/>
<text xml:space="preserve" transform="matrix(1 0 -0 1 263.14848 235.39783)" font-size="10" font-family="DejaVuSans"><tspan y="0" x="0 6.3600008 9.540001 15.900002">0.51</tspan></text>
<path transform="matrix(1,0,0,-1,-81.193,309.496)" d="M 375.22288 70.07676 L 414.72 70.07676 L 414.72 83.6352 L 375.22288 83.6352 Z " fill="#ffffff"/>
<path transform="matrix(1,0,0,-1,-81.193,309.496)" stroke-width="1" stroke-linecap="butt" stroke-miterlimit="10" stroke-linejoin="miter" fill="none" stroke="#000000" d="M 375.22288 70.07676 L 414.72 70.07676 L 414.72 83.6352 L 375.22288 83.6352 Z "/>
<text xml:space="preserve" transform="matrix(1 0 -0 1 302.64564 235.39783)" font-size="10" font-family="DejaVuSans"><tspan y="0" x="0 6.3600008 9.540001 15.900002">0.76</tspan></text>
<path transform="matrix(1,0,0,-1,-81.193,309.496)" d="M 86.0025 56.51832 L 138.24 56.51832 L 138.24 70.07676 L 86.0025 70.07676 Z " fill="#8c7ab8"/>
<path transform="matrix(1,0,0,-1,-81.193,309.496)" stroke-width="1" stroke-linecap="butt" stroke-miterlimit="10" stroke-linejoin="miter" fill="none" stroke="#000000" d="M 86.0025 56.51832 L 138.24 56.51832 L 138.24 70.07676 L 86.0025 70.07676 Z "/>
<text xml:space="preserve" transform="matrix(1 0 -0 1 10.033249 248.68283)" font-size="8.5" font-family="DejaVuSans"><tspan y="0" x="0 5.3975007 10.625 15.3 18.632 20.995 26.197003">Section</tspan></text>
<path transform="matrix(1,0,0,-1,-81.193,309.496)" d="M 138.24 56.51832 L 177.73714 56.51832 L 177.73714 70.07676 L 138.24 70.07676 Z " fill="#ffffff"/>
<path transform="matrix(1,0,0,-1,-81.193,309.496)" stroke-width="1" stroke-linecap="butt" stroke-miterlimit="10" stroke-linejoin="miter" fill="none" stroke="#000000" d="M 138.24 56.51832 L 177.73714 56.51832 L 177.73714 70.07676 L 138.24 70.07676 Z "/>
<text xml:space="preserve" transform="matrix(1 0 -0 1 65.66276 248.95627)" font-size="10" font-family="DejaVuSans"><tspan y="0" x="0 6.3600008 9.540001 15.900002">0.00</tspan></text>
<path transform="matrix(1,0,0,-1,-81.193,309.496)" d="M 177.73714 56.51832 L 217.23429 56.51832 L 217.23429 70.07676 L 177.73714 70.07676 Z " fill="#ffffff"/>
<path transform="matrix(1,0,0,-1,-81.193,309.496)" stroke-width="1" stroke-linecap="butt" stroke-miterlimit="10" stroke-linejoin="miter" fill="none" stroke="#000000" d="M 177.73714 56.51832 L 217.23429 56.51832 L 217.23429 70.07676 L 177.73714 70.07676 Z "/>
<text xml:space="preserve" transform="matrix(1 0 -0 1 105.159908 248.95627)" font-size="10" font-family="DejaVuSans"><tspan y="0" x="0 6.3600008 9.540001 15.900002">0.00</tspan></text>
<path transform="matrix(1,0,0,-1,-81.193,309.496)" d="M 217.23429 56.51832 L 256.7314 56.51832 L 256.7314 70.07676 L 217.23429 70.07676 Z " fill="#ffffff"/>
<path transform="matrix(1,0,0,-1,-81.193,309.496)" stroke-width="1" stroke-linecap="butt" stroke-miterlimit="10" stroke-linejoin="miter" fill="none" stroke="#000000" d="M 217.23429 56.51832 L 256.7314 56.51832 L 256.7314 70.07676 L 217.23429 70.07676 Z "/>
<text xml:space="preserve" transform="matrix(1 0 -0 1 144.65705 248.95627)" font-size="10" font-family="DejaVuSans"><tspan y="0" x="0 6.3600008 9.540001 15.900002">0.35</tspan></text>
<path transform="matrix(1,0,0,-1,-81.193,309.496)" d="M 256.7314 56.51832 L 296.22859 56.51832 L 296.22859 70.07676 L 256.7314 70.07676 Z " fill="#ffffff"/>
<path transform="matrix(1,0,0,-1,-81.193,309.496)" stroke-width="1" stroke-linecap="butt" stroke-miterlimit="10" stroke-linejoin="miter" fill="none" stroke="#000000" d="M 256.7314 56.51832 L 296.22859 56.51832 L 296.22859 70.07676 L 256.7314 70.07676 Z "/>
<text xml:space="preserve" transform="matrix(1 0 -0 1 184.1542 248.95627)" font-size="10" font-family="DejaVuSans"><tspan y="0" x="0 6.3600008 9.540001 15.900002">0.74</tspan></text>
<path transform="matrix(1,0,0,-1,-81.193,309.496)" d="M 296.22859 56.51832 L 335.7257 56.51832 L 335.7257 70.07676 L 296.22859 70.07676 Z " fill="#ffffff"/>
<path transform="matrix(1,0,0,-1,-81.193,309.496)" stroke-width="1" stroke-linecap="butt" stroke-miterlimit="10" stroke-linejoin="miter" fill="none" stroke="#000000" d="M 296.22859 56.51832 L 335.7257 56.51832 L 335.7257 70.07676 L 296.22859 70.07676 Z "/>
<text xml:space="preserve" transform="matrix(1 0 -0 1 223.65134 248.95627)" font-size="10" font-family="DejaVuSans"><tspan y="0" x="0 6.3600008 9.540001 15.900002">0.16</tspan></text>
<path transform="matrix(1,0,0,-1,-81.193,309.496)" d="M 335.7257 56.51832 L 375.22288 56.51832 L 375.22288 70.07676 L 335.7257 70.07676 Z " fill="#ffffff"/>
<path transform="matrix(1,0,0,-1,-81.193,309.496)" stroke-width="1" stroke-linecap="butt" stroke-miterlimit="10" stroke-linejoin="miter" fill="none" stroke="#000000" d="M 335.7257 56.51832 L 375.22288 56.51832 L 375.22288 70.07676 L 335.7257 70.07676 Z "/>
<text xml:space="preserve" transform="matrix(1 0 -0 1 263.14848 248.95627)" font-size="10" font-family="DejaVuSans"><tspan y="0" x="0 6.3600008 9.540001 15.900002">0.00</tspan></text>
<path transform="matrix(1,0,0,-1,-81.193,309.496)" d="M 375.22288 56.51832 L 414.72 56.51832 L 414.72 70.07676 L 375.22288 70.07676 Z " fill="#ffffff"/>
<path transform="matrix(1,0,0,-1,-81.193,309.496)" stroke-width="1" stroke-linecap="butt" stroke-miterlimit="10" stroke-linejoin="miter" fill="none" stroke="#000000" d="M 375.22288 56.51832 L 414.72 56.51832 L 414.72 70.07676 L 375.22288 70.07676 Z "/>
<text xml:space="preserve" transform="matrix(1 0 -0 1 302.64564 248.95627)" font-size="10" font-family="DejaVuSans"><tspan y="0" x="0 6.3600008 9.540001 15.900002">0.49</tspan></text>
<path transform="matrix(1,0,0,-1,-81.193,309.496)" d="M 86.0025 42.959875 L 138.24 42.959875 L 138.24 56.51832 L 86.0025 56.51832 Z " fill="#92a3cd"/>
<path transform="matrix(1,0,0,-1,-81.193,309.496)" stroke-width="1" stroke-linecap="butt" stroke-miterlimit="10" stroke-linejoin="miter" fill="none" stroke="#000000" d="M 86.0025 42.959875 L 138.24 42.959875 L 138.24 56.51832 L 86.0025 56.51832 Z "/>
<text xml:space="preserve" transform="matrix(1 0 -0 1 10.033249 262.24128)" font-size="8.5" font-family="DejaVuSans"><tspan y="0" x="0 5.933 11.1435 16.541 19.873002 22.236002 27.438004">Caption</tspan></text>
<path transform="matrix(1,0,0,-1,-81.193,309.496)" d="M 138.24 42.959875 L 177.73714 42.959875 L 177.73714 56.51832 L 138.24 56.51832 Z " fill="#ffffff"/>
<path transform="matrix(1,0,0,-1,-81.193,309.496)" stroke-width="1" stroke-linecap="butt" stroke-miterlimit="10" stroke-linejoin="miter" fill="none" stroke="#000000" d="M 138.24 42.959875 L 177.73714 42.959875 L 177.73714 56.51832 L 138.24 56.51832 Z "/>
<text xml:space="preserve" transform="matrix(1 0 -0 1 65.66276 262.5147)" font-size="10" font-family="DejaVuSans"><tspan y="0" x="0 6.3600008 9.540001 15.900002">0.00</tspan></text>
<path transform="matrix(1,0,0,-1,-81.193,309.496)" d="M 177.73714 42.959875 L 217.23429 42.959875 L 217.23429 56.51832 L 177.73714 56.51832 Z " fill="#ffffff"/>
<path transform="matrix(1,0,0,-1,-81.193,309.496)" stroke-width="1" stroke-linecap="butt" stroke-miterlimit="10" stroke-linejoin="miter" fill="none" stroke="#000000" d="M 177.73714 42.959875 L 217.23429 42.959875 L 217.23429 56.51832 L 177.73714 56.51832 Z "/>
<text xml:space="preserve" transform="matrix(1 0 -0 1 105.159908 262.5147)" font-size="10" font-family="DejaVuSans"><tspan y="0" x="0 6.3600008 9.540001 15.900002">0.00</tspan></text>
<path transform="matrix(1,0,0,-1,-81.193,309.496)" d="M 217.23429 42.959875 L 256.7314 42.959875 L 256.7314 56.51832 L 217.23429 56.51832 Z " fill="#ffffff"/>
<path transform="matrix(1,0,0,-1,-81.193,309.496)" stroke-width="1" stroke-linecap="butt" stroke-miterlimit="10" stroke-linejoin="miter" fill="none" stroke="#000000" d="M 217.23429 42.959875 L 256.7314 42.959875 L 256.7314 56.51832 L 217.23429 56.51832 Z "/>
<text xml:space="preserve" transform="matrix(1 0 -0 1 144.65705 262.5147)" font-size="10" font-family="DejaVuSans"><tspan y="0" x="0 6.3600008 9.540001 15.900002">0.00</tspan></text>
<path transform="matrix(1,0,0,-1,-81.193,309.496)" d="M 256.7314 42.959875 L 296.22859 42.959875 L 296.22859 56.51832 L 256.7314 56.51832 Z " fill="#ffffff"/>
<path transform="matrix(1,0,0,-1,-81.193,309.496)" stroke-width="1" stroke-linecap="butt" stroke-miterlimit="10" stroke-linejoin="miter" fill="none" stroke="#000000" d="M 256.7314 42.959875 L 296.22859 42.959875 L 296.22859 56.51832 L 256.7314 56.51832 Z "/>
<text xml:space="preserve" transform="matrix(1 0 -0 1 184.1542 262.5147)" font-size="10" font-family="DejaVuSans"><tspan y="0" x="0 6.3600008 9.540001 15.900002">0.49</tspan></text>
<path transform="matrix(1,0,0,-1,-81.193,309.496)" d="M 296.22859 42.959875 L 335.7257 42.959875 L 335.7257 56.51832 L 296.22859 56.51832 Z " fill="#ffffff"/>
<path transform="matrix(1,0,0,-1,-81.193,309.496)" stroke-width="1" stroke-linecap="butt" stroke-miterlimit="10" stroke-linejoin="miter" fill="none" stroke="#000000" d="M 296.22859 42.959875 L 335.7257 42.959875 L 335.7257 56.51832 L 296.22859 56.51832 Z "/>
<text xml:space="preserve" transform="matrix(1 0 -0 1 223.65134 262.5147)" font-size="10" font-family="DejaVuSans"><tspan y="0" x="0 6.3600008 9.540001 15.900002">0.45</tspan></text>
<path transform="matrix(1,0,0,-1,-81.193,309.496)" d="M 335.7257 42.959875 L 375.22288 42.959875 L 375.22288 56.51832 L 335.7257 56.51832 Z " fill="#ffffff"/>
<path transform="matrix(1,0,0,-1,-81.193,309.496)" stroke-width="1" stroke-linecap="butt" stroke-miterlimit="10" stroke-linejoin="miter" fill="none" stroke="#000000" d="M 335.7257 42.959875 L 375.22288 42.959875 L 375.22288 56.51832 L 335.7257 56.51832 Z "/>
<text xml:space="preserve" transform="matrix(1 0 -0 1 263.14848 262.5147)" font-size="10" font-family="DejaVuSans"><tspan y="0" x="0 6.3600008 9.540001 15.900002">0.00</tspan></text>
<path transform="matrix(1,0,0,-1,-81.193,309.496)" d="M 375.22288 42.959875 L 414.72 42.959875 L 414.72 56.51832 L 375.22288 56.51832 Z " fill="#ffffff"/>
<path transform="matrix(1,0,0,-1,-81.193,309.496)" stroke-width="1" stroke-linecap="butt" stroke-miterlimit="10" stroke-linejoin="miter" fill="none" stroke="#000000" d="M 375.22288 42.959875 L 414.72 42.959875 L 414.72 56.51832 L 375.22288 56.51832 Z "/>
<text xml:space="preserve" transform="matrix(1 0 -0 1 302.64564 262.5147)" font-size="10" font-family="DejaVuSans"><tspan y="0" x="0 6.3600008 9.540001 15.900002">0.00</tspan></text>
<path transform="matrix(1,0,0,-1,-81.193,309.496)" d="M 86.0025 29.401434 L 138.24 29.401434 L 138.24 42.959875 L 86.0025 42.959875 Z " fill="#a7c2dd"/>
<path transform="matrix(1,0,0,-1,-81.193,309.496)" stroke-width="1" stroke-linecap="butt" stroke-miterlimit="10" stroke-linejoin="miter" fill="none" stroke="#000000" d="M 86.0025 29.401434 L 138.24 29.401434 L 138.24 42.959875 L 86.0025 42.959875 Z "/>
<text xml:space="preserve" transform="matrix(1 0 -0 1 10.033249 275.7997)" font-size="8.5" font-family="DejaVuSans"><tspan y="0" x="0 4.7345006 7.097501 11.526001">List</tspan></text>
<path transform="matrix(1,0,0,-1,-81.193,309.496)" d="M 138.24 29.401434 L 177.73714 29.401434 L 177.73714 42.959875 L 138.24 42.959875 Z " fill="#ffffff"/>
<path transform="matrix(1,0,0,-1,-81.193,309.496)" stroke-width="1" stroke-linecap="butt" stroke-miterlimit="10" stroke-linejoin="miter" fill="none" stroke="#000000" d="M 138.24 29.401434 L 177.73714 29.401434 L 177.73714 42.959875 L 138.24 42.959875 Z "/>
<text xml:space="preserve" transform="matrix(1 0 -0 1 65.66276 276.07316)" font-size="10" font-family="DejaVuSans"><tspan y="0" x="0 6.3600008 9.540001 15.900002">0.00</tspan></text>
<path transform="matrix(1,0,0,-1,-81.193,309.496)" d="M 177.73714 29.401434 L 217.23429 29.401434 L 217.23429 42.959875 L 177.73714 42.959875 Z " fill="#ffffff"/>
<path transform="matrix(1,0,0,-1,-81.193,309.496)" stroke-width="1" stroke-linecap="butt" stroke-miterlimit="10" stroke-linejoin="miter" fill="none" stroke="#000000" d="M 177.73714 29.401434 L 217.23429 29.401434 L 217.23429 42.959875 L 177.73714 42.959875 Z "/>
<text xml:space="preserve" transform="matrix(1 0 -0 1 105.159908 276.07316)" font-size="10" font-family="DejaVuSans"><tspan y="0" x="0 6.3600008 9.540001 15.900002">0.00</tspan></text>
<path transform="matrix(1,0,0,-1,-81.193,309.496)" d="M 217.23429 29.401434 L 256.7314 29.401434 L 256.7314 42.959875 L 217.23429 42.959875 Z " fill="#ffffff"/>
<path transform="matrix(1,0,0,-1,-81.193,309.496)" stroke-width="1" stroke-linecap="butt" stroke-miterlimit="10" stroke-linejoin="miter" fill="none" stroke="#000000" d="M 217.23429 29.401434 L 256.7314 29.401434 L 256.7314 42.959875 L 217.23429 42.959875 Z "/>
<text xml:space="preserve" transform="matrix(1 0 -0 1 144.65705 276.07316)" font-size="10" font-family="DejaVuSans"><tspan y="0" x="0 6.3600008 9.540001 15.900002">0.00</tspan></text>
<path transform="matrix(1,0,0,-1,-81.193,309.496)" d="M 256.7314 29.401434 L 296.22859 29.401434 L 296.22859 42.959875 L 256.7314 42.959875 Z " fill="#ffffff"/>
<path transform="matrix(1,0,0,-1,-81.193,309.496)" stroke-width="1" stroke-linecap="butt" stroke-miterlimit="10" stroke-linejoin="miter" fill="none" stroke="#000000" d="M 256.7314 29.401434 L 296.22859 29.401434 L 296.22859 42.959875 L 256.7314 42.959875 Z "/>
<text xml:space="preserve" transform="matrix(1 0 -0 1 184.1542 276.07316)" font-size="10" font-family="DejaVuSans"><tspan y="0" x="0 6.3600008 9.540001 15.900002">0.00</tspan></text>
<path transform="matrix(1,0,0,-1,-81.193,309.496)" d="M 296.22859 29.401434 L 335.7257 29.401434 L 335.7257 42.959875 L 296.22859 42.959875 Z " fill="#ffffff"/>
<path transform="matrix(1,0,0,-1,-81.193,309.496)" stroke-width="1" stroke-linecap="butt" stroke-miterlimit="10" stroke-linejoin="miter" fill="none" stroke="#000000" d="M 296.22859 29.401434 L 335.7257 29.401434 L 335.7257 42.959875 L 296.22859 42.959875 Z "/>
<text xml:space="preserve" transform="matrix(1 0 -0 1 223.65134 276.07316)" font-size="10" font-family="DejaVuSans"><tspan y="0" x="0 6.3600008 9.540001 15.900002">0.00</tspan></text>
<path transform="matrix(1,0,0,-1,-81.193,309.496)" d="M 335.7257 29.401434 L 375.22288 29.401434 L 375.22288 42.959875 L 335.7257 42.959875 Z " fill="#ffffff"/>
<path transform="matrix(1,0,0,-1,-81.193,309.496)" stroke-width="1" stroke-linecap="butt" stroke-miterlimit="10" stroke-linejoin="miter" fill="none" stroke="#000000" d="M 335.7257 29.401434 L 375.22288 29.401434 L 375.22288 42.959875 L 335.7257 42.959875 Z "/>
<text xml:space="preserve" transform="matrix(1 0 -0 1 263.14848 276.07316)" font-size="10" font-family="DejaVuSans"><tspan y="0" x="0 6.3600008 9.540001 15.900002">0.00</tspan></text>
<path transform="matrix(1,0,0,-1,-81.193,309.496)" d="M 375.22288 29.401434 L 414.72 29.401434 L 414.72 42.959875 L 375.22288 42.959875 Z " fill="#ffffff"/>
<path transform="matrix(1,0,0,-1,-81.193,309.496)" stroke-width="1" stroke-linecap="butt" stroke-miterlimit="10" stroke-linejoin="miter" fill="none" stroke="#000000" d="M 375.22288 29.401434 L 414.72 29.401434 L 414.72 42.959875 L 375.22288 42.959875 Z "/>
<text xml:space="preserve" transform="matrix(1 0 -0 1 302.64564 276.07316)" font-size="10" font-family="DejaVuSans"><tspan y="0" x="0 6.3600008 9.540001 15.900002">0.00</tspan></text>
<path transform="matrix(1,0,0,-1,-81.193,309.496)" d="M 86.0025 15.842992 L 138.24 15.842992 L 138.24 29.401434 L 86.0025 29.401434 Z " fill="#c7d9e9"/>
<path transform="matrix(1,0,0,-1,-81.193,309.496)" stroke-width="1" stroke-linecap="butt" stroke-miterlimit="10" stroke-linejoin="miter" fill="none" stroke="#000000" d="M 86.0025 15.842992 L 138.24 15.842992 L 138.24 29.401434 L 86.0025 29.401434 Z "/>
<text xml:space="preserve" transform="matrix(1 0 -0 1 10.033249 289.35816)" font-size="8.5" font-family="DejaVuSans"><tspan y="0" x="0 4.5906255 9.792625 14.994626 18.326626 23.554127">Footer</tspan></text>
<path transform="matrix(1,0,0,-1,-81.193,309.496)" d="M 138.24 15.842992 L 177.73714 15.842992 L 177.73714 29.401434 L 138.24 29.401434 Z " fill="#ffffff"/>
<path transform="matrix(1,0,0,-1,-81.193,309.496)" stroke-width="1" stroke-linecap="butt" stroke-miterlimit="10" stroke-linejoin="miter" fill="none" stroke="#000000" d="M 138.24 15.842992 L 177.73714 15.842992 L 177.73714 29.401434 L 138.24 29.401434 Z "/>
<text xml:space="preserve" transform="matrix(1 0 -0 1 65.66276 289.6316)" font-size="10" font-family="DejaVuSans"><tspan y="0" x="0 6.3600008 9.540001 15.900002">0.00</tspan></text>
<path transform="matrix(1,0,0,-1,-81.193,309.496)" d="M 177.73714 15.842992 L 217.23429 15.842992 L 217.23429 29.401434 L 177.73714 29.401434 Z " fill="#ffffff"/>
<path transform="matrix(1,0,0,-1,-81.193,309.496)" stroke-width="1" stroke-linecap="butt" stroke-miterlimit="10" stroke-linejoin="miter" fill="none" stroke="#000000" d="M 177.73714 15.842992 L 217.23429 15.842992 L 217.23429 29.401434 L 177.73714 29.401434 Z "/>
<text xml:space="preserve" transform="matrix(1 0 -0 1 105.159908 289.6316)" font-size="10" font-family="DejaVuSans"><tspan y="0" x="0 6.3600008 9.540001 15.900002">0.00</tspan></text>
<path transform="matrix(1,0,0,-1,-81.193,309.496)" d="M 217.23429 15.842992 L 256.7314 15.842992 L 256.7314 29.401434 L 217.23429 29.401434 Z " fill="#ffffff"/>
<path transform="matrix(1,0,0,-1,-81.193,309.496)" stroke-width="1" stroke-linecap="butt" stroke-miterlimit="10" stroke-linejoin="miter" fill="none" stroke="#000000" d="M 217.23429 15.842992 L 256.7314 15.842992 L 256.7314 29.401434 L 217.23429 29.401434 Z "/>
<text xml:space="preserve" transform="matrix(1 0 -0 1 144.65705 289.6316)" font-size="10" font-family="DejaVuSans"><tspan y="0" x="0 6.3600008 9.540001 15.900002">0.00</tspan></text>
<path transform="matrix(1,0,0,-1,-81.193,309.496)" d="M 256.7314 15.842992 L 296.22859 15.842992 L 296.22859 29.401434 L 256.7314 29.401434 Z " fill="#ffffff"/>
<path transform="matrix(1,0,0,-1,-81.193,309.496)" stroke-width="1" stroke-linecap="butt" stroke-miterlimit="10" stroke-linejoin="miter" fill="none" stroke="#000000" d="M 256.7314 15.842992 L 296.22859 15.842992 L 296.22859 29.401434 L 256.7314 29.401434 Z "/>
<text xml:space="preserve" transform="matrix(1 0 -0 1 184.1542 289.6316)" font-size="10" font-family="DejaVuSans"><tspan y="0" x="0 6.3600008 9.540001 15.900002">0.00</tspan></text>
<path transform="matrix(1,0,0,-1,-81.193,309.496)" d="M 296.22859 15.842992 L 335.7257 15.842992 L 335.7257 29.401434 L 296.22859 29.401434 Z " fill="#ffffff"/>
<path transform="matrix(1,0,0,-1,-81.193,309.496)" stroke-width="1" stroke-linecap="butt" stroke-miterlimit="10" stroke-linejoin="miter" fill="none" stroke="#000000" d="M 296.22859 15.842992 L 335.7257 15.842992 L 335.7257 29.401434 L 296.22859 29.401434 Z "/>
<text xml:space="preserve" transform="matrix(1 0 -0 1 223.65134 289.6316)" font-size="10" font-family="DejaVuSans"><tspan y="0" x="0 6.3600008 9.540001 15.900002">0.20</tspan></text>
<path transform="matrix(1,0,0,-1,-81.193,309.496)" d="M 335.7257 15.842992 L 375.22288 15.842992 L 375.22288 29.401434 L 335.7257 29.401434 Z " fill="#ffffff"/>
<path transform="matrix(1,0,0,-1,-81.193,309.496)" stroke-width="1" stroke-linecap="butt" stroke-miterlimit="10" stroke-linejoin="miter" fill="none" stroke="#000000" d="M 335.7257 15.842992 L 375.22288 15.842992 L 375.22288 29.401434 L 335.7257 29.401434 Z "/>
<text xml:space="preserve" transform="matrix(1 0 -0 1 263.14848 289.6316)" font-size="10" font-family="DejaVuSans"><tspan y="0" x="0 6.3600008 9.540001 15.900002">0.00</tspan></text>
<path transform="matrix(1,0,0,-1,-81.193,309.496)" d="M 375.22288 15.842992 L 414.72 15.842992 L 414.72 29.401434 L 375.22288 29.401434 Z " fill="#ffffff"/>
<path transform="matrix(1,0,0,-1,-81.193,309.496)" stroke-width="1" stroke-linecap="butt" stroke-miterlimit="10" stroke-linejoin="miter" fill="none" stroke="#000000" d="M 375.22288 15.842992 L 414.72 15.842992 L 414.72 29.401434 L 375.22288 29.401434 Z "/>
<text xml:space="preserve" transform="matrix(1 0 -0 1 302.64564 289.6316)" font-size="10" font-family="DejaVuSans"><tspan y="0" x="0 6.3600008 9.540001 15.900002">0.00</tspan></text>
<path transform="matrix(1,0,0,-1,-81.193,309.496)" d="M 86.0025 2.284551 L 138.24 2.284551 L 138.24 15.842992 L 86.0025 15.842992 Z " fill="#e5eff6"/>
<path transform="matrix(1,0,0,-1,-81.193,309.496)" stroke-width="1" stroke-linecap="butt" stroke-miterlimit="10" stroke-linejoin="miter" fill="none" stroke="#000000" d="M 86.0025 2.284551 L 138.24 2.284551 L 138.24 15.842992 L 86.0025 15.842992 Z "/>
<text xml:space="preserve" transform="matrix(1 0 -0 1 10.033249 302.9166)" font-size="8.5" font-family="DejaVuSans"><tspan y="0" x="0 5.372 10.769501 16.1585 21.369002 24.701003 27.064003 32.266004">Equation</tspan></text>
<path transform="matrix(1,0,0,-1,-81.193,309.496)" d="M 138.24 2.284551 L 177.73714 2.284551 L 177.73714 15.842992 L 138.24 15.842992 Z " fill="#ffffff"/>
<path transform="matrix(1,0,0,-1,-81.193,309.496)" stroke-width="1" stroke-linecap="butt" stroke-miterlimit="10" stroke-linejoin="miter" fill="none" stroke="#000000" d="M 138.24 2.284551 L 177.73714 2.284551 L 177.73714 15.842992 L 138.24 15.842992 Z "/>
<text xml:space="preserve" transform="matrix(1 0 -0 1 65.66276 303.19004)" font-size="10" font-family="DejaVuSans"><tspan y="0" x="0 6.3600008 9.540001 15.900002">0.00</tspan></text>
<path transform="matrix(1,0,0,-1,-81.193,309.496)" d="M 177.73714 2.284551 L 217.23429 2.284551 L 217.23429 15.842992 L 177.73714 15.842992 Z " fill="#ffffff"/>
<path transform="matrix(1,0,0,-1,-81.193,309.496)" stroke-width="1" stroke-linecap="butt" stroke-miterlimit="10" stroke-linejoin="miter" fill="none" stroke="#000000" d="M 177.73714 2.284551 L 217.23429 2.284551 L 217.23429 15.842992 L 177.73714 15.842992 Z "/>
<text xml:space="preserve" transform="matrix(1 0 -0 1 105.159908 303.19004)" font-size="10" font-family="DejaVuSans"><tspan y="0" x="0 6.3600008 9.540001 15.900002">0.00</tspan></text>
<path transform="matrix(1,0,0,-1,-81.193,309.496)" d="M 217.23429 2.284551 L 256.7314 2.284551 L 256.7314 15.842992 L 217.23429 15.842992 Z " fill="#ffffff"/>
<path transform="matrix(1,0,0,-1,-81.193,309.496)" stroke-width="1" stroke-linecap="butt" stroke-miterlimit="10" stroke-linejoin="miter" fill="none" stroke="#000000" d="M 217.23429 2.284551 L 256.7314 2.284551 L 256.7314 15.842992 L 217.23429 15.842992 Z "/>
<text xml:space="preserve" transform="matrix(1 0 -0 1 144.65705 303.19004)" font-size="10" font-family="DejaVuSans"><tspan y="0" x="0 6.3600008 9.540001 15.900002">0.00</tspan></text>
<path transform="matrix(1,0,0,-1,-81.193,309.496)" d="M 256.7314 2.284551 L 296.22859 2.284551 L 296.22859 15.842992 L 256.7314 15.842992 Z " fill="#ffffff"/>
<path transform="matrix(1,0,0,-1,-81.193,309.496)" stroke-width="1" stroke-linecap="butt" stroke-miterlimit="10" stroke-linejoin="miter" fill="none" stroke="#000000" d="M 256.7314 2.284551 L 296.22859 2.284551 L 296.22859 15.842992 L 256.7314 15.842992 Z "/>
<text xml:space="preserve" transform="matrix(1 0 -0 1 184.1542 303.19004)" font-size="10" font-family="DejaVuSans"><tspan y="0" x="0 6.3600008 9.540001 15.900002">0.25</tspan></text>
<path transform="matrix(1,0,0,-1,-81.193,309.496)" d="M 296.22859 2.284551 L 335.7257 2.284551 L 335.7257 15.842992 L 296.22859 15.842992 Z " fill="#ffffff"/>
<path transform="matrix(1,0,0,-1,-81.193,309.496)" stroke-width="1" stroke-linecap="butt" stroke-miterlimit="10" stroke-linejoin="miter" fill="none" stroke="#000000" d="M 296.22859 2.284551 L 335.7257 2.284551 L 335.7257 15.842992 L 296.22859 15.842992 Z "/>
<text xml:space="preserve" transform="matrix(1 0 -0 1 223.65134 303.19004)" font-size="10" font-family="DejaVuSans"><tspan y="0" x="0 6.3600008 9.540001 15.900002">0.00</tspan></text>
<path transform="matrix(1,0,0,-1,-81.193,309.496)" d="M 335.7257 2.284551 L 375.22288 2.284551 L 375.22288 15.842992 L 335.7257 15.842992 Z " fill="#ffffff"/>
<path transform="matrix(1,0,0,-1,-81.193,309.496)" stroke-width="1" stroke-linecap="butt" stroke-miterlimit="10" stroke-linejoin="miter" fill="none" stroke="#000000" d="M 335.7257 2.284551 L 375.22288 2.284551 L 375.22288 15.842992 L 335.7257 15.842992 Z "/>
<text xml:space="preserve" transform="matrix(1 0 -0 1 263.14848 303.19004)" font-size="10" font-family="DejaVuSans"><tspan y="0" x="0 6.3600008 9.540001 15.900002">0.00</tspan></text>
<path transform="matrix(1,0,0,-1,-81.193,309.496)" d="M 375.22288 2.284551 L 414.72 2.284551 L 414.72 15.842992 L 375.22288 15.842992 Z " fill="#ffffff"/>
<path transform="matrix(1,0,0,-1,-81.193,309.496)" stroke-width="1" stroke-linecap="butt" stroke-miterlimit="10" stroke-linejoin="miter" fill="none" stroke="#000000" d="M 375.22288 2.284551 L 414.72 2.284551 L 414.72 15.842992 L 375.22288 15.842992 Z "/>
<text xml:space="preserve" transform="matrix(1 0 -0 1 302.64564 303.19004)" font-size="10" font-family="DejaVuSans"><tspan y="0" x="0 6.3600008 9.540001 15.900002">0.00</tspan></text>
<clipPath id="cp2">
<path transform="matrix(1,0,0,-1,-81.193,309.496)" d="M 138.24 103.68 L 414.72004 103.68 L 414.72004 304.128 L 138.24 304.128 Z "/>
</clipPath>
<g clip-path="url(#cp2)">
<path transform="matrix(1,0,0,-1,-81.193,309.496)" d="M 150.80727 103.68 L 166.51636 103.68 L 150.80727 103.68 Z " fill="#e5eff6"/>
</g>
<clipPath id="cp3">
<path transform="matrix(1,0,0,-1,-81.193,309.496)" d="M 138.24 103.68 L 414.72004 103.68 L 414.72004 304.128 L 138.24 304.128 Z "/>
</clipPath>
<g clip-path="url(#cp3)">
<path transform="matrix(1,0,0,-1,-81.193,309.496)" d="M 190.08 103.68 L 205.7891 103.68 L 190.08 103.68 Z " fill="#e5eff6"/>
</g>
<clipPath id="cp4">
<path transform="matrix(1,0,0,-1,-81.193,309.496)" d="M 138.24 103.68 L 414.72004 103.68 L 414.72004 304.128 L 138.24 304.128 Z "/>
</clipPath>
<g clip-path="url(#cp4)">
<path transform="matrix(1,0,0,-1,-81.193,309.496)" d="M 229.35272 103.68 L 245.06182 103.68 L 229.35272 103.68 Z " fill="#e5eff6"/>
</g>
<clipPath id="cp5">
<path transform="matrix(1,0,0,-1,-81.193,309.496)" d="M 138.24 103.68 L 414.72004 103.68 L 414.72004 304.128 L 138.24 304.128 Z "/>
</clipPath>
<g clip-path="url(#cp5)">
<path transform="matrix(1,0,0,-1,-81.193,309.496)" d="M 268.62547 103.68 L 284.33454 103.68 L 284.33454 116.208 L 268.62547 116.208 Z " fill="#e5eff6"/>
</g>
<clipPath id="cp6">
<path transform="matrix(1,0,0,-1,-81.193,309.496)" d="M 138.24 103.68 L 414.72004 103.68 L 414.72004 304.128 L 138.24 304.128 Z "/>
</clipPath>
<g clip-path="url(#cp6)">
<path transform="matrix(1,0,0,-1,-81.193,309.496)" d="M 307.8982 103.68 L 323.60728 103.68 L 307.8982 103.68 Z " fill="#e5eff6"/>
</g>
<clipPath id="cp7">
<path transform="matrix(1,0,0,-1,-81.193,309.496)" d="M 138.24 103.68 L 414.72004 103.68 L 414.72004 304.128 L 138.24 304.128 Z "/>
</clipPath>
<g clip-path="url(#cp7)">
<path transform="matrix(1,0,0,-1,-81.193,309.496)" d="M 347.1709 103.68 L 362.88 103.68 L 347.1709 103.68 Z " fill="#e5eff6"/>
</g>
<clipPath id="cp8">
<path transform="matrix(1,0,0,-1,-81.193,309.496)" d="M 138.24 103.68 L 414.72004 103.68 L 414.72004 304.128 L 138.24 304.128 Z "/>
</clipPath>
<g clip-path="url(#cp8)">
<path transform="matrix(1,0,0,-1,-81.193,309.496)" d="M 386.44364 103.68 L 402.15275 103.68 L 386.44364 103.68 Z " fill="#e5eff6"/>
</g>
<clipPath id="cp9">
<path transform="matrix(1,0,0,-1,-81.193,309.496)" d="M 138.24 103.68 L 414.72004 103.68 L 414.72004 304.128 L 138.24 304.128 Z "/>
</clipPath>
<g clip-path="url(#cp9)">
<path transform="matrix(1,0,0,-1,-81.193,309.496)" d="M 150.80727 103.68 L 166.51636 103.68 L 150.80727 103.68 Z " fill="#c7d9e9"/>
</g>
<clipPath id="cp10">
<path transform="matrix(1,0,0,-1,-81.193,309.496)" d="M 138.24 103.68 L 414.72004 103.68 L 414.72004 304.128 L 138.24 304.128 Z "/>
</clipPath>
<g clip-path="url(#cp10)">
<path transform="matrix(1,0,0,-1,-81.193,309.496)" d="M 190.08 103.68 L 205.7891 103.68 L 190.08 103.68 Z " fill="#c7d9e9"/>
</g>
<clipPath id="cp11">
<path transform="matrix(1,0,0,-1,-81.193,309.496)" d="M 138.24 103.68 L 414.72004 103.68 L 414.72004 304.128 L 138.24 304.128 Z "/>
</clipPath>
<g clip-path="url(#cp11)">
<path transform="matrix(1,0,0,-1,-81.193,309.496)" d="M 229.35272 103.68 L 245.06182 103.68 L 229.35272 103.68 Z " fill="#c7d9e9"/>
</g>
<clipPath id="cp12">
<path transform="matrix(1,0,0,-1,-81.193,309.496)" d="M 138.24 103.68 L 414.72004 103.68 L 414.72004 304.128 L 138.24 304.128 Z "/>
</clipPath>
<g clip-path="url(#cp12)">
<path transform="matrix(1,0,0,-1,-81.193,309.496)" d="M 268.62547 116.208 L 284.33454 116.208 L 268.62547 116.208 Z " fill="#c7d9e9"/>
</g>
<clipPath id="cp13">
<path transform="matrix(1,0,0,-1,-81.193,309.496)" d="M 138.24 103.68 L 414.72004 103.68 L 414.72004 304.128 L 138.24 304.128 Z "/>
</clipPath>
<g clip-path="url(#cp13)">
<path transform="matrix(1,0,0,-1,-81.193,309.496)" d="M 307.8982 103.68 L 323.60728 103.68 L 323.60728 113.7024 L 307.8982 113.7024 Z " fill="#c7d9e9"/>
</g>
<clipPath id="cp14">
<path transform="matrix(1,0,0,-1,-81.193,309.496)" d="M 138.24 103.68 L 414.72004 103.68 L 414.72004 304.128 L 138.24 304.128 Z "/>
</clipPath>
<g clip-path="url(#cp14)">
<path transform="matrix(1,0,0,-1,-81.193,309.496)" d="M 347.1709 103.68 L 362.88 103.68 L 347.1709 103.68 Z " fill="#c7d9e9"/>
</g>
<clipPath id="cp15">
<path transform="matrix(1,0,0,-1,-81.193,309.496)" d="M 138.24 103.68 L 414.72004 103.68 L 414.72004 304.128 L 138.24 304.128 Z "/>
</clipPath>
<g clip-path="url(#cp15)">
<path transform="matrix(1,0,0,-1,-81.193,309.496)" d="M 386.44364 103.68 L 402.15275 103.68 L 386.44364 103.68 Z " fill="#c7d9e9"/>
</g>
<clipPath id="cp16">
<path transform="matrix(1,0,0,-1,-81.193,309.496)" d="M 138.24 103.68 L 414.72004 103.68 L 414.72004 304.128 L 138.24 304.128 Z "/>
</clipPath>
<g clip-path="url(#cp16)">
<path transform="matrix(1,0,0,-1,-81.193,309.496)" d="M 150.80727 103.68 L 166.51636 103.68 L 150.80727 103.68 Z " fill="#a7c2dd"/>
</g>
<clipPath id="cp17">
<path transform="matrix(1,0,0,-1,-81.193,309.496)" d="M 138.24 103.68 L 414.72004 103.68 L 414.72004 304.128 L 138.24 304.128 Z "/>
</clipPath>
<g clip-path="url(#cp17)">
<path transform="matrix(1,0,0,-1,-81.193,309.496)" d="M 190.08 103.68 L 205.7891 103.68 L 190.08 103.68 Z " fill="#a7c2dd"/>
</g>
<clipPath id="cp18">
<path transform="matrix(1,0,0,-1,-81.193,309.496)" d="M 138.24 103.68 L 414.72004 103.68 L 414.72004 304.128 L 138.24 304.128 Z "/>
</clipPath>
<g clip-path="url(#cp18)">
<path transform="matrix(1,0,0,-1,-81.193,309.496)" d="M 229.35272 103.68 L 245.06182 103.68 L 229.35272 103.68 Z " fill="#a7c2dd"/>
</g>
<clipPath id="cp19">
<path transform="matrix(1,0,0,-1,-81.193,309.496)" d="M 138.24 103.68 L 414.72004 103.68 L 414.72004 304.128 L 138.24 304.128 Z "/>
</clipPath>
<g clip-path="url(#cp19)">
<path transform="matrix(1,0,0,-1,-81.193,309.496)" d="M 268.62547 116.208 L 284.33454 116.208 L 268.62547 116.208 Z " fill="#a7c2dd"/>
</g>
<clipPath id="cp20">
<path transform="matrix(1,0,0,-1,-81.193,309.496)" d="M 138.24 103.68 L 414.72004 103.68 L 414.72004 304.128 L 138.24 304.128 Z "/>
</clipPath>
<g clip-path="url(#cp20)">
<path transform="matrix(1,0,0,-1,-81.193,309.496)" d="M 307.8982 113.7024 L 323.60728 113.7024 L 307.8982 113.7024 Z " fill="#a7c2dd"/>
</g>
<clipPath id="cp21">
<path transform="matrix(1,0,0,-1,-81.193,309.496)" d="M 138.24 103.68 L 414.72004 103.68 L 414.72004 304.128 L 138.24 304.128 Z "/>
</clipPath>
<g clip-path="url(#cp21)">
<path transform="matrix(1,0,0,-1,-81.193,309.496)" d="M 347.1709 103.68 L 362.88 103.68 L 347.1709 103.68 Z " fill="#a7c2dd"/>
</g>
<clipPath id="cp22">
<path transform="matrix(1,0,0,-1,-81.193,309.496)" d="M 138.24 103.68 L 414.72004 103.68 L 414.72004 304.128 L 138.24 304.128 Z "/>
</clipPath>
<g clip-path="url(#cp22)">
<path transform="matrix(1,0,0,-1,-81.193,309.496)" d="M 386.44364 103.68 L 402.15275 103.68 L 386.44364 103.68 Z " fill="#a7c2dd"/>
</g>
<clipPath id="cp23">
<path transform="matrix(1,0,0,-1,-81.193,309.496)" d="M 138.24 103.68 L 414.72004 103.68 L 414.72004 304.128 L 138.24 304.128 Z "/>
</clipPath>
<g clip-path="url(#cp23)">
<path transform="matrix(1,0,0,-1,-81.193,309.496)" d="M 150.80727 103.68 L 166.51636 103.68 L 150.80727 103.68 Z " fill="#92a3cd"/>
</g>
<clipPath id="cp24">
<path transform="matrix(1,0,0,-1,-81.193,309.496)" d="M 138.24 103.68 L 414.72004 103.68 L 414.72004 304.128 L 138.24 304.128 Z "/>
</clipPath>
<g clip-path="url(#cp24)">
<path transform="matrix(1,0,0,-1,-81.193,309.496)" d="M 190.08 103.68 L 205.7891 103.68 L 190.08 103.68 Z " fill="#92a3cd"/>
</g>
<clipPath id="cp25">
<path transform="matrix(1,0,0,-1,-81.193,309.496)" d="M 138.24 103.68 L 414.72004 103.68 L 414.72004 304.128 L 138.24 304.128 Z "/>
</clipPath>
<g clip-path="url(#cp25)">
<path transform="matrix(1,0,0,-1,-81.193,309.496)" d="M 229.35272 103.68 L 245.06182 103.68 L 229.35272 103.68 Z " fill="#92a3cd"/>
</g>
<clipPath id="cp26">
<path transform="matrix(1,0,0,-1,-81.193,309.496)" d="M 138.24 103.68 L 414.72004 103.68 L 414.72004 304.128 L 138.24 304.128 Z "/>
</clipPath>
<g clip-path="url(#cp26)">
<path transform="matrix(1,0,0,-1,-81.193,309.496)" d="M 268.62547 116.208 L 284.33454 116.208 L 284.33454 140.76288 L 268.62547 140.76288 Z " fill="#92a3cd"/>
</g>
<clipPath id="cp27">
<path transform="matrix(1,0,0,-1,-81.193,309.496)" d="M 138.24 103.68 L 414.72004 103.68 L 414.72004 304.128 L 138.24 304.128 Z "/>
</clipPath>
<g clip-path="url(#cp27)">
<path transform="matrix(1,0,0,-1,-81.193,309.496)" d="M 307.8982 113.7024 L 323.60728 113.7024 L 323.60728 136.2528 L 307.8982 136.2528 Z " fill="#92a3cd"/>
</g>
<clipPath id="cp28">
<path transform="matrix(1,0,0,-1,-81.193,309.496)" d="M 138.24 103.68 L 414.72004 103.68 L 414.72004 304.128 L 138.24 304.128 Z "/>
</clipPath>
<g clip-path="url(#cp28)">
<path transform="matrix(1,0,0,-1,-81.193,309.496)" d="M 347.1709 103.68 L 362.88 103.68 L 347.1709 103.68 Z " fill="#92a3cd"/>
</g>
<clipPath id="cp29">
<path transform="matrix(1,0,0,-1,-81.193,309.496)" d="M 138.24 103.68 L 414.72004 103.68 L 414.72004 304.128 L 138.24 304.128 Z "/>
</clipPath>
<g clip-path="url(#cp29)">
<path transform="matrix(1,0,0,-1,-81.193,309.496)" d="M 386.44364 103.68 L 402.15275 103.68 L 386.44364 103.68 Z " fill="#92a3cd"/>
</g>
<clipPath id="cp30">
<path transform="matrix(1,0,0,-1,-81.193,309.496)" d="M 138.24 103.68 L 414.72004 103.68 L 414.72004 304.128 L 138.24 304.128 Z "/>
</clipPath>
<g clip-path="url(#cp30)">
<path transform="matrix(1,0,0,-1,-81.193,309.496)" d="M 150.80727 103.68 L 166.51636 103.68 L 150.80727 103.68 Z " fill="#8c7ab8"/>
</g>
<clipPath id="cp31">
<path transform="matrix(1,0,0,-1,-81.193,309.496)" d="M 138.24 103.68 L 414.72004 103.68 L 414.72004 304.128 L 138.24 304.128 Z "/>
</clipPath>
<g clip-path="url(#cp31)">
<path transform="matrix(1,0,0,-1,-81.193,309.496)" d="M 190.08 103.68 L 205.7891 103.68 L 190.08 103.68 Z " fill="#8c7ab8"/>
</g>
<clipPath id="cp32">
<path transform="matrix(1,0,0,-1,-81.193,309.496)" d="M 138.24 103.68 L 414.72004 103.68 L 414.72004 304.128 L 138.24 304.128 Z "/>
</clipPath>
<g clip-path="url(#cp32)">
<path transform="matrix(1,0,0,-1,-81.193,309.496)" d="M 229.35272 103.68 L 245.06182 103.68 L 245.06182 121.2192 L 229.35272 121.2192 Z " fill="#8c7ab8"/>
</g>
<clipPath id="cp33">
<path transform="matrix(1,0,0,-1,-81.193,309.496)" d="M 138.24 103.68 L 414.72004 103.68 L 414.72004 304.128 L 138.24 304.128 Z "/>
</clipPath>
<g clip-path="url(#cp33)">
<path transform="matrix(1,0,0,-1,-81.193,309.496)" d="M 268.62547 140.76288 L 284.33454 140.76288 L 284.33454 177.84577 L 268.62547 177.84577 Z " fill="#8c7ab8"/>
</g>
<clipPath id="cp34">
<path transform="matrix(1,0,0,-1,-81.193,309.496)" d="M 138.24 103.68 L 414.72004 103.68 L 414.72004 304.128 L 138.24 304.128 Z "/>
</clipPath>
<g clip-path="url(#cp34)">
<path transform="matrix(1,0,0,-1,-81.193,309.496)" d="M 307.8982 136.2528 L 323.60728 136.2528 L 323.60728 144.27072 L 307.8982 144.27072 Z " fill="#8c7ab8"/>
</g>
<clipPath id="cp35">
<path transform="matrix(1,0,0,-1,-81.193,309.496)" d="M 138.24 103.68 L 414.72004 103.68 L 414.72004 304.128 L 138.24 304.128 Z "/>
</clipPath>
<g clip-path="url(#cp35)">
<path transform="matrix(1,0,0,-1,-81.193,309.496)" d="M 347.1709 103.68 L 362.88 103.68 L 347.1709 103.68 Z " fill="#8c7ab8"/>
</g>
<clipPath id="cp36">
<path transform="matrix(1,0,0,-1,-81.193,309.496)" d="M 138.24 103.68 L 414.72004 103.68 L 414.72004 304.128 L 138.24 304.128 Z "/>
</clipPath>
<g clip-path="url(#cp36)">
<path transform="matrix(1,0,0,-1,-81.193,309.496)" d="M 386.44364 103.68 L 402.15275 103.68 L 402.15275 128.23488 L 386.44364 128.23488 Z " fill="#8c7ab8"/>
</g>
<clipPath id="cp37">
<path transform="matrix(1,0,0,-1,-81.193,309.496)" d="M 138.24 103.68 L 414.72004 103.68 L 414.72004 304.128 L 138.24 304.128 Z "/>
</clipPath>
<g clip-path="url(#cp37)">
<path transform="matrix(1,0,0,-1,-81.193,309.496)" d="M 150.80727 103.68 L 166.51636 103.68 L 166.51636 140.76288 L 150.80727 140.76288 Z " fill="#8a51a5"/>
</g>
<clipPath id="cp38">
<path transform="matrix(1,0,0,-1,-81.193,309.496)" d="M 138.24 103.68 L 414.72004 103.68 L 414.72004 304.128 L 138.24 304.128 Z "/>
</clipPath>
<g clip-path="url(#cp38)">
<path transform="matrix(1,0,0,-1,-81.193,309.496)" d="M 190.08 103.68 L 205.7891 103.68 L 205.7891 129.73824 L 190.08 129.73824 Z " fill="#8a51a5"/>
</g>
<clipPath id="cp39">
<path transform="matrix(1,0,0,-1,-81.193,309.496)" d="M 138.24 103.68 L 414.72004 103.68 L 414.72004 304.128 L 138.24 304.128 Z "/>
</clipPath>
<g clip-path="url(#cp39)">
<path transform="matrix(1,0,0,-1,-81.193,309.496)" d="M 229.35272 121.2192 L 245.06182 121.2192 L 245.06182 163.8144 L 229.35272 163.8144 Z " fill="#8a51a5"/>
</g>
<clipPath id="cp40">
<path transform="matrix(1,0,0,-1,-81.193,309.496)" d="M 138.24 103.68 L 414.72004 103.68 L 414.72004 304.128 L 138.24 304.128 Z "/>
</clipPath>
<g clip-path="url(#cp40)">
<path transform="matrix(1,0,0,-1,-81.193,309.496)" d="M 268.62547 177.84577 L 284.33454 177.84577 L 284.33454 222.94657 L 268.62547 222.94657 Z " fill="#8a51a5"/>
</g>
<clipPath id="cp41">
<path transform="matrix(1,0,0,-1,-81.193,309.496)" d="M 138.24 103.68 L 414.72004 103.68 L 414.72004 304.128 L 138.24 304.128 Z "/>
</clipPath>
<g clip-path="url(#cp41)">
<path transform="matrix(1,0,0,-1,-81.193,309.496)" d="M 307.8982 144.27072 L 323.60728 144.27072 L 323.60728 186.86592 L 307.8982 186.86592 Z " fill="#8a51a5"/>
</g>
<clipPath id="cp42">
<path transform="matrix(1,0,0,-1,-81.193,309.496)" d="M 138.24 103.68 L 414.72004 103.68 L 414.72004 304.128 L 138.24 304.128 Z "/>
</clipPath>
<g clip-path="url(#cp42)">
<path transform="matrix(1,0,0,-1,-81.193,309.496)" d="M 347.1709 103.68 L 362.88 103.68 L 362.88 129.23712 L 347.1709 129.23712 Z " fill="#8a51a5"/>
</g>
<clipPath id="cp43">
<path transform="matrix(1,0,0,-1,-81.193,309.496)" d="M 138.24 103.68 L 414.72004 103.68 L 414.72004 304.128 L 138.24 304.128 Z "/>
</clipPath>
<g clip-path="url(#cp43)">
<path transform="matrix(1,0,0,-1,-81.193,309.496)" d="M 386.44364 128.23488 L 402.15275 128.23488 L 402.15275 166.32 L 386.44364 166.32 Z " fill="#8a51a5"/>
</g>
<path transform="matrix(1,0,0,-1,-81.193,309.496)" d="M 138.24 103.68 L 134.74 103.68 "/>
<path transform="matrix(1,0,0,-1,-81.193,309.496)" stroke-width=".8" stroke-linecap="butt" stroke-linejoin="round" fill="none" stroke="#000000" d="M 138.24 103.68 L 134.74 103.68 "/>
<text xml:space="preserve" transform="matrix(1 0 -0 1 34.140748 209.61289)" font-size="10" font-family="DejaVuSans"><tspan y="0" x="0 6.3600008 9.540001">0.0</tspan></text>
<path transform="matrix(1,0,0,-1,-81.193,309.496)" d="M 138.24 128.736 L 134.74 128.736 "/>
<path transform="matrix(1,0,0,-1,-81.193,309.496)" stroke-width=".8" stroke-linecap="butt" stroke-linejoin="round" fill="none" stroke="#000000" d="M 138.24 128.736 L 134.74 128.736 "/>
<text xml:space="preserve" transform="matrix(1 0 -0 1 34.140748 184.55689)" font-size="10" font-family="DejaVuSans"><tspan y="0" x="0 6.3600008 9.540001">0.5</tspan></text>
<path transform="matrix(1,0,0,-1,-81.193,309.496)" d="M 138.24 153.792 L 134.74 153.792 "/>
<path transform="matrix(1,0,0,-1,-81.193,309.496)" stroke-width=".8" stroke-linecap="butt" stroke-linejoin="round" fill="none" stroke="#000000" d="M 138.24 153.792 L 134.74 153.792 "/>
<text xml:space="preserve" transform="matrix(1 0 -0 1 34.140748 159.50087)" font-size="10" font-family="DejaVuSans"><tspan y="0" x="0 6.3600008 9.540001">1.0</tspan></text>
<path transform="matrix(1,0,0,-1,-81.193,309.496)" d="M 138.24 178.848 L 134.74 178.848 "/>
<path transform="matrix(1,0,0,-1,-81.193,309.496)" stroke-width=".8" stroke-linecap="butt" stroke-linejoin="round" fill="none" stroke="#000000" d="M 138.24 178.848 L 134.74 178.848 "/>
<text xml:space="preserve" transform="matrix(1 0 -0 1 34.140748 134.44487)" font-size="10" font-family="DejaVuSans"><tspan y="0" x="0 6.3600008 9.540001">1.5</tspan></text>
<path transform="matrix(1,0,0,-1,-81.193,309.496)" d="M 138.24 203.904 L 134.74 203.904 "/>
<path transform="matrix(1,0,0,-1,-81.193,309.496)" stroke-width=".8" stroke-linecap="butt" stroke-linejoin="round" fill="none" stroke="#000000" d="M 138.24 203.904 L 134.74 203.904 "/>
<text xml:space="preserve" transform="matrix(1 0 -0 1 34.140748 109.38887)" font-size="10" font-family="DejaVuSans"><tspan y="0" x="0 6.3600008 9.540001">2.0</tspan></text>
<path transform="matrix(1,0,0,-1,-81.193,309.496)" d="M 138.24 228.96 L 134.74 228.96 "/>
<path transform="matrix(1,0,0,-1,-81.193,309.496)" stroke-width=".8" stroke-linecap="butt" stroke-linejoin="round" fill="none" stroke="#000000" d="M 138.24 228.96 L 134.74 228.96 "/>
<text xml:space="preserve" transform="matrix(1 0 -0 1 34.140748 84.33287)" font-size="10" font-family="DejaVuSans"><tspan y="0" x="0 6.3600008 9.540001">2.5</tspan></text>
<path transform="matrix(1,0,0,-1,-81.193,309.496)" d="M 138.24 254.016 L 134.74 254.016 "/>
<path transform="matrix(1,0,0,-1,-81.193,309.496)" stroke-width=".8" stroke-linecap="butt" stroke-linejoin="round" fill="none" stroke="#000000" d="M 138.24 254.016 L 134.74 254.016 "/>
<text xml:space="preserve" transform="matrix(1 0 -0 1 34.140748 59.27687)" font-size="10" font-family="DejaVuSans"><tspan y="0" x="0 6.3600008 9.540001">3.0</tspan></text>
<path transform="matrix(1,0,0,-1,-81.193,309.496)" d="M 138.24 279.072 L 134.74 279.072 "/>
<path transform="matrix(1,0,0,-1,-81.193,309.496)" stroke-width=".8" stroke-linecap="butt" stroke-linejoin="round" fill="none" stroke="#000000" d="M 138.24 279.072 L 134.74 279.072 "/>
<text xml:space="preserve" transform="matrix(1 0 -0 1 34.140748 34.220888)" font-size="10" font-family="DejaVuSans"><tspan y="0" x="0 6.3600008 9.540001">3.5</tspan></text>
<path transform="matrix(1,0,0,-1,-81.193,309.496)" d="M 138.24 304.128 L 134.74 304.128 "/>
<path transform="matrix(1,0,0,-1,-81.193,309.496)" stroke-width=".8" stroke-linecap="butt" stroke-linejoin="round" fill="none" stroke="#000000" d="M 138.24 304.128 L 134.74 304.128 "/>
<text xml:space="preserve" transform="matrix(1 0 -0 1 34.140748 9.164886)" font-size="10" font-family="DejaVuSans"><tspan y="0" x="0 6.3600008 9.540001">4.0</tspan></text>
<text xml:space="preserve" transform="matrix(0 -1 1 0 28.062623 157.38106)" font-size="10" font-family="DejaVuSans"><tspan y="0" x="0 6.98 13.32 23.060002 29.400002 32.18 38.31 42.230005 45.010004 50.93 57.08 60.260004 66.01 72.37 75.55 81.9 87.4 93.520008 97.411258">Cumulative F1 Score</tspan></text>
<path transform="matrix(1,0,0,-1,-81.193,309.496)" stroke-width=".8" stroke-linecap="square" stroke-miterlimit="10" stroke-linejoin="miter" fill="none" stroke="#000000" d="M 138.24 103.68 L 138.24 304.128 "/>
<path transform="matrix(1,0,0,-1,-81.193,309.496)" stroke-width=".8" stroke-linecap="square" stroke-miterlimit="10" stroke-linejoin="miter" fill="none" stroke="#000000" d="M 414.72 103.68 L 414.72 304.128 "/>
<path transform="matrix(1,0,0,-1,-81.193,309.496)" stroke-width=".8" stroke-linecap="square" stroke-miterlimit="10" stroke-linejoin="miter" fill="none" stroke="#000000" d="M 138.24 103.68 L 414.72 103.68 "/>
<path transform="matrix(1,0,0,-1,-81.193,309.496)" stroke-width=".8" stroke-linecap="square" stroke-miterlimit="10" stroke-linejoin="miter" fill="none" stroke="#000000" d="M 138.24 304.128 L 414.72 304.128 "/>
<text xml:space="preserve" transform="matrix(1 0 -0 1 139.09168 -.6319885)" font-size="12" font-family="DejaVuSans"><tspan y="0" x="0 9.3 16.68 24.288 31.668 36.6 43.955999 47.292 51.108 58.692 65.796009 70.50001 75.43201 82.78801 89.38801 94.09201 97.42801 104.77201">General Extraction</tspan></text>
</g>
</g>
</g>
</g>
</g>
</g>
</svg>
