<?xml version="1.0" encoding="UTF-8" standalone="no"?>
<!DOCTYPE svg PUBLIC "-//W3C//DTD SVG 1.1//EN" "http://www.w3.org/Graphics/SVG/1.1/DTD/svg11.dtd">
<svg xmlns="http://www.w3.org/2000/svg" xmlns:xlink="http://www.w3.org/1999/xlink" version="1.1" width="374.613pt" height="280.679pt" viewBox="0 0 374.613 280.679">
<g enable-background="new">
<g>
<g>
<clipPath id="cp0">
<path transform="matrix(1,0,0,-1,-.939,280.679)" d="M 0 0 L 375.552 0 L 375.552 296.64 L 0 296.64 Z "/>
</clipPath>
<g clip-path="url(#cp0)">
<g>
<clipPath id="cp1">
<path transform="matrix(1,0,0,-1,-44.715,308.90299)" d="M 0 0 L 460.8 0 L 460.8 345.6 L 0 345.6 Z "/>
</clipPath>
<g clip-path="url(#cp1)">
<path transform="matrix(1,0,0,-1,-44.715,308.90299)" d="M 0 0 L 460.8 0 L 460.8 345.6 L 0 345.6 Z " fill="#ffffff"/>
<path transform="matrix(1,0,0,-1,-44.715,308.90299)" d="M 115.2 86.4 L 414.72 86.4 L 414.72 304.128 L 115.2 304.128 Z " fill="#ffffff"/>
<path transform="matrix(1,0,0,-1,-44.715,308.90299)" d="M 115.2 59.890909 L 175.104 59.890909 L 175.104 86.4 L 115.2 86.4 Z " fill="#ffffff"/>
<path transform="matrix(1,0,0,-1,-44.715,308.90299)" stroke-width="1" stroke-linecap="butt" stroke-miterlimit="10" stroke-linejoin="miter" fill="none" stroke="#000000" d="M 115.2 59.890909 L 175.104 59.890909 L 175.104 86.4 L 115.2 86.4 Z "/>
<text xml:space="preserve" transform="matrix(1 0 -0 1 75.335437 238.7966)" font-size="11" font-family="DejaVuSans"><tspan y="0" x="0 7.678 14.63 22.275002 31.768002 35.013 43.241">CERMINE</tspan></text>
<path transform="matrix(1,0,0,-1,-44.715,308.90299)" d="M 175.104 59.890909 L 235.008 59.890909 L 235.008 86.4 L 175.104 86.4 Z " fill="#ffffff"/>
<path transform="matrix(1,0,0,-1,-44.715,308.90299)" stroke-width="1" stroke-linecap="butt" stroke-miterlimit="10" stroke-linejoin="miter" fill="none" stroke="#000000" d="M 175.104 59.890909 L 235.008 59.890909 L 235.008 86.4 L 175.104 86.4 Z "/>
<text xml:space="preserve" transform="matrix(1 0 -0 1 142.05194 238.7966)" font-size="11" font-family="DejaVuSans"><tspan y="0" x="0 8.525001 12.8116259 19.543625 26.528626 29.586627">Grobid</tspan></text>
<path transform="matrix(1,0,0,-1,-44.715,308.90299)" d="M 235.008 59.890909 L 294.912 59.890909 L 294.912 86.4 L 235.008 86.4 Z " fill="#ffffff"/>
<path transform="matrix(1,0,0,-1,-44.715,308.90299)" stroke-width="1" stroke-linecap="butt" stroke-miterlimit="10" stroke-linejoin="miter" fill="none" stroke="#000000" d="M 235.008 59.890909 L 294.912 59.890909 L 294.912 86.4 L 235.008 86.4 Z "/>
<text xml:space="preserve" transform="matrix(1 0 -0 1 202.6747 238.7966)" font-size="11" font-family="DejaVuSans"><tspan y="0" x="0 6.6330006 13.618001 17.490002 24.826502 30.876503">PdfAct</tspan></text>
<path transform="matrix(1,0,0,-1,-44.715,308.90299)" d="M 294.912 59.890909 L 354.816 59.890909 L 354.816 86.4 L 294.912 86.4 Z " fill="#ffffff"/>
<path transform="matrix(1,0,0,-1,-44.715,308.90299)" stroke-width="1" stroke-linecap="butt" stroke-miterlimit="10" stroke-linejoin="miter" fill="none" stroke="#000000" d="M 294.912 59.890909 L 354.816 59.890909 L 354.816 86.4 L 294.912 86.4 Z "/>
<text xml:space="preserve" transform="matrix(1 0 -0 1 257.0787 232.64035)" font-size="11" font-family="DejaVuSans"><tspan y="0" x="0 6.9850008 13.035001 16.093 22.858002 29.832 35.882 42.647">Science </tspan></text>
<text xml:space="preserve" transform="matrix(1 0 -0 1 263.4459 244.95285)" font-size="11" font-family="DejaVuSans"><tspan y="0" x="0 3.4980002 9.6466259 16.389626 20.910626 26.641627"> Parse</tspan></text>
<path transform="matrix(1,0,0,-1,-44.715,308.90299)" d="M 354.816 59.890909 L 414.72 59.890909 L 414.72 86.4 L 354.816 86.4 Z " fill="#ffffff"/>
<path transform="matrix(1,0,0,-1,-44.715,308.90299)" stroke-width="1" stroke-linecap="butt" stroke-miterlimit="10" stroke-linejoin="miter" fill="none" stroke="#000000" d="M 354.816 59.890909 L 414.72 59.890909 L 414.72 86.4 L 354.816 86.4 Z "/>
<text xml:space="preserve" transform="matrix(1 0 -0 1 311.45927 238.7966)" font-size="11" font-family="DejaVuSans"><tspan y="0" x="0 7.1606256 13.925626 17.797627 24.749627 31.261628 35.573629 40.094629 46.837629 52.887628">RefExtract</tspan></text>
<path transform="matrix(1,0,0,-1,-44.715,308.90299)" d="M 48.75 33.381818 L 115.2 33.381818 L 115.2 59.890909 L 48.75 59.890909 Z " fill="#9ab4d6"/>
<path transform="matrix(1,0,0,-1,-44.715,308.90299)" stroke-width="1" stroke-linecap="butt" stroke-miterlimit="10" stroke-linejoin="miter" fill="none" stroke="#000000" d="M 48.75 33.381818 L 115.2 33.381818 L 115.2 59.890909 L 48.75 59.890909 Z "/>
<text xml:space="preserve" transform="matrix(1 0 -0 1 10.68 265.3057)" font-size="11" font-family="DejaVuSans"><tspan y="0" x="0 7.1606256 13.925626 17.797627 24.562626 28.84925 35.61425 42.58825 48.63825">Reference</tspan></text>
<path transform="matrix(1,0,0,-1,-44.715,308.90299)" d="M 115.2 33.381818 L 175.104 33.381818 L 175.104 59.890909 L 115.2 59.890909 Z " fill="#ffffff"/>
<path transform="matrix(1,0,0,-1,-44.715,308.90299)" stroke-width="1" stroke-linecap="butt" stroke-miterlimit="10" stroke-linejoin="miter" fill="none" stroke="#000000" d="M 115.2 33.381818 L 175.104 33.381818 L 175.104 59.890909 L 115.2 59.890909 Z "/>
<text xml:space="preserve" transform="matrix(1 0 -0 1 88.187 265.3057)" font-size="11" font-family="DejaVuSans"><tspan y="0" x="0 6.9960005 10.494 17.490002">0.74</tspan></text>
<path transform="matrix(1,0,0,-1,-44.715,308.90299)" d="M 175.104 33.381818 L 235.008 33.381818 L 235.008 59.890909 L 175.104 59.890909 Z " fill="#ffffff"/>
<path transform="matrix(1,0,0,-1,-44.715,308.90299)" stroke-width="1" stroke-linecap="butt" stroke-miterlimit="10" stroke-linejoin="miter" fill="none" stroke="#000000" d="M 175.104 33.381818 L 235.008 33.381818 L 235.008 59.890909 L 175.104 59.890909 Z "/>
<text xml:space="preserve" transform="matrix(1 0 -0 1 148.091 265.3057)" font-size="11" font-family="DejaVuSans"><tspan y="0" x="0 6.9960005 10.494 17.490002">0.79</tspan></text>
<path transform="matrix(1,0,0,-1,-44.715,308.90299)" d="M 235.008 33.381818 L 294.912 33.381818 L 294.912 59.890909 L 235.008 59.890909 Z " fill="#ffffff"/>
<path transform="matrix(1,0,0,-1,-44.715,308.90299)" stroke-width="1" stroke-linecap="butt" stroke-miterlimit="10" stroke-linejoin="miter" fill="none" stroke="#000000" d="M 235.008 33.381818 L 294.912 33.381818 L 294.912 59.890909 L 235.008 59.890909 Z "/>
<text xml:space="preserve" transform="matrix(1 0 -0 1 207.99501 265.3057)" font-size="11" font-family="DejaVuSans"><tspan y="0" x="0 6.9960005 10.494 17.490002">0.15</tspan></text>
<path transform="matrix(1,0,0,-1,-44.715,308.90299)" d="M 294.912 33.381818 L 354.816 33.381818 L 354.816 59.890909 L 294.912 59.890909 Z " fill="#ffffff"/>
<path transform="matrix(1,0,0,-1,-44.715,308.90299)" stroke-width="1" stroke-linecap="butt" stroke-miterlimit="10" stroke-linejoin="miter" fill="none" stroke="#000000" d="M 294.912 33.381818 L 354.816 33.381818 L 354.816 59.890909 L 294.912 59.890909 Z "/>
<text xml:space="preserve" transform="matrix(1 0 -0 1 267.89903 265.3057)" font-size="11" font-family="DejaVuSans"><tspan y="0" x="0 6.9960005 10.494 17.490002">0.49</tspan></text>
<path transform="matrix(1,0,0,-1,-44.715,308.90299)" d="M 354.816 33.381818 L 414.72 33.381818 L 414.72 59.890909 L 354.816 59.890909 Z " fill="#ffffff"/>
<path transform="matrix(1,0,0,-1,-44.715,308.90299)" stroke-width="1" stroke-linecap="butt" stroke-miterlimit="10" stroke-linejoin="miter" fill="none" stroke="#000000" d="M 354.816 33.381818 L 414.72 33.381818 L 414.72 59.890909 L 354.816 59.890909 Z "/>
<text xml:space="preserve" transform="matrix(1 0 -0 1 327.803 265.3057)" font-size="11" font-family="DejaVuSans"><tspan y="0" x="0 6.9960005 10.494 17.490002">0.49</tspan></text>
<clipPath id="cp2">
<path transform="matrix(1,0,0,-1,-44.715,308.90299)" d="M 115.2 86.4 L 414.71998 86.4 L 414.71998 304.128 L 115.2 304.128 Z "/>
</clipPath>
<g clip-path="url(#cp2)">
<path transform="matrix(1,0,0,-1,-44.715,308.90299)" d="M 128.81455 86.4 L 153.56827 86.4 L 153.56827 247.51873 L 128.81455 247.51873 Z " fill="#9ab4d6"/>
</g>
<clipPath id="cp3">
<path transform="matrix(1,0,0,-1,-44.715,308.90299)" d="M 115.2 86.4 L 414.71998 86.4 L 414.71998 304.128 L 115.2 304.128 Z "/>
</clipPath>
<g clip-path="url(#cp3)">
<path transform="matrix(1,0,0,-1,-44.715,308.90299)" d="M 190.69884 86.4 L 215.45256 86.4 L 215.45256 258.40513 L 190.69884 258.40513 Z " fill="#9ab4d6"/>
</g>
<clipPath id="cp4">
<path transform="matrix(1,0,0,-1,-44.715,308.90299)" d="M 115.2 86.4 L 414.71998 86.4 L 414.71998 304.128 L 115.2 304.128 Z "/>
</clipPath>
<g clip-path="url(#cp4)">
<path transform="matrix(1,0,0,-1,-44.715,308.90299)" d="M 252.58315 86.4 L 277.33686 86.4 L 277.33686 119.0592 L 252.58315 119.0592 Z " fill="#9ab4d6"/>
</g>
<clipPath id="cp5">
<path transform="matrix(1,0,0,-1,-44.715,308.90299)" d="M 115.2 86.4 L 414.71998 86.4 L 414.71998 304.128 L 115.2 304.128 Z "/>
</clipPath>
<g clip-path="url(#cp5)">
<path transform="matrix(1,0,0,-1,-44.715,308.90299)" d="M 314.46745 86.4 L 339.22117 86.4 L 339.22117 193.08672 L 314.46745 193.08672 Z " fill="#9ab4d6"/>
</g>
<clipPath id="cp6">
<path transform="matrix(1,0,0,-1,-44.715,308.90299)" d="M 115.2 86.4 L 414.71998 86.4 L 414.71998 304.128 L 115.2 304.128 Z "/>
</clipPath>
<g clip-path="url(#cp6)">
<path transform="matrix(1,0,0,-1,-44.715,308.90299)" d="M 376.35176 86.4 L 401.10548 86.4 L 401.10548 193.08672 L 376.35176 193.08672 Z " fill="#9ab4d6"/>
</g>
<path transform="matrix(1,0,0,-1,-44.715,308.90299)" d="M 115.2 86.4 L 111.7 86.4 "/>
<path transform="matrix(1,0,0,-1,-44.715,308.90299)" stroke-width=".8" stroke-linecap="butt" stroke-linejoin="round" fill="none" stroke="#000000" d="M 115.2 86.4 L 111.7 86.4 "/>
<text xml:space="preserve" transform="matrix(1 0 -0 1 47.578748 226.29987)" font-size="10" font-family="DejaVuSans"><tspan y="0" x="0 6.3600008 9.540001">0.0</tspan></text>
<path transform="matrix(1,0,0,-1,-44.715,308.90299)" d="M 115.2 129.9456 L 111.7 129.9456 "/>
<path transform="matrix(1,0,0,-1,-44.715,308.90299)" stroke-width=".8" stroke-linecap="butt" stroke-linejoin="round" fill="none" stroke="#000000" d="M 115.2 129.9456 L 111.7 129.9456 "/>
<text xml:space="preserve" transform="matrix(1 0 -0 1 47.578748 182.75426)" font-size="10" font-family="DejaVuSans"><tspan y="0" x="0 6.3600008 9.540001">0.2</tspan></text>
<path transform="matrix(1,0,0,-1,-44.715,308.90299)" d="M 115.2 173.4912 L 111.7 173.4912 "/>
<path transform="matrix(1,0,0,-1,-44.715,308.90299)" stroke-width=".8" stroke-linecap="butt" stroke-linejoin="round" fill="none" stroke="#000000" d="M 115.2 173.4912 L 111.7 173.4912 "/>
<text xml:space="preserve" transform="matrix(1 0 -0 1 47.578748 139.20867)" font-size="10" font-family="DejaVuSans"><tspan y="0" x="0 6.3600008 9.540001">0.4</tspan></text>
<path transform="matrix(1,0,0,-1,-44.715,308.90299)" d="M 115.2 217.0368 L 111.7 217.0368 "/>
<path transform="matrix(1,0,0,-1,-44.715,308.90299)" stroke-width=".8" stroke-linecap="butt" stroke-linejoin="round" fill="none" stroke="#000000" d="M 115.2 217.0368 L 111.7 217.0368 "/>
<text xml:space="preserve" transform="matrix(1 0 -0 1 47.578748 95.663059)" font-size="10" font-family="DejaVuSans"><tspan y="0" x="0 6.3600008 9.540001">0.6</tspan></text>
<path transform="matrix(1,0,0,-1,-44.715,308.90299)" d="M 115.2 260.5824 L 111.7 260.5824 "/>
<path transform="matrix(1,0,0,-1,-44.715,308.90299)" stroke-width=".8" stroke-linecap="butt" stroke-linejoin="round" fill="none" stroke="#000000" d="M 115.2 260.5824 L 111.7 260.5824 "/>
<text xml:space="preserve" transform="matrix(1 0 -0 1 47.578748 52.117464)" font-size="10" font-family="DejaVuSans"><tspan y="0" x="0 6.3600008 9.540001">0.8</tspan></text>
<path transform="matrix(1,0,0,-1,-44.715,308.90299)" d="M 115.2 304.128 L 111.7 304.128 "/>
<path transform="matrix(1,0,0,-1,-44.715,308.90299)" stroke-width=".8" stroke-linecap="butt" stroke-linejoin="round" fill="none" stroke="#000000" d="M 115.2 304.128 L 111.7 304.128 "/>
<text xml:space="preserve" transform="matrix(1 0 -0 1 47.578748 8.571869)" font-size="10" font-family="DejaVuSans"><tspan y="0" x="0 6.3600008 9.540001">1.0</tspan></text>
<text xml:space="preserve" transform="matrix(0 -1 1 0 41.297498 137.4593)" font-size="11" font-family="DejaVuSans"><tspan y="0" x="0 6.325001 13.321001 16.819 23.804 29.854 36.586 40.872625">F1 Score</tspan></text>
<path transform="matrix(1,0,0,-1,-44.715,308.90299)" stroke-width=".8" stroke-linecap="square" stroke-miterlimit="10" stroke-linejoin="miter" fill="none" stroke="#000000" d="M 115.2 86.4 L 115.2 304.128 "/>
<path transform="matrix(1,0,0,-1,-44.715,308.90299)" stroke-width=".8" stroke-linecap="square" stroke-miterlimit="10" stroke-linejoin="miter" fill="none" stroke="#000000" d="M 414.72 86.4 L 414.72 304.128 "/>
<path transform="matrix(1,0,0,-1,-44.715,308.90299)" stroke-width=".8" stroke-linecap="square" stroke-miterlimit="10" stroke-linejoin="miter" fill="none" stroke="#000000" d="M 115.2 86.4 L 414.72 86.4 "/>
<path transform="matrix(1,0,0,-1,-44.715,308.90299)" stroke-width=".8" stroke-linecap="square" stroke-miterlimit="10" stroke-linejoin="miter" fill="none" stroke="#000000" d="M 115.2 304.128 L 414.72 304.128 "/>
<text xml:space="preserve" transform="matrix(1 0 -0 1 157.44814 -1.2250061)" font-size="12" font-family="DejaVuSans"><tspan y="0" x="0 7.80875 15.18875 19.41275 26.792752 31.47475 38.85475 46.462755 53.06275 60.442754 64.25875 71.84275 78.94675 83.65075 88.58275 95.93875 102.53875 107.24275 110.57875 117.92275">Reference Extraction</tspan></text>
</g>
</g>
</g>
</g>
</g>
</g>
</svg>
