<?xml version="1.0" encoding="UTF-8" standalone="no"?>
<!DOCTYPE svg PUBLIC "-//W3C//DTD SVG 1.1//EN" "http://www.w3.org/Graphics/SVG/1.1/DTD/svg11.dtd">
<svg xmlns="http://www.w3.org/2000/svg" xmlns:xlink="http://www.w3.org/1999/xlink" version="1.1" width="251.128pt" height="402.397pt" viewBox="0 0 251.128 402.397">
<g enable-background="new">
<clipPath id="cp0">
<path transform="matrix(1,0,0,-1,-314.404,523.075)" d="M 0 0 L 612 0 L 612 792 L 0 792 Z "/>
</clipPath>
<g clip-path="url(#cp0)">
<text xml:space="preserve" transform="matrix(1 0 -0 1 -314.404 523.075)" font-size="6.9738" font-family="LinBiolinumT"><tspan y="-724.653" x="53.687 55.918619 60.63988 65.59128 70.92624 72.79522 76.03804 79.28086 82.55855 84.79016 88.535099 92.293979 97.19656 100.439388 103.682209 107.40621 110.64903 113.89185 117.16954 120.41236 123.65518 126.898 130.14083 133.41852 138.13979 141.62668 143.38408 146.87097 150.35089 154.10977 157.19918 160.47687 165.47708 168.63622 171.11191 176.73976 180.09416 183.85305 539.242 543.62857 547.3874 550.87429 554.6331">JCDL&#x2019;22,June20&#x2013;24,2022,Cologne,GermanyAnon.</tspan></text>
<text xml:space="preserve" transform="matrix(1 0 -0 1 -314.404 523.075)" font-size="8.9664" font-family="LinLibertineTB" font-weight="bold"><tspan y="-700.643" x="55.753999 61.160737 65.69774 70.557529 73.4716 80.09777 84.7065 89.24349 94.74886 100.11077 104.97056 107.884639 110.77182 114.8605 119.39749 122.60746 125.494647 130.43514 135.95844 142.0287 146.9692 154.7341 158.02477 163.54807 167.05393 171.99442 175.83203 183.94663 188.48363 191.6936 194.58078 199.52127 207.28618 212.74672 217.77687 220.98685 224.82447 229.36147 233.45015 236.66013 239.5473 244.4878 252.2527 255.75856 259.52449 264.46498 274.82118 280.32655 286.90788">Table1:PublicationsonInformationExtractionfromPDF</tspan></text>
<path transform="matrix(.95438,0,0,-.95438,-258.46629,-161.97333)" stroke-width=".737" stroke-linecap="butt" stroke-miterlimit="10" stroke-linejoin="miter" fill="none" stroke="#000000" d="M 0 0 L 247.259 0 "/>
<text xml:space="preserve" transform="matrix(.95438 0 -0 .95438 -311.9497 498.8136)" font-size="8.9664" font-family="LinLibertineTB" font-weight="bold"><tspan y="-681.753" x="58.032 63.537374 68.89928 73.75906 76.67314 79.560329 83.649 88.186008 91.39597 94.28316 99.22364">Publication</tspan></text>
<text xml:space="preserve" transform="matrix(.95438 0 -0 .95438 -311.9497 498.8136)" font-size="7.2727" font-family="LinLibertineT"><tspan y="-685.008" x="104.747">1</tspan></text>
<text xml:space="preserve" transform="matrix(.95438 0 -0 .95438 -311.9497 498.8136)" font-size="8.9664" font-family="LinLibertineTB" font-weight="bold"><tspan y="-681.753" x="115.878 122.51314 127.72262 132.9321 136.69799 141.63848 146.17548 150.26416 233.23923 238.906 242.74362 247.28063 250.1678 255.6911 258.57829 264.1016 271.0147 277.59605 282.13304 285.343 289.87998 293.70863 298.0932">ApproachTrainingDataset</tspan></text>
<path transform="matrix(.95438,0,0,-.95438,-258.46626,-147.00672)" stroke-width=".461" stroke-linecap="butt" stroke-miterlimit="10" stroke-linejoin="miter" fill="none" stroke="#000000" d="M 0 0 L 247.259 0 "/>
<text xml:space="preserve" transform="matrix(.95438 0 -0 .95438 -311.9497 498.8136)" font-size="8.9664" font-family="LinLibertineT"><tspan y="-666.28" x="58.032 62.882825 66.98047 69.347599 73.355579 76.69108 83.774539 90.5352 93.72724 97.89662 102.065998 115.87425 121.13753 125.89869 128.26583 132.2738 135.30445 139.72489 143.82253 147.31943 151.39017 246.55954 250.72891 254.89829 261.30928 265.84626 270.4281 274.26573 279.0269 286.11036 290.11836 294.97816 297.81153">Palermo[45]Rule-based100documents</tspan><tspan y="-655.32107" x="58.032 63.7436 66.110729 68.54062 73.400409 80.2328 83.42484 87.59422 91.763599 115.874248 121.13752 125.89868 128.26581 132.27379 135.30443 139.72487 143.82251 147.31941 151.39015 265.6221 269.79148 273.96086 280.37184 285.22267 289.3203 293.80354 297.81153">Klink[28]Rule-based979Pages</tspan><tspan y="-644.36209" x="58.032 64.17399 66.60388 71.36504 73.974269 76.58349 79.91899 82.348888 86.88588 93.22512 96.41716 100.58653 104.755908 115.874248 121.13752 125.89868 128.26581 132.27379 135.30443 139.72487 143.82251 147.31941 151.39015 240.41754 244.58692 246.55953 250.7289 254.89827 261.30928 265.84626 270.4281 274.26573 279.0269 286.11036 290.11836 294.97816 297.81153">Giuffrida[19]Rule-based1,000documents</tspan><tspan y="-633.4031" x="58.032 64.26365 66.69354 70.70152 73.06865 75.435779 82.19644 85.38848 89.55786 115.87425 121.13753 125.89869 128.26583 132.2738 135.30445 139.72489 143.82253 147.31943 151.39017 259.6774 263.84678 265.81938 269.98875 274.1581 280.5691 285.22267 289.3203 293.80354 297.81153">Aiello[2]Rule-based1,000pages</tspan><tspan y="-622.4441" x="58.032 65.55481 69.65245 76.41312 79.605159 83.774539 87.94391 115.87425 122.16866 127.96096 133.22425 137.43846 142.70174 147.46289 149.83002 153.838 156.86864 161.28908 165.38672 168.88362 172.95436 246.55954 250.72891 254.89829 261.30928 265.84626 270.4281 274.26573 279.0269 286.11036 290.11836 294.97816 297.81153">Mao[39]OCR,Rule-based309documents</tspan><tspan y="-611.4151" x="58.032 62.882825 66.89081 71.750598 78.475399 81.667438 85.83681 90.00618 115.874248 121.66654 126.92982 277.72676 283.51905 289.81346 295.07673">Peng[46]CRFCORA</tspan></text>
<text xml:space="preserve" transform="matrix(.95438 0 -0 .95438 -311.9497 498.8136)" font-size="7.2727" font-family="LinLibertineT"><tspan y="-614.6691" x="301.307">2</tspan></text>
<text xml:space="preserve" transform="matrix(.95438 0 -0 .95438 -311.9497 498.8136)" font-size="8.9664" font-family="LinLibertineT"><tspan y="-600.4561" x="58.032014 64.31746 68.4151 75.2744 78.46644 82.63582 86.80519 115.87427 120.66233 124.67031 131.75377 136.40734 138.77446 142.8721 145.70549 240.74036 244.90973 249.0791 253.24848 255.22109 259.39048 263.55986 269.97084 273.80845 276.23835 279.07173 283.16938 286.00276 288.43266 292.95173 297.81153">Day[15]Template160,000citations</tspan><tspan y="-589.49716" x="58.032014 64.577487 68.585468 71.418849 75.2206 80.08038 84.08836 89.66547 92.857509 97.026889 101.19626 115.87426 122.41973 129.94254 277.72676 283.51905 289.81346 295.07673">Hetzner[24]HMMCORA</tspan><tspan y="-578.53817" x="58.032014 63.824308 68.34337 73.10453 77.96432 81.80193 84.23183 86.59895 91.20768 94.39972 98.56909 102.738468 115.874248 121.66654 126.92982 277.72676 283.51905 289.81346 295.07673">Councill[13]CRFCORA</tspan><tspan y="-567.57919" x="58.032014 62.766275 67.28534 72.00167 76.00965 82.053 85.24504 89.41441 93.583789 115.87426 121.66656 126.92983 131.06334 135.27756 141.563 145.63375 149.64173 156.5369 161.27115 165.27913 169.37677 172.71227 177.57205 180.00196 184.86174 281.65403 287.92155 292.4406 297.3004">Lopez[38]CRF,DeepLearningNone</tspan><tspan y="-556.6202" x="58.032014 63.824308 68.585468 73.25696 76.449 80.61838 84.78775 115.87426 122.41973 129.94254 246.55954 250.72891 254.89829 261.30928 265.84626 270.4281 274.26573 279.0269 286.11036 290.11836 294.97816 297.81153">Cui[14]HMM400documents</tspan><tspan y="-545.59017" x="58.032014 64.32642 66.76528 71.28435 75.875148 80.39421 87.45973 90.65177 94.82115 98.990528 115.87426 122.41973 129.94254 193.33499 199.12729 205.4217 210.68498 216.91663 221.13085 225.47956 230.2138 236.1406 241.84323 244.87387 250.66617 253.09607">Ojokoh[43]HMMCORA,FLUX-CiM</tspan></text>
<text xml:space="preserve" transform="matrix(.95438 0 -0 .95438 -311.9497 498.8136)" font-size="7.2727" font-family="LinLibertineT"><tspan y="-548.84518" x="260.617">3</tspan></text>
<text xml:space="preserve" transform="matrix(.95438 0 -0 .95438 -311.9497 498.8136)" font-size="8.9664" font-family="LinLibertineT"><tspan y="-545.59017" x="260.617 264.8312 272.354 276.45167 281.31147 287.10377 290.36756 294.37556 298.4732">,ManCreat</tspan></text>
<text xml:space="preserve" transform="matrix(.95438 0 -0 .95438 -311.9497 498.8136)" font-size="7.2727" font-family="LinLibertineT"><tspan y="-548.84518" x="301.307">4</tspan></text>
<text xml:space="preserve" transform="matrix(.95438 0 -0 .95438 -311.9497 498.8136)" font-size="8.9664" font-family="LinLibertineT"><tspan y="-534.63119" x="58.032014 63.56428 67.572269 70.90777 78.009159 81.201198 85.370578 89.53995 115.87427 122.41974 129.94255 197.54921 202.54349 205.57413 210.42496 213.76045 216.19036 221.05014 223.88353 227.38043 231.59465 239.11746 243.12545 247.98523 252.52223 256.5302 258.89735 262.84257 266.93125 271.14546 275.99629 280.75746 285.1779 292.70069 296.77146">Kern[26]HMME-Prints,Mendeley,PubMed</tspan><tspan y="-523.6022" x="58.032014 63.304258 67.4019 70.898799 75.97378 79.16582 83.33519 115.87426 121.137538 125.8987 128.26583 132.2738 135.30445 139.72489 143.82253 147.31943 151.39017 243.54685 249.83229 255.10454 259.8388">Bast[5]Rule-basedDBLP</tspan></text>
<text xml:space="preserve" transform="matrix(.95438 0 -0 .95438 -311.9497 498.8136)" font-size="7.2727" font-family="LinLibertineT"><tspan y="-526.8572" x="264.68803">6</tspan></text>
<text xml:space="preserve" transform="matrix(.95438 0 -0 .95438 -311.9497 498.8136)" font-size="8.9664" font-family="LinLibertineT"><tspan y="-523.6022" x="264.68803 268.90223 273.75306 278.51423 282.93467 290.45747 294.52824">,PubMed</tspan></text>
<text xml:space="preserve" transform="matrix(.95438 0 -0 .95438 -311.9497 498.8136)" font-size="7.2727" font-family="LinLibertineT"><tspan y="-526.8572" x="301.307">5</tspan></text>
<text xml:space="preserve" transform="matrix(.95438 0 -0 .95438 -311.9497 498.8136)" font-size="8.9664" font-family="LinLibertineT"><tspan y="-512.6432" x="58.032014 62.38072 66.89978 71.66094 75.46269 81.80193 84.99397 89.163349 93.33272 115.87425 121.66655 126.929828 277.72676 283.51905 289.81346 295.07673">Souza[55]CRFCORA</tspan><tspan y="-501.6842" x="58.032014 63.304258 68.12818 72.22583 75.4896 80.026599 86.724498 90.82214 95.5026 98.69464 102.86401 115.87426 120.22296 126.01526 242.88333 247.0527 249.02532 253.19469 257.36408 263.77507 267.03886 271.04685 273.82643 277.8344 281.0982 285.1062 289.966 293.80363 297.8116">Bhardwaj[7]FCN5,090references</tspan><tspan y="-490.6542" x="58.032014 63.384954 67.975749 72.073398 75.91101 79.71277 84.33047 91.162868 94.354907 98.52428 102.69365 115.87426 120.22296 126.06905 133.59186 137.80608 143.59838 148.86165 152.99517 157.20938 162.47266 167.23381 169.60094 220.30594 226.09824 232.39266 237.65593 243.88758 248.10179 252.9526 260.4754 266.2677 270.4819 276.2742 278.7041 281.53749 285.54548 289.89418 293.96495 297.97294">Tkaczyk[57]SVM,CRF,RuleCORA,PMC,CiteSeer</tspan></text>
<text xml:space="preserve" transform="matrix(.95438 0 -0 .95438 -311.9497 498.8136)" font-size="7.2727" font-family="LinLibertineT"><tspan y="-493.9092" x="301.307">7</tspan></text>
<text xml:space="preserve" transform="matrix(.95438 0 -0 .95438 -311.9497 498.8136)" font-size="8.9664" font-family="LinLibertineT"><tspan y="-479.69523" x="58.032014 63.295289 67.87712 72.41412 75.749629 78.17952 82.66272 87.42388 91.43186 97.17036 100.3624 104.53177 108.70114 115.87426 121.1465 123.57639 128.31066 132.65937 138.0123 238.71395 242.88332 247.05269 249.0253 253.19467 257.36405 263.77503 267.03883 271.0468 273.8264 277.83439 281.09819 285.10618 289.96598 293.8036 297.81159">Rodrigues[51]BiLSTM40,000references</tspan><tspan y="-468.7362" x="58.032014 64.263668 69.12345 72.9252 77.02284 80.28661 84.86845 89.38751 94.462497 97.65453 101.82391 115.87427 121.666568 126.92984 272.92976 278.85655 286.37934 292.611 296.9597">Anzaroot[4]CRFUMASS</tspan><tspan y="-457.77723" x="58.032014 63.878107 66.308 68.675128 73.53491 75.964809 81.7033 84.89534 89.06471 93.234088 115.874248 121.66654 126.92982 272.92973 278.8565 286.3793 292.61097 296.95967">Vilnis[59]CRFUMASS</tspan><tspan y="-446.8192" x="58.032014 62.882837 66.21834 70.31598 73.812877 77.91052 84.689128 87.881168 92.05054 96.21991 115.87426 121.66656 126.92983 131.06334 135.27756 141.563 145.63375 149.64173 156.5369 161.27115 165.27913 169.37677 172.71227 177.57205 180.00196 184.86174 226.77967 231.12837 235.86263 241.78942 247.49205 250.52269 256.31498 258.74488 266.26768 270.48188 276.27418 278.70408 281.53746 285.54545 289.89414 293.9649 297.9729">Prasad[47]CRF,DeepLearningFLUX-CiM,CiteSeer</tspan><tspan y="-435.86024" x="58.032014 60.919195 65.01684 69.84076 74.359828 79.21961 83.70281 86.132709 91.70981 94.90185 99.07123 103.2406 115.87426 121.137538 125.8987 128.26583 132.2738 135.30445 139.72489 143.82253 147.31943 151.39017 236.2482 240.41757 244.58695 246.55956 250.72893 254.8983 261.3093 265.84629 270.42814 274.26576 279.02693 286.11039 290.11839 294.97819 297.81156">Jahongir[22]Rule-based10,000documents</tspan><tspan y="-424.90126" x="58.032014 62.82007 67.339138 70.67464 73.93841 80.18799 83.38003 87.54941 91.71878 115.87427 121.13754 125.898708 128.26584 132.27382 135.30446 139.7249 143.82254 147.31945 151.39019 246.55957 250.72895 254.89832 261.3093 265.84629 270.42814 274.26576 279.02693 286.11039 290.11839 294.97819 297.81156">Torre[16]Rule-based300documents</tspan><tspan y="-413.94227" x="58.032014 63.295289 65.72518 69.52693 73.98323 78.654727 81.84676 86.01614 90.18552 115.87425 121.13753 124.16817 129.96047 136.22798 238.71395 242.88332 247.05269 249.0253 253.19467 257.36405 263.77503 267.03883 271.0468 273.8264 277.83439 281.09819 285.10618 289.96598 293.8036 297.81159">Rizvi[49]R-CNN40,000references</tspan><tspan y="-402.98329" x="58.032014 64.577487 68.675128 72.17202 76.99594 84.0794 88.75089 91.94293 96.112308 100.28168 115.87425 121.13753 125.89869 128.26583 132.2738 135.30445 139.72489 143.82253 147.31943 151.39017 250.72893 254.8983 261.3093 265.84629 270.42814 274.26576 279.02693 286.11039 290.11839 294.97819 297.81156">Hashmi[23]Rule-based45documents</tspan><tspan y="-392.0243" x="58.032014 64.263668 69.087589 76.17104 80.24179 87.02039 90.21243 94.381809 115.87427 121.13754 125.898708 128.26584 132.27382 135.30446 139.7249 143.82254 147.31945 151.39019 246.55957 250.72895 254.89832 261.3093 265.84629 270.42814 274.26576 279.02693 286.11039 290.11839 294.97819 297.81156">Ahmed[1]Rule-based150documents</tspan><tspan y="-381.0653" x="58.032014 64.29953 66.72942 71.32022 75.83929 78.20641 82.30406 86.82313 92.56162 95.75366 99.923038 104.09241 115.87426 121.1465 123.57639 128.31066 132.65937 138.0123 145.53511 149.74933 155.98097 158.81436 161.64775 165.65573 170.51552 173.3489 175.77881 180.29788 240.4176 244.58698 246.55959 250.72896 254.89833 261.30934 265.8463 270.42817 274.26579 279.02696 286.1104 290.1184 294.9782 297.81159">Nikolaos[36]BiLSTM,Attention3,000documents</tspan></text>
<path transform="matrix(.95438,0,0,-.95438,-258.46626,140.09558)" stroke-width=".737" stroke-linecap="butt" stroke-miterlimit="10" stroke-linejoin="miter" fill="none" stroke="#000000" d="M 0 0 L 247.259 0 "/>
<text xml:space="preserve" transform="matrix(.95438 0 -0 .95438 -311.9497 498.8136)" font-size="7.2727" font-family="LinLibertineT"><tspan y="-367.792" x="63.213">1</tspan></text>
<text xml:space="preserve" transform="matrix(.95438 0 -0 .95438 -311.9497 498.8136)" font-size="8.9664" font-family="LinLibertineT"><tspan y="-364.537" x="69.489 74.22326 76.65315 80.15005 82.98343 87.05418 93.83277 96.262668 103.36405 107.20167 112.02559 115.28936 119.808429 124.66821 129.18729 131.55442 136.07349 140.55669 142.98659 146.8242 150.92185 155.53058 160.04965 163.31342 167.85042 171.8584 174.66487 178.87909 181.24622 185.34386 189.85396 193.86194 198.47068 202.54141 207.05152 211.81267 215.91031 218.27744 224.01595">Listedinchronologicalorder,labelequals1</tspan></text>
<text xml:space="preserve" transform="matrix(.95438 0 -0 .95438 -311.9497 498.8136)" font-size="7.2727" font-family="LinLibertineT"><tspan y="-367.792" x="228.185 231.02135">st</tspan></text>
<text xml:space="preserve" transform="matrix(.95438 0 -0 .95438 -311.9497 498.8136)" font-size="8.9664" font-family="LinLibertineT"><tspan y="-364.537" x="236.05899 240.15663 244.91779 247.75118 252.5751 257.09419">author</tspan></text>
<text xml:space="preserve" transform="matrix(.95438 0 -0 .95438 -311.9497 498.8136)" font-size="7.2727" font-family="LinLibertineT"><tspan y="-356.83299" x="63.212999">2</tspan></text>
<text xml:space="preserve" transform="matrix(.95438 0 -0 .95438 -311.9497 498.8136)" font-size="8.9664" font-family="LinLibertineT"><tspan y="-353.57798" x="69.489 74.84194 79.66586 85.91544 91.70774 98.00215 103.26543 111.73868 116.27568 120.37332 123.2067 127.30435 130.80126 134.80924 139.88423 143.07627 147.24564 151.41501 154.60704 158.96472 164.75702 169.2761 176.35955 181.0131 185.77426 188.60765 192.61563 198.19274 202.54145 206.37906 208.80896 212.81694 217.67673 221.51435">TheCORAdataset[41]:ComputerScience</tspan></text>
<text xml:space="preserve" transform="matrix(.95438 0 -0 .95438 -311.9497 498.8136)" font-size="7.2727" font-family="LinLibertineT"><tspan y="-345.87397" x="63.212999">3</tspan></text>
<text xml:space="preserve" transform="matrix(.95438 0 -0 .95438 -311.9497 498.8136)" font-size="8.9664" font-family="LinLibertineT"><tspan y="-342.61897" x="69.489 74.84194 79.66586 85.91544 90.264148 94.998409 100.92519 106.62782 109.65846 115.45076 117.88065 127.645069 132.18207 136.27971 139.1131 143.21074 146.70764 150.71562 155.79062 158.98265 163.15203 167.3214 171.53562 175.70499 179.87436 183.06639 187.42407 193.21637 197.73545 204.8189 209.47246 214.23361 217.067 221.07498 226.65209 231.0008 234.83841 237.26831 241.27629 246.13608 249.9737">TheFLUX-CiMdataset[11,12]:ComputerScience</tspan></text>
<text xml:space="preserve" transform="matrix(.95438 0 -0 .95438 -311.9497 498.8136)" font-size="7.2727" font-family="LinLibertineT"><tspan y="-334.91496" x="63.212999">4</tspan></text>
<text xml:space="preserve" transform="matrix(.95438 0 -0 .95438 -311.9497 498.8136)" font-size="8.9664" font-family="LinLibertineT"><tspan y="-331.65995" x="69.489 74.84194 79.66586 85.91544 93.438259 97.535907 102.39569 108.18799 111.45176 115.45974 119.55739 124.63237 129.16938 133.26702 136.1004 140.19805 143.69495 147.70293 152.77793 155.96996 160.13933 164.3087 167.50074 171.85842 177.65071 182.16977 189.25322 193.90679 198.66794 201.50133 205.50931 211.08641 215.43512 219.27274 221.70264 225.71062 230.5704 234.40802">TheManCreatdataset[61]:ComputerScience</tspan></text>
<text xml:space="preserve" transform="matrix(.95438 0 -0 .95438 -311.9497 498.8136)" font-size="7.2727" font-family="LinLibertineT"><tspan y="-323.95594" x="63.212999">5</tspan></text>
<text xml:space="preserve" transform="matrix(.95438 0 -0 .95438 -311.9497 498.8136)" font-size="8.9664" font-family="LinLibertineT"><tspan y="-320.70094" x="69.489 74.33982 79.10098 83.521419 91.04423 95.114978 101.89358 104.56557 109.38949 112.22287 115.05625 119.709819 123.20671 125.322788 128.21894 131.11508 135.76865 140.5298 144.95024 152.03369 156.10443 160.64144 162.61405 167.47383 171.31145 175.73189 178.16179 180.1344 184.99419 187.36132 194.44477 196.41738 201.27716 203.70706 208.53099 210.5036 214.9868 219.4431 223.8994 226.57138 230.92906 237.47454 241.48252 245.58016 247.94728 250.78067 257.8462 262.1949 266.0325 268.4624 272.4704 277.3302 281.16783">PubMed(https://pubmed.ncbi.nlm.nih.gov):HealthScience</tspan></text>
<text xml:space="preserve" transform="matrix(.95438 0 -0 .95438 -311.9497 498.8136)" font-size="7.2727" font-family="LinLibertineT"><tspan y="-312.99693" x="63.212999">6</tspan></text>
<text xml:space="preserve" transform="matrix(.95438 0 -0 .95438 -311.9497 498.8136)" font-size="8.9664" font-family="LinLibertineT"><tspan y="-309.74293" x="69.489 75.774448 81.04669 85.78095 92.873378 95.545368 100.369289 103.20267 106.03605 110.68961 112.80569 115.701839 118.597988 123.13498 127.55541 129.92255 134.48645 136.45906 141.22022 146.08 148.5099 152.04267 154.87606 158.21155 160.64145 164.64943 167.4559 169.42852 173.96552 177.9735 180.64548 185.00316 190.79546 195.31452 202.39797 207.05153 211.81269 214.64608 218.65406 224.23116 228.57987 232.41748 234.84738 238.85536 243.71515 247.55277">DBLP(http://dblp.uni-trier.de):ComputerScience</tspan></text>
<text xml:space="preserve" transform="matrix(.95438 0 -0 .95438 -311.9497 498.8136)" font-size="7.2727" font-family="LinLibertineT"><tspan y="-302.03794" x="63.212999">7</tspan></text>
<text xml:space="preserve" transform="matrix(.95438 0 -0 .95438 -311.9497 498.8136)" font-size="8.9664" font-family="LinLibertineT"><tspan y="-298.78395" x="69.489 75.281299 77.71119 80.54457 84.55255 88.90125 92.972 96.97998 102.55708 105.74912 109.9185 114.087879 117.279918 121.63759 127.86924 131.20475 134.03813 136.46804 138.97863 141.48921 145.32683 147.75673 151.85437 156.4631 159.12613 163.98592 166.8193 170.82729 173.19441 175.56154 177.99144 182.47464 186.48262 191.3424 195.18003">CiteSeer[44]:ArtificialIntelligence</tspan></text>
<text xml:space="preserve" transform="matrix(.98994949 0 -0 1.0101525 -314.404 523.075)" font-size="8.876284" font-family="LinLibertineT"><tspan y="-278.47978" x="54.34419 57.805944 62.377229 65.83898 68.64389 72.61158 79.62385 85.06501 89.44102 93.497478 96.95923 100.98905 107.45987 111.93352 118.72388 124.75088 129.24228 133.29874 136.10366 140.16011 143.62186 147.58956 152.37387 159.00447 161.40995 164.21486 170.96971 175.09719 179.22464 183.35211 190.98572 195.04218 198.34415 204.20249 206.60797 212.99002 217.04647 220.34844 223.15335 225.55883 229.35788 231.70122 237.64833 242.25513 246.31159 250.74973 254.71743 260.1586 263.95765 268.43128 273.24226 276.704 279.10948 282.57124 285.37614 287.7816 292.59254">systemsbasedonadatasetwith500KarXivarticlepagesconsisting</tspan></text>
<text xml:space="preserve" transform="matrix(1 0 -0 1 -314.404 523.075)" font-size="8.9664" font-family="LinLibertineT"><tspan y="-270.348" x="53.798 58.317068 63.33825 67.34623 69.713359 73.65857 78.04314 82.05112 89.152507 93.25015 98.10994 102.96973 107.48879 110.322177 114.419818 117.2532 121.323947 128.10256 131.59946 135.60744 142.69089 146.78853 151.64832 154.4817 156.9116 162.99083 166.82845 171.3475 178.43096 183.14728 187.66635 192.52614 196.53412 201.3939 204.2273 207.7242">ofelevenannotatedsemanticcomponents.</tspan></text>
<text xml:space="preserve" transform="matrix(1 0 -0 1 -314.404 523.075)" font-size="10.9091" font-family="LinLibertineTB" font-weight="bold"><tspan y="-248.88199" x="53.798 70.31438 78.12529 84.76893 91.06348 98.44894 105.56167 112.20531 122.93986 133.78351 141.74715 149.55806">2RELATEDWORK</tspan></text>
<text xml:space="preserve" transform="matrix(1.0004999 0 -0 .99950036 -314.404 523.075)" font-size="8.970882" font-family="LinLibertineT"><tspan y="-235.30159" x="53.50226 58.85788 63.68421 66.115329 71.8567 75.35535 79.42813 83.26766 86.10246 88.53358 93.0549 100.15984 103.658489 108.42203 115.509029 122.59602 126.69572 130.03289 132.46399 136.26766 140.27764 146.019 150.87224 157.16083 163.75443 166.18555 171.04776 173.82874 178.35007 181.68724 188.77425 192.87393 195.70874 198.13985 202.66118 209.76612 213.71332 218.10906 220.94385 224.28102 228.3807 232.22026 235.05506 237.48616 242.00749 249.10347 252.60211 257.2221 260.72077 263.55558 267.56556 274.65257 280.39393 284.49363 289.35585">ThissectionsummarizesPDFinformationextractionsystemsand</tspan></text>
<text xml:space="preserve" transform="matrix(.99398186 0 -0 1.0060545 -314.404 523.075)" font-size="8.912439" font-family="LinLibertineT"><tspan y="-222.87561" x="54.12373 56.94006 61.73495 65.71881 68.13408 73.713268 76.5296 79.845027 83.91801 86.333278 91.16382 93.57909 98.40963 105.12961 109.6393 113.71228 116.52862 120.6016 124.077449 128.06131 133.1414 135.55669 142.65099 147.5261 151.59908 155.9929 158.3458 164.59342 168.7377 172.9622 177.83731 181.9103 186.30413 188.65702 194.90464 201.31269 203.66558 206.08084 209.5567 212.37303 218.11266 222.7382 226.05364 228.4689 232.96079 238.53997 242.46144 246.89093 250.96392 253.3168 258.0493 262.12229 264.9386 267.35386 271.84574 276.6763 282.4159 286.48887 291.3194">theirtrainingdatasetinTable1.Table3listspriorevaluationsand</tspan></text>
<text xml:space="preserve" transform="matrix(1 0 -0 1 -314.404 523.075)" font-size="8.9664" font-family="LinLibertineT"><tspan y="-213.266" x="53.798 57.294897 60.128278 64.22592 67.0593 71.06728 74.09793 78.617 81.39658 84.42723 87.26061 92.08453 96.092517 99.12315 103.220798 106.5563 111.63128 116.168277 120.265918 123.0993 127.196949 130.69385 134.70183 137.53522 143.27373 145.70363 152.80503 157.71862 161.81626 166.2367 168.60382 174.85341 179.02278">state-of-the-artdatasetsinTable2.</tspan></text>
<text xml:space="preserve" transform="matrix(1 0 -0 1 -314.404 523.075)" font-size="10.9091" font-family="LinLibertineTB" font-weight="bold"><tspan y="-191.8" x="53.798 59.405279 62.067098 78.58348 84.081668 87.98712 92.65622 98.17622 102.08168 107.41623 113.09987 116.6126 121.94715 129.33261 133.59807 139.60898 147.00536 151.009 157.729 161.99446 168.00537 172.67447 182.54721 188.06722 191.97267 195.4854 201.4963 210.94359 217.58724 223.70725 227.6127 232.2818 237.8018 242.77635 246.68181 250.19454 256.20545">2.1StrategiesforInformationExtraction</tspan></text>
<text xml:space="preserve" transform="matrix(1.0059822 0 -0 .99405357 -314.404 523.075)" font-size="9.020038" font-family="LinLibertineT"><tspan y="-179.16641" x="53.050645 60.916116 67.18504 70.70285 75.49249 78.983249 83.394039 87.362857 91.93602 96.03111 102.83222 107.026538 113.46684 118.34668 124.66972 131.28142 133.72585 138.61472 141.41092 145.95702 149.31249 156.43831 160.56047 163.4108 165.85524 170.40134 177.52716 181.49597 185.91579 188.76613 192.12158 196.24375 200.10433 202.95465 205.3991 209.94519 217.07102 221.75243 225.87459 230.61914 234.6511 238.00655 243.77037 247.2882 250.13852 254.26068 257.61613 260.46647 262.91087 267.79075 274.54676 277.34294 280.62623 285.17234">Wesurveyed27PDFinformationextractionpapersstartingfrom</tspan></text>
<text xml:space="preserve" transform="matrix(.98994949 0 -0 1.0101525 -314.404 523.075)" font-size="8.876284" font-family="LinLibertineT"><tspan y="-165.46216" x="54.136098 58.263566 62.39104 66.51852 72.70529 76.76176 81.5727 88.13228 92.57042 95.79251 100.26616 104.97946 109.657268 113.687099 120.2378 123.04271 127.81815 131.78586 140.85742 145.23343 149.28989 152.75164 156.78148 163.34105 167.8147 174.68494 177.48986 182.26529 188.2923 191.75405 194.55896 197.86092 201.91738 204.72229 208.68999 213.12815 215.53362 219.50131 225.03125 229.0877 233.89865 240.44934 244.94075 248.99721 251.80211 255.85857 259.32035 263.28804 268.15223 270.55769 277.42796 282.28327 286.33973 290.71574 293.05909">1990andgroupedthembasedonthestrategiesanddatasetinTable</tspan></text>
<text xml:space="preserve" transform="matrix(1.0099505 0 -0 .99014756 -314.404 523.075)" font-size="9.05562" font-family="LinLibertineT"><tspan y="-157.7371" x="53.063985 57.274854 58.615087 66.520648 72.850528 77.758678 82.3227 85.18428 87.63835 91.51416 97.84405 100.70562 105.577548 109.715969 114.85956 117.72114 122.59306 128.92295 136.07689 140.2153 142.67844 147.24248 150.61116 153.06523 155.9268 162.87245 167.08332 171.29418 179.34462 182.04322 186.25408 190.46494 195.44553 200.00955 205.09882 207.96039 212.8323 219.16217 223.30059 226.66927 229.53084 231.98491 235.8607 238.25139 242.29926 248.11295 252.16082 259.31474 264.01463 266.40528 270.9059 277.85157 285.44926 289.58769">1.Wenoticethatthemajority67%(18)ofthearticlesemployMa-</tspan></text>
<text xml:space="preserve" transform="matrix(.99095919 0 -0 1.0091233 -314.404 523.075)" font-size="8.885336" font-family="LinLibertineT"><tspan y="-143.91106" x="54.28882 58.091745 62.87205 65.279979 70.09583 76.324459 81.01591 84.98765 89.04825 92.35359 97.16945 99.57737 104.39323 111.09277 115.47324 119.533847 122.99912 127.033069 133.78592 137.25119 140.05896 143.3643 147.4249 150.23267 154.2044 158.64707 161.055 165.02674 170.74889 177.38622 182.16654 184.57445 186.92018 193.1488 195.95656 200.73688 206.97437 210.19976 214.17151 217.63678 222.70142 227.17963 232.19985 235.0076 239.7879 246.01653 249.2508 253.21366 255.96811 259.93986 263.1741 267.14588 271.96174 275.76466 279.73643 285.4586 289.5192 292.75346">chineLearningbasedstrategieswhiletherestofthereferencesare</tspan></text>
<text xml:space="preserve" transform="matrix(.98994949 0 -0 1.0101525 -314.404 523.075)" font-size="8.876284" font-family="LinLibertineT"><tspan y="-132.91558" x="54.34419 58.720197 62.77666 66.23841 70.268238 77.00534 81.47899 88.53564 94.8378 100.04818 104.76148 107.10482 111.07252 114.0727 118.44871 122.505168 125.96692 130.00563 136.74274 140.7992 145.40598 150.01276 153.24372 157.71736 161.77382 165.57286 170.34832 174.54679 177.18305 182.23365 185.69539 190.47084 194.88236 201.51294 207.22039 213.52254 217.9607 221.19165 225.59429 232.22487 234.63034 239.44129 246.13402 250.7408 253.96288 257.93058 260.68223 264.64994 267.88093 271.84864 276.65959 280.45863 286.67204 289.4237 293.89735">basedonaRule-basedapproach.Itshowsagrowingpreferencefor</tspan><tspan y="-122.06673" x="54.34419 57.149095 61.924535 68.04917 75.496379 80.18305 83.183238 87.55924 91.6157 95.07745 99.11616 105.764499 109.82096 114.42776 119.034549 122.26552 126.73917 130.79563 134.59468 141.52706 145.93857 150.27907 154.24677 159.70568 164.91605 169.62935 171.9727 175.9404 178.94058 183.3166 187.37305 190.83481 194.86464 199.35604 203.47463 209.95432 214.36583 220.9254 224.8221 229.1626 233.1303 235.8997 240.00942 244.50081 248.55727 251.36217 255.41863 258.8804 262.84809 267.8188 272.5321 275.99388 280.0237 286.67204 289.4237 293.89735">theML-basedapproachoverRule-based.However,datasetusedfor</tspan></text>
<text xml:space="preserve" transform="matrix(.99146357 0 -0 1.0086099 -314.404 523.075)" font-size="8.889859" font-family="LinLibertineT"><tspan y="-111.38896" x="54.2612 58.17274 62.591 66.65366 69.00059 73.7211 77.78377 80.592967 83.00212 87.482608 94.56783 99.04832 104.07998 106.889179 111.67191 115.64568 119.112728 125.35341 128.82045 133.39873 136.86577 139.67498 143.64875 150.67174 156.4057 163.4287 167.9092 171.37624 176.45235 180.93285 185.96451 188.7737 193.55644 199.79712 202.60633 205.01548 212.03847 218.27915 222.08402 226.5645 233.5875 237.56127 243.30413 246.05998 249.29589 253.77639 263.06629 269.39588 272.86289 277.53898 281.5839 285.38874 287.79789 290.28706 292.7762">evaluationofthesesystemsmostofthetimecomesfromaspecific</tspan></text>
<text xml:space="preserve" transform="matrix(1.007472 0 -0 .99258336 -314.404 523.075)" font-size="9.033398" font-family="LinLibertineT"><tspan y="-102.14659" x="53.399007 57.969907 62.52274 69.65912 73.787387 76.23544 81.131549 86.876789 89.2616 91.709659 96.334758 102.5949 108.43048 112.983318 120.1197 124.80803 129.60477 132.45932 136.49726 142.08893 146.47013 150.33643 152.78447 156.8224 161.7185 165.58481 171.84496">domainslikeComputerScience[</tspan></text>
<text xml:space="preserve" transform="matrix(1 0 -0 1 -314.404 523.075)" font-size="8.9664" font-family="LinLibertineT"><tspan y="-101.389" x="176.367 180.53638">41</tspan></text>
<text xml:space="preserve" transform="matrix(1.007472 0 -0 .99258336 -314.404 523.075)" font-size="9.033398" font-family="LinLibertineT"><tspan y="-102.14659" x="183.33612 188.77422">][</tspan></text>
<text xml:space="preserve" transform="matrix(1 0 -0 1 -314.404 523.075)" font-size="8.9664" font-family="LinLibertineT"><tspan y="-101.389" x="193.426 197.59537">12</tspan></text>
<text xml:space="preserve" transform="matrix(1.007472 0 -0 .99258336 -314.404 523.075)" font-size="9.033398" font-family="LinLibertineT"><tspan y="-102.14659" x="200.2686 205.7067">][</tspan></text>
<text xml:space="preserve" transform="matrix(1 0 -0 1 -314.404 523.075)" font-size="8.9664" font-family="LinLibertineT"><tspan y="-101.389" x="210.485 214.65438">44</tspan></text>
<text xml:space="preserve" transform="matrix(1.007472 0 -0 .99258336 -314.404 523.075)" font-size="9.033398" font-family="LinLibertineT"><tspan y="-102.14659" x="217.20108 222.63918 227.19202 232.77465 239.36904 243.40697 247.53522 249.92005 252.7746 259.8658 264.247 268.1133 270.56135 274.5993 279.4954 283.36167">]orHealthScience</tspan></text>
<text xml:space="preserve" transform="matrix(1 0 -0 1 -314.404 523.075)" font-size="7.2727" font-family="LinLibertineT"><tspan y="-104.643" x="289.544">1</tspan></text>
<text xml:space="preserve" transform="matrix(1.007472 0 -0 .99258336 -314.404 523.075)" font-size="9.033398" font-family="LinLibertineT"><tspan y="-102.14659" x="291.24684">.</tspan></text>
<path transform="matrix(1,0,0,-1,-260.606,429.612)" stroke-width=".398" stroke-linecap="butt" stroke-miterlimit="10" stroke-linejoin="miter" fill="none" stroke="#000000" d="M 0 0 L 47.821 0 "/>
<text xml:space="preserve" transform="matrix(1 0 -0 1 -314.404 523.075)" font-size="5.4795" font-family="LinLibertineT"><tspan y="-87.293" x="53.672">1</tspan></text>
<text xml:space="preserve" transform="matrix(1 0 -0 1 -314.404 523.075)" font-size="6.9738" font-family="LinLibertineT"><tspan y="-84.653" x="56.718004 60.469907 62.673627 64.87735 68.49675 71.21653 72.86235 75.11489 77.36743 80.98683 84.68992 88.128009 93.63731 96.803409 100.332149 101.86638 105.64618 108.63097 112.069049 113.95895 115.49318 119.27298 121.11406 126.62336 128.1576 131.9374 133.82729 137.5792 139.11344 142.60033 146.06632 149.53229">https://pubmed.ncbi.nlm.nih.gov/</tspan></text>
<text xml:space="preserve" transform="matrix(.98994949 0 -0 1.0101525 -314.404 523.075)" font-size="8.876284" font-family="LinLibertineT"><tspan y="-691.3323" x="320.86589 326.92839 331.41978 335.9112 338.31666 341.12156 343.527 348.00065 352.8116 356.86808 359.2114 361.55476 365.59346 369.6943 376.245 382.36076 386.1598 390.63346 395.34675 397.6901 404.32954 409.1405 413.61415 416.41905 418.8245 422.62355 428.7393 431.5442 436.31965 440.3761 445.32905 452.3413 456.81498 460.27674 465.22969 469.7033 474.60304 477.40794 482.18336 488.29914 492.79054 496.847 499.65187 503.7083 507.17008 511.1378 513.9427 519.5525">Additionally,wecouldnoticethatmostofthedatasets[</tspan></text>
<text xml:space="preserve" transform="matrix(1 0 -0 1 -314.404 523.075)" font-size="8.9664" font-family="LinLibertineT"><tspan y="-698.351" x="517.461">1</tspan></text>
<text xml:space="preserve" transform="matrix(.98994949 0 -0 1.0101525 -314.404 523.075)" font-size="8.876284" font-family="LinLibertineT"><tspan y="-691.3323" x="526.9269 532.23489">][</tspan></text>
<text xml:space="preserve" transform="matrix(1 0 -0 1 -314.404 523.075)" font-size="8.9664" font-family="LinLibertineT"><tspan y="-698.351" x="530.013 534.1824">23</tspan></text>
<text xml:space="preserve" transform="matrix(.98994949 0 -0 1.0101525 -314.404 523.075)" font-size="8.876284" font-family="LinLibertineT"><tspan y="-691.3323" x="543.8176 549.1256">][</tspan></text>
<text xml:space="preserve" transform="matrix(1 0 -0 1 -314.404 523.075)" font-size="8.9664" font-family="LinLibertineT"><tspan y="-698.351" x="546.735 550.90438">16</tspan></text>
<text xml:space="preserve" transform="matrix(.98994949 0 -0 1.0101525 -314.404 523.075)" font-size="8.876284" font-family="LinLibertineT"><tspan y="-691.3323" x="560.7094">]</tspan></text>
<text xml:space="preserve" transform="matrix(1.0099505 0 -0 .99014756 -314.404 523.075)" font-size="9.05562" font-family="LinLibertineT"><tspan y="-694.23196" x="314.82237">[</tspan></text>
<text xml:space="preserve" transform="matrix(1 0 -0 1 -314.404 523.075)" font-size="8.9664" font-family="LinLibertineT"><tspan y="-687.392" x="321.211 325.38038">39</tspan></text>
<text xml:space="preserve" transform="matrix(1.0099505 0 -0 .99014756 -314.404 523.075)" font-size="9.05562" font-family="LinLibertineT"><tspan y="-694.23196" x="326.3031 332.29795 336.43635 339.7326 346.55149 348.94218 352.99003 356.5217 362.8244 365.68598 370.55793 374.69633 382.37547 386.58634 390.7972 397.77009 404.11808 408.74549 412.62129 417.42985 424.58378 428.63163 433.53977 436.40135 439.933 444.70533 450.999 453.38969 456.25126 461.12318 465.6872 470.49574 475.02357 482.65748 486.18916 490.75318 497.9071 504.72599 511.8799 515.9278 518.78939 523.6613 528.28878 532.8709 539.1736 541.5643 544.0184 548.65487">]arelessthan500Documents.Althoughsomemethodslike</tspan><tspan y="-683.1638" x="314.82237 321.17939 323.64253 328.20655 332.84303 337.40705 345.09529 349.14314 354.83006 358.96846 361.35914 366.1767">Ojokohetal.[</tspan></text>
<text xml:space="preserve" transform="matrix(1 0 -0 1 -314.404 523.075)" font-size="8.9664" font-family="LinLibertineT"><tspan y="-676.433" x="373.073 377.24238">43</tspan></text>
<text xml:space="preserve" transform="matrix(1.0099505 0 -0 .99014756 -314.404 523.075)" font-size="9.05562" font-family="LinLibertineT"><tspan y="-683.1638" x="377.65415 380.87797 385.6865 391.28288 395.33073 398.69944 406.42387 410.4717 416.15864 420.29707 422.6877 427.49626">],Kernetal.[</tspan></text>
<text xml:space="preserve" transform="matrix(1 0 -0 1 -314.404 523.075)" font-size="8.9664" font-family="LinLibertineT"><tspan y="-676.433" x="435.01 439.17939">26</tspan></text>
<text xml:space="preserve" transform="matrix(1.0099505 0 -0 .99014756 -314.404 523.075)" font-size="9.05562" font-family="LinLibertineT"><tspan y="-683.1638" x="438.98094 442.20475 447.01329 452.41947 457.05595 461.19438 465.07017 468.90974 473.5734 481.03523 485.08308 490.76094 494.89936 497.29005 502.1076">],Tkaczyketal.[</tspan></text>
<text xml:space="preserve" transform="matrix(1 0 -0 1 -314.404 523.075)" font-size="8.9664" font-family="LinLibertineT"><tspan y="-676.433" x="510.36 514.52938">57</tspan></text>
<text xml:space="preserve" transform="matrix(1.0099505 0 -0 .99014756 -314.404 523.075)" font-size="9.05562" font-family="LinLibertineT"><tspan y="-683.1638" x="513.5885 519.62857 524.5005 528.6389 533.0762 539.9403 543.98818 551.1421">]haveem-</tspan></text>
<text xml:space="preserve" transform="matrix(.9969955 0 -0 1.0030136 -314.404 523.075)" font-size="8.93946" font-family="LinLibertineT"><tspan y="-663.4745" x="318.91316 323.55274 325.91276 330.35566 334.888 338.9465 345.71366 352.77586 357.5227 359.88273 362.70759 365.1302 369.76979 372.1298 378.36955 382.8929 386.97825 389.8031 393.88844 397.37483 401.3708 404.19566 409.92585 412.69709 417.20256 422.77186 425.5967 428.92219 433.0075 435.4301 440.2753 442.69789 447.54307 454.2566 458.34193 463.18714 469.95429 473.88768 478.33058 482.41593 484.77595 489.5228 493.60813 496.433 498.8556 503.36109 510.45008 514.95559 519.9705 522.7954 527.60488 533.8446 537.331 541.9348 545.42117 548.24606 552.242 559.3042">ployedmultipledatasetsfortrainingandevaluationofthesystem.</tspan></text>
<text xml:space="preserve" transform="matrix(.9929754 0 -0 1.0070744 -314.404 523.075)" font-size="8.903414" font-family="LinLibertineT"><tspan y="-649.9182" x="319.88807 328.32853 330.67903 333.09184 335.9053 339.88514 343.1972 347.26609 350.07954 354.80726 358.0481 364.27159 367.7439 372.47163 375.91725 380.271 384.1885 391.02635 395.70954 399.68937 403.00144 405.76148 410.2488 413.5609 420.5946 424.63676 431.39445 435.78385 442.61277 450.0827 454.15159 460.89149 464.8713 469.93736 474.00624 476.35673 480.5591">AliteraturesurveyperformedbyMaoetal.[</tspan></text>
<text xml:space="preserve" transform="matrix(1 0 -0 1 -314.404 523.075)" font-size="8.9664" font-family="LinLibertineT"><tspan y="-654.516" x="480.334 484.5034">40</tspan></text>
<text xml:space="preserve" transform="matrix(.9929754 0 -0 1.0070744 -314.404 523.075)" font-size="8.903414" font-family="LinLibertineT"><tspan y="-649.9182" x="492.13 497.5522 501.0245 505.81455 510.23954 516.8904 522.6064 525.41989 530.2099 534.27877 539.3448 546.37857 550.4474 552.86917 557.35647 560.6685">]showsthatmajor-</tspan></text>
<text xml:space="preserve" transform="matrix(1.0099505 0 -0 .99014756 -314.404 523.075)" font-size="9.05562" font-family="LinLibertineT"><tspan y="-649.96078" x="314.82237 317.2764 320.13798 327.14704 331.71107 336.85466 339.71623 344.58815 350.9814 353.843 357.82743 362.2647 367.47169 371.45616 375.8934 378.75498 382.12367 386.2621 390.13789 392.99946 395.45353 400.01756 407.26203 411.40046 413.7911 418.31895 422.88298 426.25166 428.70573 431.5673 436.4392 443.59318 449.47029 454.0524 460.96186 465.86997 470.434 475.6319 479.1636 483.92689 488.03813 491.9139 494.36799 497.17524 504.1843 508.7121 512.00839 516.5724 521.3809 526.28909 530.8712 533.932 536.7936 540.1623 544.9708 547.8324">ityofthetextextractionalgorithmsdonotspecifyground-truth</tspan></text>
<text xml:space="preserve" transform="matrix(.9929754 0 -0 1.0070744 -314.404 523.075)" font-size="8.903414" font-family="LinLibertineT"><tspan y="-628.15426" x="320.20429 323.6766 328.3598 332.40196 336.21266 338.62547 341.1184 343.6114 347.42207 351.4909 354.30439 356.7172 361.20454 366.03019 371.76399 375.83283 380.65849 387.42509 392.10829 396.0881 399.40019 402.16023 406.64756 409.95967 416.99336 421.0622 425.88786 429.69853 435.93983 442.9735 446.95335 449.76679 453.0789 455.4917 459.30238 465.03617 467.84965 472.63966 476.55717 483.40388 488.1939 492.26277 496.61653 502.85783 507.5855 511.05784 515.1 519.6051 523.8254 526.46969 531.5535 538.5872 542.65609 547.21469 551.19448 556.9283 559.3411">specificationsandperformancemetricstheyhaveused.Itmakesit</tspan></text>
<text xml:space="preserve" transform="matrix(1.0099505 0 -0 .99014756 -314.404 523.075)" font-size="9.05562" font-family="LinLibertineT"><tspan y="-627.8246" x="314.82237 319.69429 323.8327 327.12898 331.71113 335.75898 341.48216 344.34373 351.25315 355.2376 359.73826 363.87669 366.26737 371.0759 375.2143 378.07588 384.46916 390.96205 395.6619 399.80033 403.169 406.03059 408.48466 412.36045 417.169 419.55967 423.6981 429.4122 431.86625 436.77439 439.58164 444.14567 447.51435 454.6683 458.8067 461.66828 464.12236 468.68638 475.9399 479.92439 484.36164 487.2232 490.5919 494.73033 498.6061 501.46769 503.92176 508.48579 515.74838 519.8868 522.2775 526.8053 531.3693 534.73806 537.19216 540.0538 544.92568 552.0796">hardertoevaluateaparticularinformationextractionalgorithm.</tspan></text>
<text xml:space="preserve" transform="matrix(1.0034939 0 -0 .9965183 -314.404 523.075)" font-size="8.997727" font-family="LinLibertineT"><tspan y="-612.81369" x="316.57994 321.95158 326.79237 330.81434 334.0895 338.1115 340.9008 345.43565 348.71083 352.64283 356.85377 360.81278 365.28465 369.3966 371.772 376.5498 380.66178 383.50508 385.94346 390.8202 397.5505 403.89393 407.403 412.03684 415.54597 418.38923 422.41123 431.75083 436.28569 443.38487 449.72828 453.00346 457.02546 461.13743 463.51283 465.9512 469.4603 472.3036 474.74195 480.8244 485.37727 489.48924 492.33253 496.4445 499.95359 503.9756 509.0503 511.8936 516.7343 520.8463 525.9211 533.0293 537.14126 544.00656 548.8833 553.4182">Therefore,evaluatingasystemonarealisticdatasetthatmaynot</tspan></text>
<text xml:space="preserve" transform="matrix(1.0099505 0 -0 .99014756 -314.404 523.075)" font-size="9.05562" font-family="LinLibertineT"><tspan y="-605.68856" x="314.82237 319.37733 325.67097 328.4782 331.77449 336.3385 345.73823 348.5998 353.47175 359.76539 363.29707 367.4355 374.58943 380.88307 385.4652 390.02925 397.18318 401.3216 403.77568 410.92958 415.068 420.84547 423.69798 428.5699 434.86354 442.0175 446.6449 451.22706 455.2749 459.91136 462.36543 468.14289 471.00447 474.37318 478.51158 480.96565 485.87379 489.98503 496.81297 501.37699 508.5309 512.6694 517.5775 524.40548 529.27737 533.8414 536.2321 540.8143 543.2683 548.17648">befromthesamedomainasthemodelistrainedonandholding</tspan><tspan y="-594.6205" x="314.82237 318.35404 322.91807 330.072 336.33848 341.2466 345.81065 348.26469 351.7964 358.07194 361.94773 366.51176 371.32029 373.71095 380.51173 385.0667 391.3332 398.48713 403.05116 406.3474 412.6139 415.06797 419.97608 423.50779 425.96186 430.48966 435.3616 438.22319 441.0304 445.83897 448.2296 452.44953 457.8557 462.72767 466.7755 470.07179 474.11964 476.92689 481.4909 484.78718 488.74449 492.9644 495.41847 502.5452 505.40678 510.27867 512.7328 518.4831 525.1752 529.7392 533.1079 537.7444 541.96438 548.65646">somenoisecouldbemoreinsightful.Therefore,inthiswork,we</tspan></text>
<text xml:space="preserve" transform="matrix(1.0049876 0 -0 .99503728 -314.404 523.075)" font-size="9.01112" font-family="LinLibertineT"><tspan y="-580.68478" x="316.377 320.405 327.52378 332.20057 334.5795 339.05805 345.91554 352.2503 355.76466 358.61219 362.73023 365.57777 369.60575 372.6515 377.1931 379.98655 383.0323 385.87983 390.7278 394.75578 397.80155 401.91963 405.27177 410.336 414.89564 419.0137 421.8612 425.97929 429.49363 433.5216 438.58586 442.44264 445.7227 449.75065 453.8687 456.71626 460.80729 467.58366 472.12528 479.226 483.3441 486.69624 492.64356 495.08558 501.78083 506.4576 509.73765 513.7656 518.4423 521.79446 524.2365 529.12057 531.968 537.6991 540.49258 543.7725 548.31417">employastate-of-the-artdatasetcreatedonarXivpreprintsfrom</tspan></text>
<text xml:space="preserve" transform="matrix(1.0044899 0 -0 .9955301 -314.404 523.075)" font-size="9.006659" font-family="LinLibertineT"><tspan y="-569.38919" x="316.5338 320.72193 324.91 329.0981 333.28623 336.33049 340.5186 344.7067 348.8948 355.32557 357.76637 364.8906 369.87129 374.71687 379.35527 382.8679 385.30867 389.1635 392.67616 396.90025 404.45683 408.57289 411.41899 416.26457 420.29057 427.40583 431.52186 434.36799 436.80879 440.6636 444.17625 448.40034 454.21864 458.75798 465.87327 470.5477 475.33024 478.17637 482.20234 487.80448 492.1727 496.02757 498.46836 502.49436 507.37599 511.23078 515.16677 519.39089 523.5069 528.3885 535.18856 542.3038 546.41989 551.30148">2014-2018inPhysics,Mathematics,ComputerScience,andmany</tspan></text>
<text xml:space="preserve" transform="matrix(1 0 -0 1 -314.404 523.075)" font-size="8.9664" font-family="LinLibertineT"><tspan y="-555.885" x="317.955 322.47407 325.30744 330.13136 334.13935 339.71647 343.81413 347.0779 351.0859 355.18357 358.68046">otherareas.</tspan></text>
<text xml:space="preserve" transform="matrix(1 0 -0 1 -314.404 523.075)" font-size="10.9091" font-family="LinLibertineTB" font-weight="bold"><tspan y="-534.806" x="317.955 323.56227 326.2241 342.74046 349.875 355.20957 361.92958 366.9041 373.65687 383.5296 389.04963 393.71873 403.13328 408.6533 415.3733 424.22056 432.22785 437.74787 441.65333 447.17335 451.8315 457.16609 463.7988 469.297 475.82066 485.6934 495.56614 501.08616 505.91889">2.2BenchmarkandDatasetSummary</tspan></text>
<text xml:space="preserve" transform="matrix(1 0 -0 1 -314.404 523.075)" font-size="8.9664" font-family="LinLibertineTB" font-weight="bold"><tspan y="-511.71504" x="374.47999 379.88673 384.4237 389.2835 392.1976 398.8238 403.43254 407.96955 414.53297 418.29887 423.23936 428.60127 434.12458 441.39634 447.0631 450.90074 456.26264 459.4726 467.2644 473.84574 478.38273 481.59269 486.12968 489.9583 494.3429 497.55287">Table2:GroundTruthDatasets</tspan></text>
<path transform="matrix(1.028,0,0,-1.028,5.855771,26.981118)" stroke-width=".737" stroke-linecap="butt" stroke-miterlimit="10" stroke-linejoin="miter" fill="none" stroke="#000000" d="M 0 0 L 229.228 0 "/>
<text xml:space="preserve" transform="matrix(1.028 0 -0 1.028 -323.30674 534.8717)" font-size="8.9664" font-family="LinLibertineTB" font-weight="bold"><tspan y="-483.437" x="322.189 327.69438 333.05628 337.91609 340.83018 343.71736 347.80604 352.34303 355.55299 358.44017 363.38066">Publication</tspan></text>
<text xml:space="preserve" transform="matrix(1.028 0 -0 1.028 -323.30674 534.8717)" font-size="7.2727" font-family="LinLibertineT"><tspan y="-486.691" x="368.904">8</tspan></text>
<text xml:space="preserve" transform="matrix(1.028 0 -0 1.028 -323.30674 534.8717)" font-size="8.9664" font-family="LinLibertineTB" font-weight="bold"><tspan y="-483.437" x="379.013 383.53208 386.41926 390.47209 462.34675 468.91017 472.67607 477.61656 482.97846 488.50178 495.77354 501.4403 505.27793 510.63984 513.8498 521.6416 526.8152 531.3522 536.30166 540.6862 543.6003">SizeGroundTruthLabels</tspan></text>
<path transform="matrix(1.028,0,0,-1.028,5.855774,43.10324)" stroke-width=".461" stroke-linecap="butt" stroke-miterlimit="10" stroke-linejoin="miter" fill="none" stroke="#000000" d="M 0 0 L 229.228 0 "/>
<text xml:space="preserve" transform="matrix(1.028 0 -0 1.028 -323.30674 534.8717)" font-size="8.9664" font-family="LinLibertineT"><tspan y="-467.964" x="322.189 327.54194 329.97184 334.0695 338.9293 341.76268 344.19258 348.29023 355.39164 358.58369 362.75306 366.92243 379.00917 383.86897 386.7651 513.40658 520.9294 524.9374 527.77078 531.8684 536.4054 540.50308 543.3364">Tiantian[17]n/aMetadata</tspan><tspan y="-457.005" x="322.189 326.5377 330.63536 333.97087 338.48097 342.48896 348.06608 351.25813 355.4275 359.59687 379.00914 383.1785 387.34788 395.3011 401.58656 406.1684 410.006 507.90116 513.1644 517.1724 519.952 523.96 527.2238 531.2318 536.0916 539.92929 543.93728">F&#x00e4;rber[18]90KDocsReferences</tspan><tspan y="-446.04603" x="322.189 326.5377 330.63536 333.06526 337.07325 342.65037 345.8424 350.01179 354.18116 358.39537 362.56474 366.7341 379.00914 383.1785 392.9429 399.22837 403.8102 407.64784 507.90113 513.1644 517.1724 519.952 523.96 527.2238 531.2318 536.0916 539.92929 543.93728">Saier[53,54]1MDocsReferences</tspan><tspan y="-435.08705" x="322.189 328.331 331.5948 335.60279 340.4626 345.3224 349.42005 356.52146 359.7135 363.88288 368.05226 379.0092 383.17857 390.6924 395.9557 399.96369 402.74327 507.90119 513.1645 517.1725 519.9521 523.9601 527.2239 531.2319 536.0917 539.9293 543.9373">Grennan[21]1BRefsReferences</tspan><tspan y="-424.12806" x="322.189 327.4164 332.03413 334.40126 340.65086 343.8429 348.01228 352.18165 379.00914 383.1785 385.1511 389.32048 399.08488 405.37034 409.95219 413.7898 457.8955 465.4183 469.4263 472.25968 476.35734 480.89433 484.99198 487.82536 494.1646 498.26228 503.12208 509.90068 513.1644 517.1724 519.952 523.96 527.2238 531.2318 536.0916 539.92929 543.93728">Kyle[37]8.1MDocsMetadataandreferences</tspan><tspan y="-402.09806" x="322.189 326.92326 331.59477 334.7868 338.95619 343.12556 379.0091 383.17848 387.34785 391.5172 399.47044 404.32127 408.4189 412.9021 416.9101">Li[34]500KPages</tspan><tspan y="-413.16908" x="424.396 431.9188 435.9268 438.76017 442.85783 447.3948 451.49247 454.32585 458.4235 462.6377 465.9015 469.9095 472.68907 476.69706 479.96086 483.96885 488.82865 492.66627 496.67427 500.17115 504.38536 509.0389 513.13656 516.47207 520.5697 525.0529 528.3884 532.4861 537.13967 541.96359 545.46047">Metadata,references,paragraphs,</tspan><tspan y="-402.21009" x="450.865 454.93577 459.44587 464.20704 468.3047 471.13807 473.56797 478.08705 482.94685 486.44374 490.65794 493.16853 495.6791 500.1623 504.92347 508.18727 512.19528 515.69216 519.9063 522.6859 527.2677 531.78677 534.6201 538.6281 541.9636 545.4605">equations,figures,footers,</tspan><tspan y="-391.2511" x="438.66999 442.16688 446.23765 450.07527 452.90864 455.33854 459.8576 464.7174 468.2143 472.4285 475.26188 479.35954 483.77998 486.1471 490.1551 493.65199 497.86619 500.2333 502.6632 506.1601 508.99348 512.49038 516.7045 520.5422 524.63986 529.2934 532.1268 534.55667 539.0757 543.9355">sections,tables,lists,captions</tspan><tspan y="-380.2921" x="322.18898 326.92323 330.86845 337.72776 340.9198 345.08918 349.25856 379.00907 383.86888 386.765 507.9011 513.16439 517.17239 519.95199 523.95999 527.22378 531.23178 536.09158 539.9292 543.9372">Ley[33]n/aReferences</tspan><tspan y="-369.33314" x="322.18898 329.71177 333.54939 337.387 341.48466 343.85179 346.2189 350.98008 360.30516 363.4972 367.66658 371.83595 379.00907 383.17845 387.3478 393.7588 400.04426 404.6261 408.4637 457.89549 465.41828 469.42628 472.25965 476.3573 480.8943 484.99195 487.82533 494.16459 498.26225 503.12205 509.90065 513.1644 517.1724 519.952 523.96 527.2238 531.2318 536.0916 539.92929 543.93728">Mccallum[41]935DocsMetadataandreferences</tspan><tspan y="-358.37513" x="322.18898 328.48338 331.74717 336.26625 339.60176 344.0222 346.4521 352.79136 355.9834 360.15278 364.32215 379.00914 383.1785 392.9429 399.22837 403.8102 407.64784 457.89555 465.41835 469.42634 472.2597 476.35737 480.89436 484.992 487.82539 494.16465 498.2623 503.1221 509.9007 513.1645 517.1725 519.9521 523.9601 527.2239 531.2319 536.0917 539.9293 543.9373">Ororbia[44]6MDocsMetadataandreferences</tspan></text>
<path transform="matrix(1.028,0,0,-1.028,5.855774,171.8088)" stroke-width=".737" stroke-linecap="butt" stroke-miterlimit="10" stroke-linejoin="miter" fill="none" stroke="#000000" d="M 0 0 L 229.228 0 "/>
<text xml:space="preserve" transform="matrix(1.028 0 -0 1.028 -323.30674 534.8717)" font-size="7.2727" font-family="LinLibertineT"><tspan y="-345.101" x="327.37">8</tspan></text>
<text xml:space="preserve" transform="matrix(1.028 0 -0 1.028 -323.30674 534.8717)" font-size="8.9664" font-family="LinLibertineT"><tspan y="-341.846" x="333.646 336.01313 340.11079 344.62089 348.62889 353.2376 357.30839 361.81849 366.57966 370.6773 373.04444 378.78294">labelequals1</tspan></text>
<text xml:space="preserve" transform="matrix(1.028 0 -0 1.028 -323.30674 534.8717)" font-size="7.2727" font-family="LinLibertineT"><tspan y="-345.101" x="382.952 385.78837">st</tspan></text>
<text xml:space="preserve" transform="matrix(1.028 0 -0 1.028 -323.30674 534.8717)" font-size="8.9664" font-family="LinLibertineT"><tspan y="-341.846" x="390.827 394.92466 399.68583 402.5192 407.3431 411.86219">author</tspan></text>
<text xml:space="preserve" transform="matrix(1 0 -0 1 -314.404 523.075)" font-size="8.9664" font-family="LinLibertineTB" font-weight="bold"><tspan y="-308.503" x="376.556 381.96275 386.49974 391.35954 394.27363 400.8998 405.50856 410.04557 415.90959 420.29417 425.81748 429.90617 435.45637 443.57096 448.10795 451.94557 459.68357 464.20265 469.56455 477.67915 485.79374 490.33073 494.30284">Table3:BenchmarkSummary</tspan></text>
<path transform="matrix(.9525,0,0,-.9525,5.6864998,230.16594)" stroke-width=".737" stroke-linecap="butt" stroke-miterlimit="10" stroke-linejoin="miter" fill="none" stroke="#000000" d="M 0 0 L 247.752 0 "/>
<text xml:space="preserve" transform="matrix(.9525 0 -0 .9525 -299.30113 511.9621)" font-size="8.9664" font-family="LinLibertineTB" font-weight="bold"><tspan y="-285.229" x="322.189 327.69438 333.05628 337.91609 340.83018 343.71736 347.80604 352.34303 355.55299 358.44017 363.38066">Publication</tspan></text>
<text xml:space="preserve" transform="matrix(.9525 0 -0 .9525 -299.30113 511.9621)" font-size="7.2727" font-family="LinLibertineT"><tspan y="-288.484" x="368.904">9</tspan></text>
<text xml:space="preserve" transform="matrix(.9525 0 -0 .9525 -299.30113 511.9621)" font-size="8.9664" font-family="LinLibertineTB" font-weight="bold"><tspan y="-285.229" x="398.703 405.28434 409.82133 413.03129 417.56828 421.3969 425.7815 469.3851 477.4459 481.83049 485.04045 488.87806 491.76524 495.8539 505.2776 510.5588 515.562 520.5025 523.41659 543.9945 549.1681 553.7051 558.65457 563.0391">DatasetMetricsToolsLabel</tspan></text>
<path transform="matrix(.9525,0,0,-.9525,5.6865236,245.10303)" stroke-width=".461" stroke-linecap="butt" stroke-miterlimit="10" stroke-linejoin="miter" fill="none" stroke="#000000" d="M 0 0 L 247.752 0 "/>
<text xml:space="preserve" transform="matrix(.9525 0 -0 .9525 -299.30113 511.9621)" font-size="8.9664" font-family="LinLibertineT"><tspan y="-264.164" x="322.189 328.331 331.6665 335.76417 340.62397 343.05387 345.88725 349.689 353.697 359.2741 362.46617 366.63554 370.8049">Granitzer[20]</tspan><tspan y="-269.756" x="398.703 402.711 405.74165 410.3952 413.7307 416.1606 421.02043 423.8538 429.5923 432.26429 436.43367 438.40626 442.57563 446.745 450.91438 453.58638">e-prints(2,452),</tspan><tspan y="-258.797" x="398.703 406.2258 410.2338 415.0936 419.63059 423.63859 426.0057 429.95094 436.81025 439.48225 443.6516 447.82099 449.79359 453.96296 458.13233 462.3017">Mendeley(20,672)</tspan><tspan y="-264.164" x="469.389 474.02467 475.99726 523.07089 547.49539 555.0182 559.0262 561.85958">P,R2Meta</tspan><tspan y="-242.211" x="322.18904 327.46128 331.55894 335.05583 340.1308 344.22846 349.08827 355.86686 361.39915 365.9182 369.25373 373.05549 377.06349 384.1649 387.35694 391.5263 398.69944 402.7971 406.1326 412.0504 414.48033 421.17823 423.85023 428.0196 432.18898 434.16157 438.33094 442.5003 446.66969">BastandKorzen[6]arXiv(12,098)</tspan><tspan y="-247.838" x="469.38905 475.65657">NL</tspan></text>
<text xml:space="preserve" transform="matrix(.9525 0 -0 .9525 -299.30113 511.9621)" font-size="8.9664" font-family="LinLibertineT"><tspan y="-247.838" x="480.39106">&#x00b1;</tspan></text>
<text xml:space="preserve" transform="matrix(.9525 0 -0 .9525 -299.30113 511.9621)" font-size="8.9664" font-family="LinLibertineT"><tspan y="-247.838" x="485.32206 489.53627">,P</tspan></text>
<text xml:space="preserve" transform="matrix(.9525 0 -0 .9525 -299.30113 511.9621)" font-size="8.9664" font-family="LinLibertineT"><tspan y="-247.838" x="494.38706">&#x00b1;</tspan></text>
<text xml:space="preserve" transform="matrix(.9525 0 -0 .9525 -299.30113 511.9621)" font-size="8.9664" font-family="LinLibertineT"><tspan y="-247.838" x="499.31907">,</tspan><tspan y="-236.80899" x="469.38908">W</tspan></text>
<text xml:space="preserve" transform="matrix(.9525 0 -0 .9525 -299.30113 511.9621)" font-size="8.9664" font-family="LinLibertineT"><tspan y="-236.80899" x="477.91609">&#x00b1;</tspan></text>
<text xml:space="preserve" transform="matrix(.9525 0 -0 .9525 -299.30113 511.9621)" font-size="7.2727" font-family="LinLibertineT"><tspan y="-240.064" x="482.84809 486.2299">10</tspan></text>
<text xml:space="preserve" transform="matrix(.9525 0 -0 .9525 -299.30113 511.9621)" font-size="8.9664" font-family="LinLibertineT"><tspan y="-242.211" x="518.9051 523.07449">14</tspan><tspan y="-247.803" x="544.1321 548.7677 552.9819 559.2494 563.98367">P,NL,</tspan><tspan y="-236.844" x="542.4461 550.1841 554.39828 559.66159">W,RO</tspan><tspan y="-225.77899" x="322.1891 327.54203 332.1328 336.23048 340.06809 343.86985 348.48756 355.31996 358.512 362.68138 366.85075 398.6994 402.86878 404.84138 409.01075 413.1801 419.5911 424.12809 428.70994 432.54756 469.39048 474.02613 478.24034 483.5036 487.7178">Tkaczyk[56]9,491doc.P,R,F</tspan></text>
<text xml:space="preserve" transform="matrix(.9525 0 -0 .9525 -299.30113 511.9621)" font-size="7.2727" font-family="LinLibertineT"><tspan y="-229.034" x="492.0651 495.4469">11</tspan></text>
<text xml:space="preserve" transform="matrix(.9525 0 -0 .9525 -299.30113 511.9621)" font-size="8.9664" font-family="LinLibertineT"><tspan y="-225.77899" x="518.9051 523.07449 553.90097 559.16427 563.17227">10Ref</tspan><tspan y="-214.81999" x="322.1891 327.9007 332.41978 335.75529 340.61509 344.62309 350.2002 353.39225 357.5616 361.731 367.16465 370.3567 374.52607 378.69544 398.6995 402.86888 407.03825 413.44923 416.03157 422.17356 426.18156 429.51707 436.60054 440.69819 447.7996 452.33659 456.91844 460.75605 462.72865 469.3907 474.02635 475.99894 481.2622 483.2348 523.0725 553.90798 559.17129 563.17929">K&#x00f6;rner[29][30]100(Germandoc.)P,R,F4Ref</tspan><tspan y="-203.79" x="322.1891 326.97715 331.49623 334.83174 338.09553 344.34513 347.53718 351.70655 355.87593 398.69947 402.86885 407.0382 413.4492 417.98619 422.56803 426.40565 469.39057 474.0262 475.9988 481.2621 483.23469 523.0724 531.2318 536.4951 540.5031 543.2827 547.4969 555.0197 559.0277 561.8611">Torre[16]300doc.P,R,F2Ref,Meta</tspan></text>
<text xml:space="preserve" transform="matrix(.9525 0 -0 .9525 -299.30113 511.9621)" font-size="7.2727" font-family="LinLibertineT"><tspan y="-207.045" x="565.95608 569.3379">12</tspan></text>
<text xml:space="preserve" transform="matrix(.9525 0 -0 .9525 -299.30113 511.9621)" font-size="8.9664" font-family="LinLibertineT"><tspan y="-192.831" x="322.18907 326.9233 329.3532 334.00679 336.43669 341.29649 344.79338 349.38417 354.05567 357.2477 361.41709 365.58647 398.69938 402.79704 406.13255 412.05036 414.48027 421.17817 423.85017 428.01954 429.99214 434.1615 438.33088 444.74186 449.27885 453.8607 457.6983 459.6709 469.39048 523.0723 547.4968 555.01968 559.02767 561.861">Lipinski[35]arXiv(1,253doc.)A7Meta</tspan><tspan y="-181.872" x="322.18907 327.45234 329.88224 333.684 338.1403 342.8118 346.00386 350.17323 354.3426 398.69938 402.86875 404.84135 409.0107 413.18009 419.59107 422.85487 426.86286 429.64244 433.65043 436.9142 440.9222 445.782 449.61964 453.62763 469.39054 523.0724 553.90786 559.17117 563.17916">Rizvi[50]8,766referencesF4Ref</tspan></text>
<path transform="matrix(.9525,0,0,-.9525,5.6865236,343.682)" stroke-width=".737" stroke-linecap="butt" stroke-miterlimit="10" stroke-linejoin="miter" fill="none" stroke="#000000" d="M 0 0 L 247.752 0 "/>
<text xml:space="preserve" transform="matrix(.9525 0 -0 .9525 -299.30113 511.9621)" font-size="7.2727" font-family="LinLibertineT"><tspan y="-168.599" x="327.37">9</tspan></text>
<text xml:space="preserve" transform="matrix(.9525 0 -0 .9525 -299.30113 511.9621)" font-size="8.9664" font-family="LinLibertineT"><tspan y="-165.344" x="333.646 336.01313 340.11079 344.62089 348.62889 353.2376 357.30839 361.81849 366.57966 370.6773 373.04444 378.78294">labelequals1</tspan></text>
<text xml:space="preserve" transform="matrix(.9525 0 -0 .9525 -299.30113 511.9621)" font-size="7.2727" font-family="LinLibertineT"><tspan y="-168.599" x="382.952 385.78837">st</tspan></text>
<text xml:space="preserve" transform="matrix(.9525 0 -0 .9525 -299.30113 511.9621)" font-size="8.9664" font-family="LinLibertineT"><tspan y="-165.344" x="390.827 394.92466 399.68583 402.5192 407.3431 411.86219">author</tspan></text>
<text xml:space="preserve" transform="matrix(.9525 0 -0 .9525 -299.30113 511.9621)" font-size="7.2727" font-family="LinLibertineT"><tspan y="-157.64" x="327.37 330.7518">10</tspan></text>
<text xml:space="preserve" transform="matrix(.9429268 0 -0 .9621702 -299.30113 511.9621)" font-size="8.876284" font-family="LinLibertineT"><tspan y="-152.83435" x="339.84059 344.14558 348.75236 353.46565 356.7676 359.1731 363.64674 368.36003 371.82179 374.1296 379.01158 381.6567 385.7487 393.1959 395.60136 399.0631 402.52488 404.93034 409.7413 414.1794 416.48725 419.39869 422.04383 426.12693 432.33143 439.1484 441.79359 447.99809 451.90364 460.67338 465.36009 467.76554 472.57649 476.5442 479.18934 483.27244 490.2048 492.84996 497.65205 501.7085 505.01048 509.06694 513.50509 516.80709 520.8635 525.4703 530.2457 532.8908 536.9828 547.55447 550.1995 557.92196 562.3956 565.6177 570.10916 572.7542">Spurious(+),Missing(-),NL(NewLine),P(Paragraph),W(Word),</tspan></text>
<text xml:space="preserve" transform="matrix(.9525 0 -0 .9525 -299.30113 511.9621)" font-size="8.9664" font-family="LinLibertineT"><tspan y="-143.427" x="333.646 338.90928 347.44529 350.11729 355.38056 359.38856 363.4862 368.0232 370.4531 375.3129 382.0377 388.3321 391.5959 396.13288 400.14088 403.32395">RO(ReadingOrder)</tspan></text>
<text xml:space="preserve" transform="matrix(.9525 0 -0 .9525 -299.30113 511.9621)" font-size="7.2727" font-family="LinLibertineT"><tspan y="-135.723" x="327.37 330.7518">11</tspan></text>
<text xml:space="preserve" transform="matrix(.9525 0 -0 .9525 -299.30113 511.9621)" font-size="8.9664" font-family="LinLibertineT"><tspan y="-132.468" x="336.425 343.51744 346.18943 351.04026 354.30406 358.37483 362.21244 364.64234 368.13923 370.56913 375.0882 379.948 382.62 386.8342 394.33909 397.01109 402.27436 406.34513 410.18275 414.2804 416.64753 419.01466 421.68666 425.90086 432.49116 435.16316 439.51185 445.92283 450.2715 454.10914 458.6282 461.892 465.9 468.572 472.7862 481.25947 483.71629 489.84034 493.67796 497.51557 502.27674 505.61225 509.7099 513.54757 518.0128">P(Precision),R(Recall),F(F1Score),A(Accuracy)</tspan></text>
<text xml:space="preserve" transform="matrix(.9525 0 -0 .9525 -299.30113 511.9621)" font-size="7.2727" font-family="LinLibertineT"><tspan y="-124.764" x="327.37 330.7518">12</tspan></text>
<text xml:space="preserve" transform="matrix(.9525 0 -0 .9525 -299.30113 511.9621)" font-size="8.9664" font-family="LinLibertineT"><tspan y="-121.509" x="336.425 343.94779 347.95579 350.78916 357.12843 359.8004 367.3232 371.3312 374.16459 378.26225 382.79924 386.89689 389.73027 393.8279 396.4999 400.7141 405.9774 409.98539 415.00657 417.67857 422.94184 426.94984 429.7294 433.7374 437.0012 441.0092 445.869 449.7066 453.7146">Meta(Metadata),Ref(Reference)</tspan></text>
<text xml:space="preserve" transform="matrix(.9959919 0 -0 1.0040242 -314.404 523.075)" font-size="8.930463" font-family="LinLibertineT"><tspan y="-106.14287" x="329.23765 334.1315 338.2127 342.61546 344.97309 351.20658 357.6008 361.08369 365.82579 372.88087 379.9359 384.01713 387.33927 389.7594 393.54594 397.53785 403.2712 406.09327 410.89787 417.13133 421.21253 425.65098 429.73219 432.15235 434.51 438.59123 442.99394 445.3516 451.594 454.41603 457.73817 461.81938 464.23954 469.07984 471.5 476.34034 483.04713 487.56593 491.64714 494.46919 498.55039 502.03327 506.0252 508.84724 512.33016 516.5453 520.0282 522.44839 526.23489 530.1375 534.34378 538.425 543.2653 550.0257 554.10696 558.94729">Table2summarizestheavailabletrainingdatasets,size,andan-</tspan></text>
<text xml:space="preserve" transform="matrix(.98994949 0 -0 1.0101525 -314.404 523.075)" font-size="8.876284" font-family="LinLibertineT"><tspan y="-94.65007" x="321.18305 325.99403 330.46766 333.27256 337.329 340.13389 344.16377 350.76768 353.11103 357.16749 361.6411 365.60884 367.95219 371.41395 375.47929 380.7784 385.55387 391.6341 393.97746 398.0339 401.33589 405.77403 409.74174 413.2035 418.1209 422.6123 426.66877 429.47367 433.53013 436.99189 440.9596 445.877 448.6287 451.85969 456.3333 465.45814 470.31346 474.3699 478.7459 481.08927 487.17839 493.4184 497.21748 501.6911 506.50205 509.9638 512.36929 515.83108 518.636 524.21029 528.6839 533.5481 537.6756 541.8031 549.5698 554.0612 558.59707 562.3961">notatedlabels.ThelargestdatasetfromTable1consistsof10Kdoc-</tspan></text>
<text xml:space="preserve" transform="matrix(1.0029955 0 -0 .9970134 -314.404 523.075)" font-size="8.993259" font-family="LinLibertineT"><tspan y="-84.906589" x="317.00544 321.78086 328.8855 332.90553 337.77986 340.6217 344.1291 348.4818 351.9892 354.42637 358.2395 364.48985 369.02244 374.04066 376.8825 381.7209 384.15809 389.89579 394.44636 398.55628 401.39814 405.50807 409.0154 413.03544 418.1076 421.95674 426.48933 433.594 438.2615 442.3714 445.64494 449.72789 456.5088 459.35066 466.10459 470.21449 474.68415 478.79405 481.23124 483.60548 487.7154 492.14906 494.52326 500.7736 504.28099 507.12284 511.23274 514.07467 518.0946 521.13436 525.667 528.4549 531.4946 534.3365 539.17489 543.1948 546.23458 550.34457 553.69">uments;sizeofthisdatasetcomparedtoavailablestate-of-the-art</tspan></text>
<text xml:space="preserve" transform="matrix(1 0 -0 1 -314.404 523.075)" font-size="6.9738" font-family="LinLibertineT"><tspan y="-72.697" x="304.379">2</tspan></text>
</g>
</g>
</svg>
