<?xml version="1.0" encoding="UTF-8" standalone="no"?>
<!DOCTYPE svg PUBLIC "-//W3C//DTD SVG 1.1//EN" "http://www.w3.org/Graphics/SVG/1.1/DTD/svg11.dtd">
<svg xmlns="http://www.w3.org/2000/svg" xmlns:xlink="http://www.w3.org/1999/xlink" version="1.1" width="367.052pt" height="557.414pt" viewBox="0 0 367.052 557.414">
<g enable-background="new">
<clipPath id="cp0">
<path transform="matrix(1,0,0,-1,-85.19,686.235)" d="M 0 0 L 595.276 0 L 595.276 841.89 L 0 841.89 Z "/>
</clipPath>
<g clip-path="url(#cp0)">
<text xml:space="preserve" transform="matrix(1 0 -0 1 -85.19 686.235)" font-size="9.9626" font-family="TeXPalladioL"><tspan y="-798.684" x="295.55">6</tspan></text>
<text xml:space="preserve" transform="matrix(1 0 -0 1 -85.19 686.235)" font-size="9.9626" font-family="URWPalladioL"><tspan y="-798.684" x="300.53099">.</tspan></text>
<text xml:space="preserve" transform="matrix(1 0 -0 1 -85.19 686.235)" font-size="9.9626" font-family="TeXPalladioL"><tspan y="-798.684" x="303.02198 313.38307 318.60346 325.4876 334.03553 342.58345 349.4676 355.8038 364.71037 371.5945 379.03657 389.05897 395.9431 400.05766 405.27806 411.61427 418.4984 423.7188 428.9392 433.05375 439.9379">5summaryanddiscussion</tspan></text>
<text xml:space="preserve" transform="matrix(1 0 -0 1 -85.19 686.235)" font-size="9.9626" font-family="TeXPalladioL"><tspan y="-798.684" x="466.90666 471.88795">31</tspan></text>
<text xml:space="preserve" transform="matrix(1.0099504 0 -0 .99014756 -85.19 686.235)" font-size="11.017651" font-family="URWPalladioL"><tspan y="-770.74679" x="87.45182 91.04357 94.24971 100.26534 110.258358 115.53581 121.220928 124.812679 129.16466 134.67348 139.5653 143.15706 146.36319 152.37883 162.37184 169.01549 173.68697 176.89311 183.30538 193.01192 199.66658 206.39836 210.06723 218.63898 223.53083 230.7033 237.11557 242.6244 250.88764 255.55912 258.76527 264.89106 271.3033 274.50947 281.17515 286.067 291.57579 297.98808 301.57984 304.78596 314.4925 318.16139 323.30665 332.04365 337.32109 345.25379 351.8754 356.12818 362.1438 367.03565 372.3131 376.9846 381.65605 386.9335 397.246 403.91169 407.11784 412.39527 420.64747 424.23924 430.6515 436.1603">tionextractionusingPdfActhassigni&#xfb01;cantlyfewerprocessed&#xfb01;lesthan</tspan></text>
<text xml:space="preserve" transform="matrix(1 0 -0 1 -85.19 686.235)" font-size="10.9091" font-family="URWPalladioL"><tspan y="-748.926" x="88.322 94.278369 97.83473 104.18383 109.40929 116.89293 121.51839 127.58385 132.2093 135.76567 140.99114 150.62387 158.42388 161.59842 164.77297 170.83843 179.23844 186.97299 193.63846 200.92574 211.24575 214.9221 223.98757 230.65303 236.55486 244.8785 252.16577 260.74034 267.4058 271.08216 279.5258 285.4276 290.88218 297.23127 307.0713 313.0713 317.91493 321.08949 326.31495 332.66404 337.50767 345.90769 352.4968 357.95137 362.26045 366.8859 372.11137">othersystemslikeCERMINE,GROBID,andScienceParse.</tspan></text>
<text xml:space="preserve" transform="matrix(.9964939 0 -0 1.0035185 -85.19 686.235)" font-size="10.870851" font-family="URWPalladioL"><tspan y="-732.12307" x="99.58015 106.14613 111.58156 115.87554 121.31097 127.35516 131.64914 137.08457 143.61794 153.11907 158.3262 163.93556 167.47946 171.77346 177.20888 182.03554 185.57944 188.74286 194.67835 204.19034 210.74547 215.3547 218.51813 224.84496 234.06345 242.52097 249.05434 254.48976 259.31645 265.64326 274.02467 280.0906 283.25404 289.29823 297.90794 303.34339 309.67024 319.48658 326.05259 332.09678 342.3806 348.93574 355.5017 363.91578 373.1451 379.47196 384.9074 392.69093 395.8543 401.49629 410.09513 415.30229 422.7814 429.31477 433.5544 438.76155 443.58818 446.7516">ParagraphextractionusingApacheTikaandPyMuPDFhaslowerpreci-</tspan></text>
<text xml:space="preserve" transform="matrix(.9899495 0 -0 1.0101526 -85.19 686.235)" font-size="10.799458" font-family="URWPalladioL"><tspan y="-713.2318" x="89.21868 93.79765 96.94029 102.8368 111.75715 117.51326 122.91299 126.055629 132.5677 137.74065 144.95467 151.55315 158.06522 165.87323 169.39386 177.93622 187.47214 193.36864 197.56963 205.38845 211.67374 217.57024 220.71288 225.29184 233.09986 237.8948 242.1066 247.27954 252.67928 256.1999 261.37287 270.60639 276.2437 284.88328 290.7798 294.3004 300.5857 305.7586 312.65946 318.66395 323.83689 330.12217 335.29508 339.56086 344.9606 350.73829 355.53327 361.42976 370.9657 377.45616 383.35267 389.63795 394.81089 401.09617 404.61677 411.8416 415.43785 421.37754 426.55049 431.34544 434.86604 438.00868 443.90519 450.19047">sionvaluesduetomorenoisecreatedbyothergeneralcomponents(Section,</tspan></text>
<text xml:space="preserve" transform="matrix(1 0 -0 1 -85.19 686.235)" font-size="10.9091" font-family="URWPalladioL"><tspan y="-706.246" x="88.322 96.05655 101.5111 108.06747 111.62383 114.79838 120.754749 127.10384 133.00566 139.67113 142.84568 147.47113 151.0275 156.92932 162.99478 168.95116 174.90753 178.4639 183.68936 187.1912 193.09302 199.75849 205.86759 212.44577 217.90032 221.45668 224.63123 230.5876 236.93669 243.74398 250.30034 254.55489 259.78034 264.4058 269.63127 275.98036 282.71128 285.88584 295.4095 298.96586 305.31495 313.71498 317.27134 322.4968 328.1259 334.8568 340.88957 346.84593 353.51139 362.7514 368.20597 372.4605 377.68598 383.14054">Caption,List,Footer,Equation)presentinthetextbodyarea.</tspan></text>
<text xml:space="preserve" transform="matrix(1 0 -0 1 -85.19 686.235)" font-size="9.9626" font-family="URWPalladioL"><tspan y="-672.454" x="88.013 93.203517 98.184818 103.69413 106.59325">Table</tspan></text>
<text xml:space="preserve" transform="matrix(1 0 -0 1 -85.19 686.235)" font-size="9.9626" font-family="TeXPalladioL"><tspan y="-672.454" x="114.265">6</tspan></text>
<text xml:space="preserve" transform="matrix(1 0 -0 1 -85.19 686.235)" font-size="9.9626" font-family="URWPalladioL"><tspan y="-672.454" x="119.246">.</tspan></text>
<text xml:space="preserve" transform="matrix(1 0 -0 1 -85.19 686.235)" font-size="9.9626" font-family="TeXPalladioL"><tspan y="-672.454" x="121.737">1</tspan></text>
<text xml:space="preserve" transform="matrix(1 0 -0 1 -85.19 686.235)" font-size="9.9626" font-family="URWPalladioL"><tspan y="-672.454" x="126.718">:</tspan></text>
<text xml:space="preserve" transform="matrix(1 0 -0 1 -85.19 686.235)" font-size="9.9626" font-family="URWPalladioL" font-weight="bold"><tspan y="-672.454" x="132.108 138.19515 144.28229 153.13904 161.99579 166.97708 171.19127 180.11775 185.65695 192.9197 199.00684 204.35675 209.33805 212.6556 218.74274 223.72403 227.04158 230.35913 235.89833 245.37276 248.6903 256.98918 261.9306 267.46983 270.78736 275.76866 279.08619 282.40373 287.94294 297.4174 300.73493 310.20939 318.50825 324.5954 333.45216 339.5393 344.5206 351.78337 357.32258 364.58534 367.90287 373.99003 378.41343 381.73097 386.71226 392.7994 397.2228 402.2041 410.0148 414.4382 419.4195 424.4008 433.87525 437.7507 443.28993">SummaryofEvaluation(DeviationinNumberofinstancesseenfor</tspan><tspan y="-659.901" x="132.417 136.84041 141.8217 150.67845 159.33594 163.75934 169.29854 178.15529 184.24243 189.78163 195.86878 200.85007 206.93721 210.25476 218.34439 224.43154 229.41283 233.84619 238.82749 244.91463 249.33803 257.98558 263.52479 271.07646 277.1636 285.46247 294.6779 301.87089 306.85218 311.83348 321.58686 327.674 332.6553 337.0787 342.06 348.14717 351.4647 354.78224 360.32145 370.0848 375.62403 383.1757 392.40104 397.38233 401.5168 407.60398 410.9215 417.00868 422.54789 426.97129 433.13816 440.88908">samecomponentsbecauseofPDFReadExceptionorWarnings.An</tspan><tspan y="-647.348" x="132.417 135.73456 141.8217 146.2451 149.56266 154.54395 160.63109 165.05449 172.9349 176.25246 183.57498 187.99839 193.53759 199.62473 204.04813 207.36568 213.45282 218.43412 222.30957 227.29087 236.27713 242.36428 246.23973 251.77893 256.20234 261.18363 265.60704 270.03044 275.01173 283.998 292.29685 298.384 303.3653 312.35157 315.6691 321.88575 327.9729 332.9542 340.2767 348.1571 354.24427 359.78349 365.87065 369.18818 374.16947 379.15077 383.0262 391.46455">instanceisconsideredprocessedwhenithasanon-zeroF</tspan></text>
<text xml:space="preserve" transform="matrix(1 0 -0 1 -85.19 686.235)" font-size="9.9626" font-family="TeXPalladioL" font-weight="bold"><tspan y="-647.348" x="397.005">1</tspan></text>
<text xml:space="preserve" transform="matrix(1 0 -0 1 -85.19 686.235)" font-size="9.9626" font-family="URWPalladioL" font-weight="bold"><tspan y="-647.348" x="404.885 410.97218 415.39558 420.93479 424.81025 429.79154 432.2822">Score.)</tspan></text>
<path transform="matrix(.72144,0,0,-.72144,5.4225685,43.962144)" stroke-width=".873" stroke-linecap="butt" stroke-miterlimit="10" stroke-linejoin="miter" fill="none" stroke="#000000" d="M 0 0 L 490.793 0 "/>
<text xml:space="preserve" transform="matrix(.72144 0 -0 .72144 -60.58703 577.9612)" font-size="10.9091" font-family="URWPalladioL" font-weight="bold"><tspan y="-723.749" x="93.489 99.55446 105.61992 111.68538 167.91089 174.57636 180.0309 186.69637 192.15091 222.44548 228.51094 234.5764 238.20914 243.66368 250.47097 254.7146 261.38008 266.2237 269.8564 275.31098 281.97645 286.82008 292.27464 301.10008 305.34373 312.0092 316.8528 320.48554 325.9401 332.60557 337.4492 342.90376 350.92195 357.5874 361.83106 367.8965 372.74015 378.1947 383.03834 387.88197 393.33653 403.9838 412.47108 417.3147 422.15834 428.8238 433.06745 438.522 443.36564 453.42384">ToolLabelTotalInstancesInstancesProcessedAccuracyF</tspan></text>
<text xml:space="preserve" transform="matrix(.72144 0 -0 .72144 -60.58703 577.9612)" font-size="10.9091" font-family="TeXPalladioL" font-weight="bold"><tspan y="-723.749" x="459.48298">1</tspan></text>
<text xml:space="preserve" transform="matrix(.72144 0 -0 .72144 -60.58703 577.9612)" font-size="10.9091" font-family="URWPalladioL" font-weight="bold"><tspan y="-723.749" x="468.11198 474.77745 479.62107 485.68653 489.93019 499.36656 506.032 510.27568 515.7302 520.57388 524.2066 529.05026 532.683 538.7484 549.4066 557.28298 562.7375 567.5811 573.03567 576.6684">ScorePrecisionRecall</tspan></text>
<path transform="matrix(.72144,0,0,-.72144,5.4225695,60.450624)" stroke-width=".545" stroke-linecap="butt" stroke-miterlimit="10" stroke-linejoin="miter" fill="none" stroke="#000000" d="M 0 0 L 490.793 0 "/>
<text xml:space="preserve" transform="matrix(.72144 0 -0 .72144 -60.58703 577.9612)" font-size="10.9091" font-family="URWPalladioL" font-weight="bold"><tspan y="-701.058" x="93.489 101.97628 108.64174 114.7072 121.37266 130.00176 136.66722 142.12177 145.7545 149.99814 155.45269 160.29633">AdobeExtract</tspan></text>
<text xml:space="preserve" transform="matrix(.72144 0 -0 .72144 -60.58703 577.9612)" font-size="10.9091" font-family="URWPalladioL"><tspan y="-701.058" x="167.914 173.59764 179.05219 185.08492 188.25946">Table</tspan></text>
<text fill="#0000ff" xml:space="preserve" transform="matrix(.72144 0 -0 .72144 -60.58703 577.9612)" font-size="10.9091" font-family="TeXPalladioL" font-weight="bold"><tspan y="-701.058" x="222.44101 227.89556 233.3501 238.80464">1635</tspan></text>
<text xml:space="preserve" transform="matrix(.72144 0 -0 .72144 -60.58703 577.9612)" font-size="10.9091" font-family="TeXPalladioL"><tspan y="-701.058" x="301.099 306.55357 312.00813 403.98277">7360</tspan></text>
<text xml:space="preserve" transform="matrix(.72144 0 -0 .72144 -60.58703 577.9612)" font-size="10.9091" font-family="URWPalladioL"><tspan y="-701.058" x="409.44">.</tspan></text>
<text xml:space="preserve" transform="matrix(.72144 0 -0 .72144 -60.58703 577.9612)" font-size="10.9091" font-family="TeXPalladioL"><tspan y="-701.058" x="412.167 417.62156 453.4143">520</tspan></text>
<text xml:space="preserve" transform="matrix(.72144 0 -0 .72144 -60.58703 577.9612)" font-size="10.9091" font-family="URWPalladioL"><tspan y="-701.058" x="458.872">.</tspan></text>
<text xml:space="preserve" transform="matrix(.72144 0 -0 .72144 -60.58703 577.9612)" font-size="10.9091" font-family="TeXPalladioL"><tspan y="-701.058" x="461.6 467.05458 499.36735">470</tspan></text>
<text xml:space="preserve" transform="matrix(.72144 0 -0 .72144 -60.58703 577.9612)" font-size="10.9091" font-family="URWPalladioL"><tspan y="-701.058" x="504.825">.</tspan></text>
<text xml:space="preserve" transform="matrix(.72144 0 -0 .72144 -60.58703 577.9612)" font-size="10.9091" font-family="TeXPalladioL"><tspan y="-701.058" x="507.552 513.00656 549.3993">450</tspan></text>
<text xml:space="preserve" transform="matrix(.72144 0 -0 .72144 -60.58703 577.9612)" font-size="10.9091" font-family="URWPalladioL"><tspan y="-701.058" x="554.857">.</tspan></text>
<text xml:space="preserve" transform="matrix(.72144 0 -0 .72144 -60.58703 577.9612)" font-size="10.9091" font-family="TeXPalladioL"><tspan y="-701.058" x="557.584 563.0385">49</tspan></text>
<text xml:space="preserve" transform="matrix(.72144 0 -0 .72144 -60.58703 577.9612)" font-size="10.9091" font-family="URWPalladioL"><tspan y="-683.842" x="167.91397 174.50307 179.95761 184.26671 189.72126 195.78672 200.09581 205.55036 212.10672">Paragraph</tspan></text>
<text fill="#0000ff" xml:space="preserve" transform="matrix(.72144 0 -0 .72144 -60.58703 577.9612)" font-size="10.9091" font-family="TeXPalladioL" font-weight="bold"><tspan y="-683.842" x="222.44098 227.89553 233.35007 238.80461">3985</tspan></text>
<text xml:space="preserve" transform="matrix(.72144 0 -0 .72144 -60.58703 577.9612)" font-size="10.9091" font-family="TeXPalladioL"><tspan y="-683.842" x="301.09898 306.55354 312.0081 317.46266">3088</tspan></text>
<text fill="#0000ff" xml:space="preserve" transform="matrix(.72144 0 -0 .72144 -60.58703 577.9612)" font-size="10.9091" font-family="TeXPalladioL" font-weight="bold"><tspan y="-683.842" x="403.98597">0</tspan></text>
<text fill="#0000ff" xml:space="preserve" transform="matrix(.72144 0 -0 .72144 -60.58703 577.9612)" font-size="10.9091" font-family="URWPalladioL" font-weight="bold"><tspan y="-683.842" x="409.43998">.</tspan></text>
<text fill="#0000ff" xml:space="preserve" transform="matrix(.72144 0 -0 .72144 -60.58703 577.9612)" font-size="10.9091" font-family="TeXPalladioL" font-weight="bold"><tspan y="-683.842" x="412.16697 417.62153">85</tspan></text>
<text fill="#0000ff" xml:space="preserve" transform="matrix(.72144 0 -0 .72144 -60.58703 577.9612)" font-size="10.9091" font-family="TeXPalladioL" font-weight="bold"><tspan y="-683.842" x="453.41429">0</tspan></text>
<text fill="#0000ff" xml:space="preserve" transform="matrix(.72144 0 -0 .72144 -60.58703 577.9612)" font-size="10.9091" font-family="URWPalladioL" font-weight="bold"><tspan y="-683.842" x="458.87196">.</tspan></text>
<text fill="#0000ff" xml:space="preserve" transform="matrix(.72144 0 -0 .72144 -60.58703 577.9612)" font-size="10.9091" font-family="TeXPalladioL" font-weight="bold"><tspan y="-683.842" x="461.59996 467.0545">74</tspan></text>
<text xml:space="preserve" transform="matrix(.72144 0 -0 .72144 -60.58703 577.9612)" font-size="10.9091" font-family="TeXPalladioL"><tspan y="-683.842" x="499.36994">0</tspan></text>
<text xml:space="preserve" transform="matrix(.72144 0 -0 .72144 -60.58703 577.9612)" font-size="10.9091" font-family="URWPalladioL"><tspan y="-683.842" x="504.82493">.</tspan></text>
<text xml:space="preserve" transform="matrix(.72144 0 -0 .72144 -60.58703 577.9612)" font-size="10.9091" font-family="TeXPalladioL"><tspan y="-683.842" x="507.5519 513.0065 549.39926">720</tspan></text>
<text xml:space="preserve" transform="matrix(.72144 0 -0 .72144 -60.58703 577.9612)" font-size="10.9091" font-family="URWPalladioL"><tspan y="-683.842" x="554.85696">.</tspan></text>
<text xml:space="preserve" transform="matrix(.72144 0 -0 .72144 -60.58703 577.9612)" font-size="10.9091" font-family="TeXPalladioL"><tspan y="-683.842" x="557.5839 563.03848">76</tspan></text>
<path transform="matrix(.72144,0,0,-.72144,5.4225695,89.24115)" stroke-width=".545" stroke-linecap="butt" stroke-miterlimit="10" stroke-linejoin="miter" fill="none" stroke="#000000" d="M 0 0 L 490.793 0 "/>
<text xml:space="preserve" transform="matrix(.72144 0 -0 .72144 -60.58703 577.9612)" font-size="10.9091" font-family="URWPalladioL" font-weight="bold"><tspan y="-661.151" x="93.489 101.97628 108.64174 114.09629 118.93993 125.60539 134.23448 140.91085 144.54358 151.20905">ApacheTika</tspan></text>
<text xml:space="preserve" transform="matrix(.72144 0 -0 .72144 -60.58703 577.9612)" font-size="10.9091" font-family="URWPalladioL"><tspan y="-661.151" x="167.914 174.5031 179.95764 184.26674 189.72129 195.78675 200.09584 205.55039 212.10675">Paragraph</tspan></text>
<text xml:space="preserve" transform="matrix(.72144 0 -0 .72144 -60.58703 577.9612)" font-size="10.9091" font-family="TeXPalladioL"><tspan y="-661.151" x="222.44101 227.89556 233.3501 238.80464 244.25919 249.71373 301.09559 306.55015 312.0047 317.45927 322.91383 328.36839 403.99028">3396032585820</tspan></text>
<text xml:space="preserve" transform="matrix(.72144 0 -0 .72144 -60.58703 577.9612)" font-size="10.9091" font-family="URWPalladioL"><tspan y="-661.151" x="409.44">.</tspan></text>
<text xml:space="preserve" transform="matrix(.72144 0 -0 .72144 -60.58703 577.9612)" font-size="10.9091" font-family="TeXPalladioL"><tspan y="-661.151" x="412.167 417.62156 453.4143">550</tspan></text>
<text xml:space="preserve" transform="matrix(.72144 0 -0 .72144 -60.58703 577.9612)" font-size="10.9091" font-family="URWPalladioL"><tspan y="-661.151" x="458.872">.</tspan></text>
<text xml:space="preserve" transform="matrix(.72144 0 -0 .72144 -60.58703 577.9612)" font-size="10.9091" font-family="TeXPalladioL"><tspan y="-661.151" x="461.6 467.05458">52</tspan></text>
<text fill="#0000ff" xml:space="preserve" transform="matrix(.72144 0 -0 .72144 -60.58703 577.9612)" font-size="10.9091" font-family="TeXPalladioL" font-weight="bold"><tspan y="-661.151" x="499.37">0</tspan></text>
<text fill="#0000ff" xml:space="preserve" transform="matrix(.72144 0 -0 .72144 -60.58703 577.9612)" font-size="10.9091" font-family="URWPalladioL" font-weight="bold"><tspan y="-661.151" x="504.82499">.</tspan></text>
<text fill="#0000ff" xml:space="preserve" transform="matrix(.72144 0 -0 .72144 -60.58703 577.9612)" font-size="10.9091" font-family="TeXPalladioL" font-weight="bold"><tspan y="-661.151" x="507.55198 513.00656">43</tspan></text>
<text fill="#0000ff" xml:space="preserve" transform="matrix(.72144 0 -0 .72144 -60.58703 577.9612)" font-size="10.9091" font-family="TeXPalladioL" font-weight="bold"><tspan y="-661.151" x="549.3993">0</tspan></text>
<text fill="#0000ff" xml:space="preserve" transform="matrix(.72144 0 -0 .72144 -60.58703 577.9612)" font-size="10.9091" font-family="URWPalladioL" font-weight="bold"><tspan y="-661.151" x="554.857">.</tspan></text>
<text fill="#0000ff" xml:space="preserve" transform="matrix(.72144 0 -0 .72144 -60.58703 577.9612)" font-size="10.9091" font-family="TeXPalladioL" font-weight="bold"><tspan y="-661.151" x="557.584 563.0385">65</tspan></text>
<path transform="matrix(.72144,0,0,-.72144,5.4225695,105.61133)" stroke-width=".545" stroke-linecap="butt" stroke-miterlimit="10" stroke-linejoin="miter" fill="none" stroke="#000000" d="M 0 0 L 490.793 0 "/>
<text xml:space="preserve" transform="matrix(.72144 0 -0 .72144 -60.58703 577.9612)" font-size="10.9091" font-family="URWPalladioL" font-weight="bold"><tspan y="-638.459" x="93.489 101.36537 106.81992 116.51811 121.972667 125.60539 131.67086">Camelot</tspan></text>
<text xml:space="preserve" transform="matrix(.72144 0 -0 .72144 -60.58703 577.9612)" font-size="10.9091" font-family="URWPalladioL"><tspan y="-638.459" x="167.914 173.59764 179.05219 185.08492 188.25946">Table</tspan></text>
<text xml:space="preserve" transform="matrix(.72144 0 -0 .72144 -60.58703 577.9612)" font-size="10.9091" font-family="TeXPalladioL"><tspan y="-638.459" x="222.44101 227.89556 233.3501 238.80464 244.25919">16289</tspan></text>
<text fill="#0000ff" xml:space="preserve" transform="matrix(.72144 0 -0 .72144 -60.58703 577.9612)" font-size="10.9091" font-family="TeXPalladioL" font-weight="bold"><tspan y="-638.459" x="301.099 306.55357 312.00813 317.46269 322.91725">11628</tspan></text>
<text xml:space="preserve" transform="matrix(.72144 0 -0 .72144 -60.58703 577.9612)" font-size="10.9091" font-family="TeXPalladioL"><tspan y="-638.459" x="403.986">0</tspan></text>
<text xml:space="preserve" transform="matrix(.72144 0 -0 .72144 -60.58703 577.9612)" font-size="10.9091" font-family="URWPalladioL"><tspan y="-638.459" x="409.44">.</tspan></text>
<text xml:space="preserve" transform="matrix(.72144 0 -0 .72144 -60.58703 577.9612)" font-size="10.9091" font-family="TeXPalladioL"><tspan y="-638.459" x="412.167 417.62156 453.4143">270</tspan></text>
<text xml:space="preserve" transform="matrix(.72144 0 -0 .72144 -60.58703 577.9612)" font-size="10.9091" font-family="URWPalladioL"><tspan y="-638.459" x="458.872">.</tspan></text>
<text xml:space="preserve" transform="matrix(.72144 0 -0 .72144 -60.58703 577.9612)" font-size="10.9091" font-family="TeXPalladioL"><tspan y="-638.459" x="461.6 467.05458">30</tspan></text>
<text fill="#0000ff" xml:space="preserve" transform="matrix(.72144 0 -0 .72144 -60.58703 577.9612)" font-size="10.9091" font-family="TeXPalladioL" font-weight="bold"><tspan y="-638.459" x="499.37">0</tspan></text>
<text fill="#0000ff" xml:space="preserve" transform="matrix(.72144 0 -0 .72144 -60.58703 577.9612)" font-size="10.9091" font-family="URWPalladioL" font-weight="bold"><tspan y="-638.459" x="504.82499">.</tspan></text>
<text fill="#0000ff" xml:space="preserve" transform="matrix(.72144 0 -0 .72144 -60.58703 577.9612)" font-size="10.9091" font-family="TeXPalladioL" font-weight="bold"><tspan y="-638.459" x="507.55198 513.00656">23</tspan></text>
<text fill="#0000ff" xml:space="preserve" transform="matrix(.72144 0 -0 .72144 -60.58703 577.9612)" font-size="10.9091" font-family="TeXPalladioL" font-weight="bold"><tspan y="-638.459" x="549.3993">0</tspan></text>
<text fill="#0000ff" xml:space="preserve" transform="matrix(.72144 0 -0 .72144 -60.58703 577.9612)" font-size="10.9091" font-family="URWPalladioL" font-weight="bold"><tspan y="-638.459" x="554.857">.</tspan></text>
<text fill="#0000ff" xml:space="preserve" transform="matrix(.72144 0 -0 .72144 -60.58703 577.9612)" font-size="10.9091" font-family="TeXPalladioL" font-weight="bold"><tspan y="-638.459" x="557.584 563.0385">44</tspan></text>
<path transform="matrix(.72144,0,0,-.72144,5.4225695,121.98224)" stroke-width=".545" stroke-linecap="butt" stroke-miterlimit="10" stroke-linejoin="miter" fill="none" stroke="#000000" d="M 0 0 L 490.793 0 "/>
<text xml:space="preserve" transform="matrix(.72144 0 -0 .72144 -60.58703 577.9612)" font-size="10.9091" font-family="URWPalladioL" font-weight="bold"><tspan y="-615.768" x="93.489 101.36537 108.03083 115.9072 126.8163 131.05994 140.14722">CERMINE</tspan></text>
<text xml:space="preserve" transform="matrix(.72144 0 -0 .72144 -60.58703 577.9612)" font-size="10.9091" font-family="URWPalladioL"><tspan y="-615.768" x="167.914 174.00127 177.17581 180.73218 183.90673">Title</tspan></text>
<text xml:space="preserve" transform="matrix(.72144 0 -0 .72144 -60.58703 577.9612)" font-size="10.9091" font-family="TeXPalladioL"><tspan y="-615.768" x="222.44101 227.89556 233.3501 238.80464 244.25919 301.09559 306.55015 312.0047 317.45927 322.91383 403.99028">16196145010</tspan></text>
<text xml:space="preserve" transform="matrix(.72144 0 -0 .72144 -60.58703 577.9612)" font-size="10.9091" font-family="URWPalladioL"><tspan y="-615.768" x="409.44">.</tspan></text>
<text xml:space="preserve" transform="matrix(.72144 0 -0 .72144 -60.58703 577.9612)" font-size="10.9091" font-family="TeXPalladioL"><tspan y="-615.768" x="412.167 417.62156 453.4143">840</tspan></text>
<text xml:space="preserve" transform="matrix(.72144 0 -0 .72144 -60.58703 577.9612)" font-size="10.9091" font-family="URWPalladioL"><tspan y="-615.768" x="458.872">.</tspan></text>
<text xml:space="preserve" transform="matrix(.72144 0 -0 .72144 -60.58703 577.9612)" font-size="10.9091" font-family="TeXPalladioL"><tspan y="-615.768" x="461.6 467.05458 499.36735">810</tspan></text>
<text xml:space="preserve" transform="matrix(.72144 0 -0 .72144 -60.58703 577.9612)" font-size="10.9091" font-family="URWPalladioL"><tspan y="-615.768" x="504.825">.</tspan></text>
<text xml:space="preserve" transform="matrix(.72144 0 -0 .72144 -60.58703 577.9612)" font-size="10.9091" font-family="TeXPalladioL"><tspan y="-615.768" x="507.552 513.00656 549.3993">810</tspan></text>
<text xml:space="preserve" transform="matrix(.72144 0 -0 .72144 -60.58703 577.9612)" font-size="10.9091" font-family="URWPalladioL"><tspan y="-615.768" x="554.857">.</tspan></text>
<text xml:space="preserve" transform="matrix(.72144 0 -0 .72144 -60.58703 577.9612)" font-size="10.9091" font-family="TeXPalladioL"><tspan y="-615.768" x="557.584 563.0385">81</tspan></text>
<text xml:space="preserve" transform="matrix(.72144 0 -0 .72144 -60.58703 577.9612)" font-size="10.9091" font-family="URWPalladioL"><tspan y="-598.553" x="167.91397 176.00852 182.5867 186.14307 192.49216 198.44853">Author</tspan></text>
<text xml:space="preserve" transform="matrix(.72144 0 -0 .72144 -60.58703 577.9612)" font-size="10.9091" font-family="TeXPalladioL"><tspan y="-598.553" x="222.44098 227.89553 233.35007 238.80461 244.25916 301.09556 306.5501 312.00468 317.45924 322.9138 403.99024">19788147970</tspan></text>
<text xml:space="preserve" transform="matrix(.72144 0 -0 .72144 -60.58703 577.9612)" font-size="10.9091" font-family="URWPalladioL"><tspan y="-598.553" x="409.43998">.</tspan></text>
<text xml:space="preserve" transform="matrix(.72144 0 -0 .72144 -60.58703 577.9612)" font-size="10.9091" font-family="TeXPalladioL"><tspan y="-598.553" x="412.16697 417.62153 453.41429">430</tspan></text>
<text xml:space="preserve" transform="matrix(.72144 0 -0 .72144 -60.58703 577.9612)" font-size="10.9091" font-family="URWPalladioL"><tspan y="-598.553" x="458.87196">.</tspan></text>
<text xml:space="preserve" transform="matrix(.72144 0 -0 .72144 -60.58703 577.9612)" font-size="10.9091" font-family="TeXPalladioL"><tspan y="-598.553" x="461.59996 467.0545 499.36729">440</tspan></text>
<text xml:space="preserve" transform="matrix(.72144 0 -0 .72144 -60.58703 577.9612)" font-size="10.9091" font-family="URWPalladioL"><tspan y="-598.553" x="504.82496">.</tspan></text>
<text xml:space="preserve" transform="matrix(.72144 0 -0 .72144 -60.58703 577.9612)" font-size="10.9091" font-family="TeXPalladioL"><tspan y="-598.553" x="507.55195 513.0065 549.39926">440</tspan></text>
<text xml:space="preserve" transform="matrix(.72144 0 -0 .72144 -60.58703 577.9612)" font-size="10.9091" font-family="URWPalladioL"><tspan y="-598.553" x="554.85696">.</tspan></text>
<text xml:space="preserve" transform="matrix(.72144 0 -0 .72144 -60.58703 577.9612)" font-size="10.9091" font-family="TeXPalladioL"><tspan y="-598.553" x="557.5839 563.03848">46</tspan></text>
<text xml:space="preserve" transform="matrix(.72144 0 -0 .72144 -60.58703 577.9612)" font-size="10.9091" font-family="URWPalladioL"><tspan y="-581.337" x="167.91391 176.40119 182.43392 187.05937 190.61574 194.92484 200.37938 205.22303">Abstract</tspan></text>
<text xml:space="preserve" transform="matrix(.72144 0 -0 .72144 -60.58703 577.9612)" font-size="10.9091" font-family="TeXPalladioL"><tspan y="-581.337" x="222.44092 227.89546 233.35 238.80455 244.2591 301.0955 306.55006 312.0046 317.45918 322.91374 403.99018">19342167160</tspan></text>
<text xml:space="preserve" transform="matrix(.72144 0 -0 .72144 -60.58703 577.9612)" font-size="10.9091" font-family="URWPalladioL"><tspan y="-581.337" x="409.4399">.</tspan></text>
<text xml:space="preserve" transform="matrix(.72144 0 -0 .72144 -60.58703 577.9612)" font-size="10.9091" font-family="TeXPalladioL"><tspan y="-581.337" x="412.1669 417.62147 453.4142">710</tspan></text>
<text xml:space="preserve" transform="matrix(.72144 0 -0 .72144 -60.58703 577.9612)" font-size="10.9091" font-family="URWPalladioL"><tspan y="-581.337" x="458.8719">.</tspan></text>
<text xml:space="preserve" transform="matrix(.72144 0 -0 .72144 -60.58703 577.9612)" font-size="10.9091" font-family="TeXPalladioL"><tspan y="-581.337" x="461.59989 467.05445 499.36723">720</tspan></text>
<text xml:space="preserve" transform="matrix(.72144 0 -0 .72144 -60.58703 577.9612)" font-size="10.9091" font-family="URWPalladioL"><tspan y="-581.337" x="504.8249">.</tspan></text>
<text xml:space="preserve" transform="matrix(.72144 0 -0 .72144 -60.58703 577.9612)" font-size="10.9091" font-family="TeXPalladioL"><tspan y="-581.337" x="507.55189 513.0064 549.3992">680</tspan></text>
<text xml:space="preserve" transform="matrix(.72144 0 -0 .72144 -60.58703 577.9612)" font-size="10.9091" font-family="URWPalladioL"><tspan y="-581.337" x="554.8569">.</tspan></text>
<text xml:space="preserve" transform="matrix(.72144 0 -0 .72144 -60.58703 577.9612)" font-size="10.9091" font-family="TeXPalladioL"><tspan y="-581.337" x="557.58389 563.0384">76</tspan></text>
<text xml:space="preserve" transform="matrix(.72144 0 -0 .72144 -60.58703 577.9612)" font-size="10.9091" font-family="URWPalladioL"><tspan y="-564.12197" x="167.91385 175.20113 180.42659 184.05933 189.28479 193.53934 198.7648 205.11389 209.95754">Reference</tspan></text>
<text xml:space="preserve" transform="matrix(.72144 0 -0 .72144 -60.58703 577.9612)" font-size="10.9091" font-family="TeXPalladioL"><tspan y="-564.12197" x="222.44086 227.8954 233.34995 238.80449 244.25904 301.09544 306.55 312.00456 317.4591 322.91368 403.9901">40333351930</tspan></text>
<text xml:space="preserve" transform="matrix(.72144 0 -0 .72144 -60.58703 577.9612)" font-size="10.9091" font-family="URWPalladioL"><tspan y="-564.12197" x="409.43986">.</tspan></text>
<text xml:space="preserve" transform="matrix(.72144 0 -0 .72144 -60.58703 577.9612)" font-size="10.9091" font-family="TeXPalladioL"><tspan y="-564.12197" x="412.16685 417.6214 453.41416">800</tspan></text>
<text xml:space="preserve" transform="matrix(.72144 0 -0 .72144 -60.58703 577.9612)" font-size="10.9091" font-family="URWPalladioL"><tspan y="-564.12197" x="458.87184">.</tspan></text>
<text xml:space="preserve" transform="matrix(.72144 0 -0 .72144 -60.58703 577.9612)" font-size="10.9091" font-family="TeXPalladioL"><tspan y="-564.12197" x="461.59983 467.05439 499.36717">740</tspan></text>
<text xml:space="preserve" transform="matrix(.72144 0 -0 .72144 -60.58703 577.9612)" font-size="10.9091" font-family="URWPalladioL"><tspan y="-564.12197" x="504.82484">.</tspan></text>
<text xml:space="preserve" transform="matrix(.72144 0 -0 .72144 -60.58703 577.9612)" font-size="10.9091" font-family="TeXPalladioL"><tspan y="-564.12197" x="507.55183 513.00637 549.3991">710</tspan></text>
<text xml:space="preserve" transform="matrix(.72144 0 -0 .72144 -60.58703 577.9612)" font-size="10.9091" font-family="URWPalladioL"><tspan y="-564.12197" x="554.8568">.</tspan></text>
<text xml:space="preserve" transform="matrix(.72144 0 -0 .72144 -60.58703 577.9612)" font-size="10.9091" font-family="TeXPalladioL"><tspan y="-564.12197" x="557.5838 563.0383">77</tspan></text>
<text xml:space="preserve" transform="matrix(.72144 0 -0 .72144 -60.58703 577.9612)" font-size="10.9091" font-family="URWPalladioL"><tspan y="-546.90597" x="167.91379 174.50289 179.95743 184.26653 189.72107 195.78653 200.09563 205.55017 212.10654">Paragraph</tspan></text>
<text xml:space="preserve" transform="matrix(.72144 0 -0 .72144 -60.58703 577.9612)" font-size="10.9091" font-family="TeXPalladioL"><tspan y="-546.90597" x="222.4408 227.89534 233.34989 238.80443 244.25897 249.71352 301.09538 306.54994 312.0045 317.45906 322.9136 328.36817 403.99006">3612733481600</tspan></text>
<text xml:space="preserve" transform="matrix(.72144 0 -0 .72144 -60.58703 577.9612)" font-size="10.9091" font-family="URWPalladioL"><tspan y="-546.90597" x="409.4398">.</tspan></text>
<text xml:space="preserve" transform="matrix(.72144 0 -0 .72144 -60.58703 577.9612)" font-size="10.9091" font-family="TeXPalladioL"><tspan y="-546.90597" x="412.16679 417.62135 453.4141">890</tspan></text>
<text xml:space="preserve" transform="matrix(.72144 0 -0 .72144 -60.58703 577.9612)" font-size="10.9091" font-family="URWPalladioL"><tspan y="-546.90597" x="458.87178">.</tspan></text>
<text xml:space="preserve" transform="matrix(.72144 0 -0 .72144 -60.58703 577.9612)" font-size="10.9091" font-family="TeXPalladioL"><tspan y="-546.90597" x="461.59977 467.05433 499.3671">850</tspan></text>
<text xml:space="preserve" transform="matrix(.72144 0 -0 .72144 -60.58703 577.9612)" font-size="10.9091" font-family="URWPalladioL"><tspan y="-546.90597" x="504.82478">.</tspan></text>
<text xml:space="preserve" transform="matrix(.72144 0 -0 .72144 -60.58703 577.9612)" font-size="10.9091" font-family="TeXPalladioL"><tspan y="-546.90597" x="507.55177 513.0063 549.39907">830</tspan></text>
<text xml:space="preserve" transform="matrix(.72144 0 -0 .72144 -60.58703 577.9612)" font-size="10.9091" font-family="URWPalladioL"><tspan y="-546.90597" x="554.85678">.</tspan></text>
<text xml:space="preserve" transform="matrix(.72144 0 -0 .72144 -60.58703 577.9612)" font-size="10.9091" font-family="TeXPalladioL"><tspan y="-546.90597" x="557.58377 563.03829">87</tspan></text>
<text xml:space="preserve" transform="matrix(.72144 0 -0 .72144 -60.58703 577.9612)" font-size="10.9091" font-family="URWPalladioL"><tspan y="-529.6909" x="167.91373 173.91373 179.13919 183.98284 187.5392 190.71375 196.67012">Section</tspan></text>
<text xml:space="preserve" transform="matrix(.72144 0 -0 .72144 -60.58703 577.9612)" font-size="10.9091" font-family="TeXPalladioL"><tspan y="-529.6909" x="222.44074 227.89528 233.34983 238.80437 244.25891 249.71346 301.0953 306.54988 312.00444 317.45899 322.91355 328.3681 403.99">1630771399210</tspan></text>
<text xml:space="preserve" transform="matrix(.72144 0 -0 .72144 -60.58703 577.9612)" font-size="10.9091" font-family="URWPalladioL"><tspan y="-529.6909" x="409.43974">.</tspan></text>
<text xml:space="preserve" transform="matrix(.72144 0 -0 .72144 -60.58703 577.9612)" font-size="10.9091" font-family="TeXPalladioL"><tspan y="-529.6909" x="412.16673 417.62129 453.41404">400</tspan></text>
<text xml:space="preserve" transform="matrix(.72144 0 -0 .72144 -60.58703 577.9612)" font-size="10.9091" font-family="URWPalladioL"><tspan y="-529.6909" x="458.8717">.</tspan></text>
<text xml:space="preserve" transform="matrix(.72144 0 -0 .72144 -60.58703 577.9612)" font-size="10.9091" font-family="TeXPalladioL"><tspan y="-529.6909" x="461.5997 467.05427 499.36705">350</tspan></text>
<text xml:space="preserve" transform="matrix(.72144 0 -0 .72144 -60.58703 577.9612)" font-size="10.9091" font-family="URWPalladioL"><tspan y="-529.6909" x="504.8247">.</tspan></text>
<text xml:space="preserve" transform="matrix(.72144 0 -0 .72144 -60.58703 577.9612)" font-size="10.9091" font-family="TeXPalladioL"><tspan y="-529.6909" x="507.5517 513.0062 549.399">320</tspan></text>
<text xml:space="preserve" transform="matrix(.72144 0 -0 .72144 -60.58703 577.9612)" font-size="10.9091" font-family="URWPalladioL"><tspan y="-529.6909" x="554.8567">.</tspan></text>
<text xml:space="preserve" transform="matrix(.72144 0 -0 .72144 -60.58703 577.9612)" font-size="10.9091" font-family="TeXPalladioL"><tspan y="-529.6909" x="557.5837 563.0382">38</tspan></text>
<path transform="matrix(.72144,0,0,-.72144,5.4225695,200.45185)" stroke-width=".545" stroke-linecap="butt" stroke-miterlimit="10" stroke-linejoin="miter" fill="none" stroke="#000000" d="M 0 0 L 490.793 0 "/>
<text xml:space="preserve" transform="matrix(.72144 0 -0 .72144 -60.58703 577.9612)" font-size="10.9091" font-family="URWPalladioL" font-weight="bold"><tspan y="-506.999" x="93.489 102.57628 110.45265 119.53993 126.8163 131.05994">GROBID</tspan></text>
<text xml:space="preserve" transform="matrix(.72144 0 -0 .72144 -60.58703 577.9612)" font-size="10.9091" font-family="URWPalladioL"><tspan y="-506.999" x="167.914 174.00127 177.17581 180.73218 183.90673">Title</tspan></text>
<text xml:space="preserve" transform="matrix(.72144 0 -0 .72144 -60.58703 577.9612)" font-size="10.9091" font-family="TeXPalladioL"><tspan y="-506.999" x="222.44101 227.89556 233.3501 238.80464 244.25919 301.09559 306.55015 312.0047 317.45927 322.91383 403.99028">16196160180</tspan></text>
<text xml:space="preserve" transform="matrix(.72144 0 -0 .72144 -60.58703 577.9612)" font-size="10.9091" font-family="URWPalladioL"><tspan y="-506.999" x="409.44">.</tspan></text>
<text xml:space="preserve" transform="matrix(.72144 0 -0 .72144 -60.58703 577.9612)" font-size="10.9091" font-family="TeXPalladioL"><tspan y="-506.999" x="412.167 417.62156 453.4143">920</tspan></text>
<text xml:space="preserve" transform="matrix(.72144 0 -0 .72144 -60.58703 577.9612)" font-size="10.9091" font-family="URWPalladioL"><tspan y="-506.999" x="458.872">.</tspan></text>
<text xml:space="preserve" transform="matrix(.72144 0 -0 .72144 -60.58703 577.9612)" font-size="10.9091" font-family="TeXPalladioL"><tspan y="-506.999" x="461.6 467.05458 499.36735">910</tspan></text>
<text xml:space="preserve" transform="matrix(.72144 0 -0 .72144 -60.58703 577.9612)" font-size="10.9091" font-family="URWPalladioL"><tspan y="-506.999" x="504.825">.</tspan></text>
<text xml:space="preserve" transform="matrix(.72144 0 -0 .72144 -60.58703 577.9612)" font-size="10.9091" font-family="TeXPalladioL"><tspan y="-506.999" x="507.552 513.00656 549.3993">910</tspan></text>
<text xml:space="preserve" transform="matrix(.72144 0 -0 .72144 -60.58703 577.9612)" font-size="10.9091" font-family="URWPalladioL"><tspan y="-506.999" x="554.857">.</tspan></text>
<text xml:space="preserve" transform="matrix(.72144 0 -0 .72144 -60.58703 577.9612)" font-size="10.9091" font-family="TeXPalladioL"><tspan y="-506.999" x="557.584 563.0385">92</tspan></text>
<text xml:space="preserve" transform="matrix(.72144 0 -0 .72144 -60.58703 577.9612)" font-size="10.9091" font-family="URWPalladioL"><tspan y="-489.784" x="167.91397 176.00852 182.5867 186.14307 192.49216 198.44853">Author</tspan></text>
<text xml:space="preserve" transform="matrix(.72144 0 -0 .72144 -60.58703 577.9612)" font-size="10.9091" font-family="TeXPalladioL"><tspan y="-489.784" x="222.44098 227.89553 233.35007 238.80461 244.25916 301.09556 306.5501 312.00468 317.45924 322.9138 403.99024">19788195630</tspan></text>
<text xml:space="preserve" transform="matrix(.72144 0 -0 .72144 -60.58703 577.9612)" font-size="10.9091" font-family="URWPalladioL"><tspan y="-489.784" x="409.43998">.</tspan></text>
<text xml:space="preserve" transform="matrix(.72144 0 -0 .72144 -60.58703 577.9612)" font-size="10.9091" font-family="TeXPalladioL"><tspan y="-489.784" x="412.16697 417.62153 453.41429">540</tspan></text>
<text xml:space="preserve" transform="matrix(.72144 0 -0 .72144 -60.58703 577.9612)" font-size="10.9091" font-family="URWPalladioL"><tspan y="-489.784" x="458.87196">.</tspan></text>
<text xml:space="preserve" transform="matrix(.72144 0 -0 .72144 -60.58703 577.9612)" font-size="10.9091" font-family="TeXPalladioL"><tspan y="-489.784" x="461.59996 467.0545 499.36729">520</tspan></text>
<text xml:space="preserve" transform="matrix(.72144 0 -0 .72144 -60.58703 577.9612)" font-size="10.9091" font-family="URWPalladioL"><tspan y="-489.784" x="504.82496">.</tspan></text>
<text xml:space="preserve" transform="matrix(.72144 0 -0 .72144 -60.58703 577.9612)" font-size="10.9091" font-family="TeXPalladioL"><tspan y="-489.784" x="507.55195 513.0065 549.39926">520</tspan></text>
<text xml:space="preserve" transform="matrix(.72144 0 -0 .72144 -60.58703 577.9612)" font-size="10.9091" font-family="URWPalladioL"><tspan y="-489.784" x="554.85696">.</tspan></text>
<text xml:space="preserve" transform="matrix(.72144 0 -0 .72144 -60.58703 577.9612)" font-size="10.9091" font-family="TeXPalladioL"><tspan y="-489.784" x="557.5839 563.03848">53</tspan></text>
<text xml:space="preserve" transform="matrix(.72144 0 -0 .72144 -60.58703 577.9612)" font-size="10.9091" font-family="URWPalladioL"><tspan y="-472.568" x="167.91391 176.40119 182.43392 187.05937 190.61574 194.92484 200.37938 205.22303">Abstract</tspan></text>
<text xml:space="preserve" transform="matrix(.72144 0 -0 .72144 -60.58703 577.9612)" font-size="10.9091" font-family="TeXPalladioL"><tspan y="-472.568" x="222.44092 227.89546 233.35 238.80455 244.2591 301.0955 306.55006 312.0046 317.45918 322.91374 403.99018">19342187140</tspan></text>
<text xml:space="preserve" transform="matrix(.72144 0 -0 .72144 -60.58703 577.9612)" font-size="10.9091" font-family="URWPalladioL"><tspan y="-472.568" x="409.4399">.</tspan></text>
<text xml:space="preserve" transform="matrix(.72144 0 -0 .72144 -60.58703 577.9612)" font-size="10.9091" font-family="TeXPalladioL"><tspan y="-472.568" x="412.1669 417.62147 453.4142">820</tspan></text>
<text xml:space="preserve" transform="matrix(.72144 0 -0 .72144 -60.58703 577.9612)" font-size="10.9091" font-family="URWPalladioL"><tspan y="-472.568" x="458.8719">.</tspan></text>
<text xml:space="preserve" transform="matrix(.72144 0 -0 .72144 -60.58703 577.9612)" font-size="10.9091" font-family="TeXPalladioL"><tspan y="-472.568" x="461.59989 467.05445 499.36723">820</tspan></text>
<text xml:space="preserve" transform="matrix(.72144 0 -0 .72144 -60.58703 577.9612)" font-size="10.9091" font-family="URWPalladioL"><tspan y="-472.568" x="504.8249">.</tspan></text>
<text xml:space="preserve" transform="matrix(.72144 0 -0 .72144 -60.58703 577.9612)" font-size="10.9091" font-family="TeXPalladioL"><tspan y="-472.568" x="507.55189 513.0064 549.3992">810</tspan></text>
<text xml:space="preserve" transform="matrix(.72144 0 -0 .72144 -60.58703 577.9612)" font-size="10.9091" font-family="URWPalladioL"><tspan y="-472.568" x="554.8569">.</tspan></text>
<text xml:space="preserve" transform="matrix(.72144 0 -0 .72144 -60.58703 577.9612)" font-size="10.9091" font-family="TeXPalladioL"><tspan y="-472.568" x="557.58389 563.0384">83</tspan></text>
<text xml:space="preserve" transform="matrix(.72144 0 -0 .72144 -60.58703 577.9612)" font-size="10.9091" font-family="URWPalladioL"><tspan y="-455.353" x="167.91385 175.20113 180.42659 184.05933 189.28479 193.53934 198.7648 205.11389 209.95754">Reference</tspan></text>
<text xml:space="preserve" transform="matrix(.72144 0 -0 .72144 -60.58703 577.9612)" font-size="10.9091" font-family="TeXPalladioL"><tspan y="-455.353" x="222.44086 227.8954 233.34995 238.80449 244.25904 301.09544 306.55 312.00456 317.4591 322.91368 403.9901">40333360200</tspan></text>
<text xml:space="preserve" transform="matrix(.72144 0 -0 .72144 -60.58703 577.9612)" font-size="10.9091" font-family="URWPalladioL"><tspan y="-455.353" x="409.43986">.</tspan></text>
<text xml:space="preserve" transform="matrix(.72144 0 -0 .72144 -60.58703 577.9612)" font-size="10.9091" font-family="TeXPalladioL"><tspan y="-455.353" x="412.16685 417.6214 453.41416">820</tspan></text>
<text xml:space="preserve" transform="matrix(.72144 0 -0 .72144 -60.58703 577.9612)" font-size="10.9091" font-family="URWPalladioL"><tspan y="-455.353" x="458.87184">.</tspan></text>
<text xml:space="preserve" transform="matrix(.72144 0 -0 .72144 -60.58703 577.9612)" font-size="10.9091" font-family="TeXPalladioL"><tspan y="-455.353" x="461.59983 467.05439 499.36717">790</tspan></text>
<text xml:space="preserve" transform="matrix(.72144 0 -0 .72144 -60.58703 577.9612)" font-size="10.9091" font-family="URWPalladioL"><tspan y="-455.353" x="504.82484">.</tspan></text>
<text xml:space="preserve" transform="matrix(.72144 0 -0 .72144 -60.58703 577.9612)" font-size="10.9091" font-family="TeXPalladioL"><tspan y="-455.353" x="507.55183 513.00637 549.3991">790</tspan></text>
<text xml:space="preserve" transform="matrix(.72144 0 -0 .72144 -60.58703 577.9612)" font-size="10.9091" font-family="URWPalladioL"><tspan y="-455.353" x="554.8568">.</tspan></text>
<text xml:space="preserve" transform="matrix(.72144 0 -0 .72144 -60.58703 577.9612)" font-size="10.9091" font-family="TeXPalladioL"><tspan y="-455.353" x="557.5838 563.0383">80</tspan></text>
<text xml:space="preserve" transform="matrix(.72144 0 -0 .72144 -60.58703 577.9612)" font-size="10.9091" font-family="URWPalladioL"><tspan y="-438.137" x="167.91379 174.50289 179.95743 184.26653 189.72107 195.78653 200.09563 205.55017 212.10654">Paragraph</tspan></text>
<text xml:space="preserve" transform="matrix(.72144 0 -0 .72144 -60.58703 577.9612)" font-size="10.9091" font-family="TeXPalladioL"><tspan y="-438.137" x="222.4408 227.89534 233.34989 238.80443 244.25897 249.71352 301.09538 306.54994 312.0045 317.45906 322.9136 328.36817 403.99006">3612733587300</tspan></text>
<text xml:space="preserve" transform="matrix(.72144 0 -0 .72144 -60.58703 577.9612)" font-size="10.9091" font-family="URWPalladioL"><tspan y="-438.137" x="409.4398">.</tspan></text>
<text xml:space="preserve" transform="matrix(.72144 0 -0 .72144 -60.58703 577.9612)" font-size="10.9091" font-family="TeXPalladioL"><tspan y="-438.137" x="412.16679 417.62135 453.4141">900</tspan></text>
<text xml:space="preserve" transform="matrix(.72144 0 -0 .72144 -60.58703 577.9612)" font-size="10.9091" font-family="URWPalladioL"><tspan y="-438.137" x="458.87178">.</tspan></text>
<text xml:space="preserve" transform="matrix(.72144 0 -0 .72144 -60.58703 577.9612)" font-size="10.9091" font-family="TeXPalladioL"><tspan y="-438.137" x="461.59977 467.05433 499.3671">900</tspan></text>
<text xml:space="preserve" transform="matrix(.72144 0 -0 .72144 -60.58703 577.9612)" font-size="10.9091" font-family="URWPalladioL"><tspan y="-438.137" x="504.82478">.</tspan></text>
<text xml:space="preserve" transform="matrix(.72144 0 -0 .72144 -60.58703 577.9612)" font-size="10.9091" font-family="TeXPalladioL"><tspan y="-438.137" x="507.55177 513.0063 549.39907">890</tspan></text>
<text xml:space="preserve" transform="matrix(.72144 0 -0 .72144 -60.58703 577.9612)" font-size="10.9091" font-family="URWPalladioL"><tspan y="-438.137" x="554.85678">.</tspan></text>
<text xml:space="preserve" transform="matrix(.72144 0 -0 .72144 -60.58703 577.9612)" font-size="10.9091" font-family="TeXPalladioL"><tspan y="-438.137" x="557.58377 563.03829">91</tspan></text>
<text xml:space="preserve" transform="matrix(.72144 0 -0 .72144 -60.58703 577.9612)" font-size="10.9091" font-family="URWPalladioL"><tspan y="-420.922" x="167.91373 173.91373 179.13919 183.98284 187.5392 190.71375 196.67012">Section</tspan></text>
<text xml:space="preserve" transform="matrix(.72144 0 -0 .72144 -60.58703 577.9612)" font-size="10.9091" font-family="TeXPalladioL"><tspan y="-420.922" x="222.44074 227.89528 233.34983 238.80437 244.25891 249.71346 301.0953 306.54988 312.00444 317.45899 322.91355 328.3681 403.99">1630771630370</tspan></text>
<text xml:space="preserve" transform="matrix(.72144 0 -0 .72144 -60.58703 577.9612)" font-size="10.9091" font-family="URWPalladioL"><tspan y="-420.922" x="409.43974">.</tspan></text>
<text xml:space="preserve" transform="matrix(.72144 0 -0 .72144 -60.58703 577.9612)" font-size="10.9091" font-family="TeXPalladioL"><tspan y="-420.922" x="412.16673 417.62129 453.41404">770</tspan></text>
<text xml:space="preserve" transform="matrix(.72144 0 -0 .72144 -60.58703 577.9612)" font-size="10.9091" font-family="URWPalladioL"><tspan y="-420.922" x="458.8717">.</tspan></text>
<text xml:space="preserve" transform="matrix(.72144 0 -0 .72144 -60.58703 577.9612)" font-size="10.9091" font-family="TeXPalladioL"><tspan y="-420.922" x="461.5997 467.05427 499.36705">740</tspan></text>
<text xml:space="preserve" transform="matrix(.72144 0 -0 .72144 -60.58703 577.9612)" font-size="10.9091" font-family="URWPalladioL"><tspan y="-420.922" x="504.8247">.</tspan></text>
<text xml:space="preserve" transform="matrix(.72144 0 -0 .72144 -60.58703 577.9612)" font-size="10.9091" font-family="TeXPalladioL"><tspan y="-420.922" x="507.5517 513.0062 549.399">730</tspan></text>
<text xml:space="preserve" transform="matrix(.72144 0 -0 .72144 -60.58703 577.9612)" font-size="10.9091" font-family="URWPalladioL"><tspan y="-420.922" x="554.8567">.</tspan></text>
<text xml:space="preserve" transform="matrix(.72144 0 -0 .72144 -60.58703 577.9612)" font-size="10.9091" font-family="TeXPalladioL"><tspan y="-420.922" x="557.5837 563.0382">76</tspan></text>
<text xml:space="preserve" transform="matrix(.72144 0 -0 .72144 -60.58703 577.9612)" font-size="10.9091" font-family="URWPalladioL"><tspan y="-403.707" x="167.91367 175.64823 181.10277 187.65914 191.2155 194.39005 200.34642">Caption</tspan></text>
<text xml:space="preserve" transform="matrix(.72144 0 -0 .72144 -60.58703 577.9612)" font-size="10.9091" font-family="TeXPalladioL"><tspan y="-403.707" x="222.44068 227.89522 233.34976 238.8043 244.25885">90606</tspan></text>
<text fill="#0000ff" xml:space="preserve" transform="matrix(.72144 0 -0 .72144 -60.58703 577.9612)" font-size="10.9091" font-family="TeXPalladioL" font-weight="bold"><tspan y="-403.707" x="301.09867 306.55323 312.00779 317.46235 322.9169">62445</tspan></text>
<text xml:space="preserve" transform="matrix(.72144 0 -0 .72144 -60.58703 577.9612)" font-size="10.9091" font-family="TeXPalladioL"><tspan y="-403.707" x="403.98469">0</tspan></text>
<text xml:space="preserve" transform="matrix(.72144 0 -0 .72144 -60.58703 577.9612)" font-size="10.9091" font-family="URWPalladioL"><tspan y="-403.707" x="409.43968">.</tspan></text>
<text xml:space="preserve" transform="matrix(.72144 0 -0 .72144 -60.58703 577.9612)" font-size="10.9091" font-family="TeXPalladioL"><tspan y="-403.707" x="412.16667 417.62123 453.41398">570</tspan></text>
<text xml:space="preserve" transform="matrix(.72144 0 -0 .72144 -60.58703 577.9612)" font-size="10.9091" font-family="URWPalladioL"><tspan y="-403.707" x="458.87165">.</tspan></text>
<text xml:space="preserve" transform="matrix(.72144 0 -0 .72144 -60.58703 577.9612)" font-size="10.9091" font-family="TeXPalladioL"><tspan y="-403.707" x="461.59965 467.0542 499.36698">490</tspan></text>
<text xml:space="preserve" transform="matrix(.72144 0 -0 .72144 -60.58703 577.9612)" font-size="10.9091" font-family="URWPalladioL"><tspan y="-403.707" x="504.82466">.</tspan></text>
<text xml:space="preserve" transform="matrix(.72144 0 -0 .72144 -60.58703 577.9612)" font-size="10.9091" font-family="TeXPalladioL"><tspan y="-403.707" x="507.55165 513.00619 549.3989">470</tspan></text>
<text xml:space="preserve" transform="matrix(.72144 0 -0 .72144 -60.58703 577.9612)" font-size="10.9091" font-family="URWPalladioL"><tspan y="-403.707" x="554.8566">.</tspan></text>
<text xml:space="preserve" transform="matrix(.72144 0 -0 .72144 -60.58703 577.9612)" font-size="10.9091" font-family="TeXPalladioL"><tspan y="-403.707" x="557.5836 563.03817">51</tspan></text>
<text xml:space="preserve" transform="matrix(.72144 0 -0 .72144 -60.58703 577.9612)" font-size="10.9091" font-family="URWPalladioL"><tspan y="-386.491" x="167.9136 173.59725 179.05179 185.08452 188.25907">Table</tspan></text>
<text xml:space="preserve" transform="matrix(.72144 0 -0 .72144 -60.58703 577.9612)" font-size="10.9091" font-family="TeXPalladioL"><tspan y="-386.491" x="222.44062 227.89516 233.3497 238.80425 244.25879">16740</tspan></text>
<text fill="#0000ff" xml:space="preserve" transform="matrix(.72144 0 -0 .72144 -60.58703 577.9612)" font-size="10.9091" font-family="TeXPalladioL" font-weight="bold"><tspan y="-386.491" x="301.0986 306.55317 312.00773 317.46229">8633</tspan></text>
<text xml:space="preserve" transform="matrix(.72144 0 -0 .72144 -60.58703 577.9612)" font-size="10.9091" font-family="TeXPalladioL"><tspan y="-386.491" x="403.98463">0</tspan></text>
<text xml:space="preserve" transform="matrix(.72144 0 -0 .72144 -60.58703 577.9612)" font-size="10.9091" font-family="URWPalladioL"><tspan y="-386.491" x="409.4396">.</tspan></text>
<text xml:space="preserve" transform="matrix(.72144 0 -0 .72144 -60.58703 577.9612)" font-size="10.9091" font-family="TeXPalladioL"><tspan y="-386.491" x="412.1666 417.62117 453.4139">240</tspan></text>
<text xml:space="preserve" transform="matrix(.72144 0 -0 .72144 -60.58703 577.9612)" font-size="10.9091" font-family="URWPalladioL"><tspan y="-386.491" x="458.87159">.</tspan></text>
<text xml:space="preserve" transform="matrix(.72144 0 -0 .72144 -60.58703 577.9612)" font-size="10.9091" font-family="TeXPalladioL"><tspan y="-386.491" x="461.59959 467.05415 499.3669">230</tspan></text>
<text xml:space="preserve" transform="matrix(.72144 0 -0 .72144 -60.58703 577.9612)" font-size="10.9091" font-family="URWPalladioL"><tspan y="-386.491" x="504.8246">.</tspan></text>
<text xml:space="preserve" transform="matrix(.72144 0 -0 .72144 -60.58703 577.9612)" font-size="10.9091" font-family="TeXPalladioL"><tspan y="-386.491" x="507.55158 513.0061">23</tspan></text>
<text fill="#0000ff" xml:space="preserve" transform="matrix(.72144 0 -0 .72144 -60.58703 577.9612)" font-size="10.9091" font-family="TeXPalladioL" font-weight="bold"><tspan y="-386.491" x="549.40158">0</tspan></text>
<text fill="#0000ff" xml:space="preserve" transform="matrix(.72144 0 -0 .72144 -60.58703 577.9612)" font-size="10.9091" font-family="URWPalladioL" font-weight="bold"><tspan y="-386.491" x="554.85659">.</tspan></text>
<text fill="#0000ff" xml:space="preserve" transform="matrix(.72144 0 -0 .72144 -60.58703 577.9612)" font-size="10.9091" font-family="TeXPalladioL" font-weight="bold"><tspan y="-386.491" x="557.58358 563.0381">23</tspan></text>
<text xml:space="preserve" transform="matrix(.72144 0 -0 .72144 -60.58703 577.9612)" font-size="10.9091" font-family="URWPalladioL"><tspan y="-369.276" x="167.91355 174.57901 180.68811 187.2663 192.72084 196.2772 199.45175 205.40813">Equation</tspan></text>
<text xml:space="preserve" transform="matrix(.72144 0 -0 .72144 -60.58703 577.9612)" font-size="10.9091" font-family="TeXPalladioL"><tspan y="-369.276" x="222.44055 227.8951 233.34964 238.80419 244.25873 249.71327 301.09513 306.54969 312.00425 317.4588 322.91337 403.9898">142736965600</tspan></text>
<text xml:space="preserve" transform="matrix(.72144 0 -0 .72144 -60.58703 577.9612)" font-size="10.9091" font-family="URWPalladioL"><tspan y="-369.276" x="409.43955">.</tspan></text>
<text xml:space="preserve" transform="matrix(.72144 0 -0 .72144 -60.58703 577.9612)" font-size="10.9091" font-family="TeXPalladioL"><tspan y="-369.276" x="412.16654 417.6211 453.41386">260</tspan></text>
<text xml:space="preserve" transform="matrix(.72144 0 -0 .72144 -60.58703 577.9612)" font-size="10.9091" font-family="URWPalladioL"><tspan y="-369.276" x="458.87153">.</tspan></text>
<text xml:space="preserve" transform="matrix(.72144 0 -0 .72144 -60.58703 577.9612)" font-size="10.9091" font-family="TeXPalladioL"><tspan y="-369.276" x="461.59953 467.05409">25</tspan></text>
<text fill="#0000ff" xml:space="preserve" transform="matrix(.72144 0 -0 .72144 -60.58703 577.9612)" font-size="10.9091" font-family="TeXPalladioL" font-weight="bold"><tspan y="-369.276" x="499.3695">0</tspan></text>
<text fill="#0000ff" xml:space="preserve" transform="matrix(.72144 0 -0 .72144 -60.58703 577.9612)" font-size="10.9091" font-family="URWPalladioL" font-weight="bold"><tspan y="-369.276" x="504.8245">.</tspan></text>
<text fill="#0000ff" xml:space="preserve" transform="matrix(.72144 0 -0 .72144 -60.58703 577.9612)" font-size="10.9091" font-family="TeXPalladioL" font-weight="bold"><tspan y="-369.276" x="507.55149 513.00607">20</tspan></text>
<text fill="#0000ff" xml:space="preserve" transform="matrix(.72144 0 -0 .72144 -60.58703 577.9612)" font-size="10.9091" font-family="TeXPalladioL" font-weight="bold"><tspan y="-369.276" x="549.3988">0</tspan></text>
<text fill="#0000ff" xml:space="preserve" transform="matrix(.72144 0 -0 .72144 -60.58703 577.9612)" font-size="10.9091" font-family="URWPalladioL" font-weight="bold"><tspan y="-369.276" x="554.8565">.</tspan></text>
<text fill="#0000ff" xml:space="preserve" transform="matrix(.72144 0 -0 .72144 -60.58703 577.9612)" font-size="10.9091" font-family="TeXPalladioL" font-weight="bold"><tspan y="-369.276" x="557.5835 563.038">32</tspan></text>
<path transform="matrix(.72144,0,0,-.72144,5.4225695,316.1816)" stroke-width=".545" stroke-linecap="butt" stroke-miterlimit="10" stroke-linejoin="miter" fill="none" stroke="#000000" d="M 0 0 L 490.793 0 "/>
<text xml:space="preserve" transform="matrix(.72144 0 -0 .72144 -60.58703 577.9612)" font-size="10.9091" font-family="URWPalladioL" font-weight="bold"><tspan y="-346.584" x="93.489 100.15446 106.819919 111.06355 119.550838 124.39448">PdfAct</tspan></text>
<text xml:space="preserve" transform="matrix(.72144 0 -0 .72144 -60.58703 577.9612)" font-size="10.9091" font-family="URWPalladioL"><tspan y="-346.584" x="167.914 174.00127 177.17581 180.73218 183.90673">Title</tspan></text>
<text xml:space="preserve" transform="matrix(.72144 0 -0 .72144 -60.58703 577.9612)" font-size="10.9091" font-family="TeXPalladioL"><tspan y="-346.584" x="222.44101 227.89556 233.3501 238.80464 244.25919 301.09559 306.55015 312.0047 317.45927 322.91383 403.99028">17670168340</tspan></text>
<text xml:space="preserve" transform="matrix(.72144 0 -0 .72144 -60.58703 577.9612)" font-size="10.9091" font-family="URWPalladioL"><tspan y="-346.584" x="409.44">.</tspan></text>
<text xml:space="preserve" transform="matrix(.72144 0 -0 .72144 -60.58703 577.9612)" font-size="10.9091" font-family="TeXPalladioL"><tspan y="-346.584" x="412.167 417.62156 453.4143">850</tspan></text>
<text xml:space="preserve" transform="matrix(.72144 0 -0 .72144 -60.58703 577.9612)" font-size="10.9091" font-family="URWPalladioL"><tspan y="-346.584" x="458.872">.</tspan></text>
<text xml:space="preserve" transform="matrix(.72144 0 -0 .72144 -60.58703 577.9612)" font-size="10.9091" font-family="TeXPalladioL"><tspan y="-346.584" x="461.6 467.05458 499.36735">850</tspan></text>
<text xml:space="preserve" transform="matrix(.72144 0 -0 .72144 -60.58703 577.9612)" font-size="10.9091" font-family="URWPalladioL"><tspan y="-346.584" x="504.825">.</tspan></text>
<text xml:space="preserve" transform="matrix(.72144 0 -0 .72144 -60.58703 577.9612)" font-size="10.9091" font-family="TeXPalladioL"><tspan y="-346.584" x="507.552 513.00656 549.3993">850</tspan></text>
<text xml:space="preserve" transform="matrix(.72144 0 -0 .72144 -60.58703 577.9612)" font-size="10.9091" font-family="URWPalladioL"><tspan y="-346.584" x="554.857">.</tspan></text>
<text xml:space="preserve" transform="matrix(.72144 0 -0 .72144 -60.58703 577.9612)" font-size="10.9091" font-family="TeXPalladioL"><tspan y="-346.584" x="557.584 563.0385">86</tspan></text>
<text xml:space="preserve" transform="matrix(.72144 0 -0 .72144 -60.58703 577.9612)" font-size="10.9091" font-family="URWPalladioL"><tspan y="-329.36903" x="167.91397 176.00852 182.5867 186.14307 192.49216 198.44853">Author</tspan></text>
<text xml:space="preserve" transform="matrix(.72144 0 -0 .72144 -60.58703 577.9612)" font-size="10.9091" font-family="TeXPalladioL"><tspan y="-329.36903" x="222.44098 227.89553 233.35007 238.80461 244.25916">13110</tspan></text>
<text fill="#0000ff" xml:space="preserve" transform="matrix(.72144 0 -0 .72144 -60.58703 577.9612)" font-size="10.9091" font-family="TeXPalladioL" font-weight="bold"><tspan y="-329.36903" x="301.09898 306.55354 312.0081 317.46266">2187</tspan></text>
<text xml:space="preserve" transform="matrix(.72144 0 -0 .72144 -60.58703 577.9612)" font-size="10.9091" font-family="TeXPalladioL"><tspan y="-329.36903" x="403.98597">0</tspan></text>
<text xml:space="preserve" transform="matrix(.72144 0 -0 .72144 -60.58703 577.9612)" font-size="10.9091" font-family="URWPalladioL"><tspan y="-329.36903" x="409.43998">.</tspan></text>
<text xml:space="preserve" transform="matrix(.72144 0 -0 .72144 -60.58703 577.9612)" font-size="10.9091" font-family="TeXPalladioL"><tspan y="-329.36903" x="412.16697 417.62153 453.41429">140</tspan></text>
<text xml:space="preserve" transform="matrix(.72144 0 -0 .72144 -60.58703 577.9612)" font-size="10.9091" font-family="URWPalladioL"><tspan y="-329.36903" x="458.87196">.</tspan></text>
<text xml:space="preserve" transform="matrix(.72144 0 -0 .72144 -60.58703 577.9612)" font-size="10.9091" font-family="TeXPalladioL"><tspan y="-329.36903" x="461.59996 467.0545 499.36729">130</tspan></text>
<text xml:space="preserve" transform="matrix(.72144 0 -0 .72144 -60.58703 577.9612)" font-size="10.9091" font-family="URWPalladioL"><tspan y="-329.36903" x="504.82496">.</tspan></text>
<text xml:space="preserve" transform="matrix(.72144 0 -0 .72144 -60.58703 577.9612)" font-size="10.9091" font-family="TeXPalladioL"><tspan y="-329.36903" x="507.55195 513.0065 549.39926">120</tspan></text>
<text xml:space="preserve" transform="matrix(.72144 0 -0 .72144 -60.58703 577.9612)" font-size="10.9091" font-family="URWPalladioL"><tspan y="-329.36903" x="554.85696">.</tspan></text>
<text xml:space="preserve" transform="matrix(.72144 0 -0 .72144 -60.58703 577.9612)" font-size="10.9091" font-family="TeXPalladioL"><tspan y="-329.36903" x="557.5839 563.03848">18</tspan></text>
<text xml:space="preserve" transform="matrix(.72144 0 -0 .72144 -60.58703 577.9612)" font-size="10.9091" font-family="URWPalladioL"><tspan y="-312.153" x="167.91391 176.40119 182.43392 187.05937 190.61574 194.92484 200.37938 205.22303">Abstract</tspan></text>
<text xml:space="preserve" transform="matrix(.72144 0 -0 .72144 -60.58703 577.9612)" font-size="10.9091" font-family="TeXPalladioL"><tspan y="-312.153" x="222.44092 227.89546 233.35 238.80455 244.2591">21470</tspan></text>
<text fill="#0000ff" xml:space="preserve" transform="matrix(.72144 0 -0 .72144 -60.58703 577.9612)" font-size="10.9091" font-family="TeXPalladioL" font-weight="bold"><tspan y="-312.153" x="301.0989 306.55348 312.00804 317.4626">4683</tspan></text>
<text xml:space="preserve" transform="matrix(.72144 0 -0 .72144 -60.58703 577.9612)" font-size="10.9091" font-family="TeXPalladioL"><tspan y="-312.153" x="403.9859">0</tspan></text>
<text xml:space="preserve" transform="matrix(.72144 0 -0 .72144 -60.58703 577.9612)" font-size="10.9091" font-family="URWPalladioL"><tspan y="-312.153" x="409.4399">.</tspan></text>
<text xml:space="preserve" transform="matrix(.72144 0 -0 .72144 -60.58703 577.9612)" font-size="10.9091" font-family="TeXPalladioL"><tspan y="-312.153" x="412.1669 417.62147 453.4142">170</tspan></text>
<text xml:space="preserve" transform="matrix(.72144 0 -0 .72144 -60.58703 577.9612)" font-size="10.9091" font-family="URWPalladioL"><tspan y="-312.153" x="458.8719">.</tspan></text>
<text xml:space="preserve" transform="matrix(.72144 0 -0 .72144 -60.58703 577.9612)" font-size="10.9091" font-family="TeXPalladioL"><tspan y="-312.153" x="461.59989 467.05445 499.36723">160</tspan></text>
<text xml:space="preserve" transform="matrix(.72144 0 -0 .72144 -60.58703 577.9612)" font-size="10.9091" font-family="URWPalladioL"><tspan y="-312.153" x="504.8249">.</tspan></text>
<text xml:space="preserve" transform="matrix(.72144 0 -0 .72144 -60.58703 577.9612)" font-size="10.9091" font-family="TeXPalladioL"><tspan y="-312.153" x="507.55189 513.0064 549.3992">150</tspan></text>
<text xml:space="preserve" transform="matrix(.72144 0 -0 .72144 -60.58703 577.9612)" font-size="10.9091" font-family="URWPalladioL"><tspan y="-312.153" x="554.8569">.</tspan></text>
<text xml:space="preserve" transform="matrix(.72144 0 -0 .72144 -60.58703 577.9612)" font-size="10.9091" font-family="TeXPalladioL"><tspan y="-312.153" x="557.58389 563.0384">20</tspan></text>
<text xml:space="preserve" transform="matrix(.72144 0 -0 .72144 -60.58703 577.9612)" font-size="10.9091" font-family="URWPalladioL"><tspan y="-294.93803" x="167.91385 175.20113 180.42659 184.05933 189.28479 193.53934 198.7648 205.11389 209.95754">Reference</tspan></text>
<text xml:space="preserve" transform="matrix(.72144 0 -0 .72144 -60.58703 577.9612)" font-size="10.9091" font-family="TeXPalladioL"><tspan y="-294.93803" x="222.44086 227.8954 233.34995 238.80449 244.25904">30263</tspan></text>
<text fill="#0000ff" xml:space="preserve" transform="matrix(.72144 0 -0 .72144 -60.58703 577.9612)" font-size="10.9091" font-family="TeXPalladioL" font-weight="bold"><tspan y="-294.93803" x="301.09886 306.5534 312.00798 317.46253 322.91709">12705</tspan></text>
<text xml:space="preserve" transform="matrix(.72144 0 -0 .72144 -60.58703 577.9612)" font-size="10.9091" font-family="TeXPalladioL"><tspan y="-294.93803" x="403.98585">0</tspan></text>
<text xml:space="preserve" transform="matrix(.72144 0 -0 .72144 -60.58703 577.9612)" font-size="10.9091" font-family="URWPalladioL"><tspan y="-294.93803" x="409.43986">.</tspan></text>
<text xml:space="preserve" transform="matrix(.72144 0 -0 .72144 -60.58703 577.9612)" font-size="10.9091" font-family="TeXPalladioL"><tspan y="-294.93803" x="412.16685 417.6214 453.41416">190</tspan></text>
<text xml:space="preserve" transform="matrix(.72144 0 -0 .72144 -60.58703 577.9612)" font-size="10.9091" font-family="URWPalladioL"><tspan y="-294.93803" x="458.87184">.</tspan></text>
<text xml:space="preserve" transform="matrix(.72144 0 -0 .72144 -60.58703 577.9612)" font-size="10.9091" font-family="TeXPalladioL"><tspan y="-294.93803" x="461.59983 467.05439 499.36717">150</tspan></text>
<text xml:space="preserve" transform="matrix(.72144 0 -0 .72144 -60.58703 577.9612)" font-size="10.9091" font-family="URWPalladioL"><tspan y="-294.93803" x="504.82484">.</tspan></text>
<text xml:space="preserve" transform="matrix(.72144 0 -0 .72144 -60.58703 577.9612)" font-size="10.9091" font-family="TeXPalladioL"><tspan y="-294.93803" x="507.55183 513.00637 549.3991">170</tspan></text>
<text xml:space="preserve" transform="matrix(.72144 0 -0 .72144 -60.58703 577.9612)" font-size="10.9091" font-family="URWPalladioL"><tspan y="-294.93803" x="554.8568">.</tspan></text>
<text xml:space="preserve" transform="matrix(.72144 0 -0 .72144 -60.58703 577.9612)" font-size="10.9091" font-family="TeXPalladioL"><tspan y="-294.93803" x="557.5838 563.0383">20</tspan></text>
<text xml:space="preserve" transform="matrix(.72144 0 -0 .72144 -60.58703 577.9612)" font-size="10.9091" font-family="URWPalladioL"><tspan y="-277.72203" x="167.91379 174.50289 179.95743 184.26653 189.72107 195.78653 200.09563 205.55017 212.10654">Paragraph</tspan></text>
<text xml:space="preserve" transform="matrix(.72144 0 -0 .72144 -60.58703 577.9612)" font-size="10.9091" font-family="TeXPalladioL"><tspan y="-277.72203" x="222.4408 227.89534 233.34989 238.80443 244.25897 249.71352 301.09538 306.54994 312.0045 317.45906 322.9136 328.36817 403.99006">3613183579050</tspan></text>
<text xml:space="preserve" transform="matrix(.72144 0 -0 .72144 -60.58703 577.9612)" font-size="10.9091" font-family="URWPalladioL"><tspan y="-277.72203" x="409.4398">.</tspan></text>
<text xml:space="preserve" transform="matrix(.72144 0 -0 .72144 -60.58703 577.9612)" font-size="10.9091" font-family="TeXPalladioL"><tspan y="-277.72203" x="412.16679 417.62135 453.4141">850</tspan></text>
<text xml:space="preserve" transform="matrix(.72144 0 -0 .72144 -60.58703 577.9612)" font-size="10.9091" font-family="URWPalladioL"><tspan y="-277.72203" x="458.87178">.</tspan></text>
<text xml:space="preserve" transform="matrix(.72144 0 -0 .72144 -60.58703 577.9612)" font-size="10.9091" font-family="TeXPalladioL"><tspan y="-277.72203" x="461.59977 467.05433 499.3671">850</tspan></text>
<text xml:space="preserve" transform="matrix(.72144 0 -0 .72144 -60.58703 577.9612)" font-size="10.9091" font-family="URWPalladioL"><tspan y="-277.72203" x="504.82478">.</tspan></text>
<text xml:space="preserve" transform="matrix(.72144 0 -0 .72144 -60.58703 577.9612)" font-size="10.9091" font-family="TeXPalladioL"><tspan y="-277.72203" x="507.55177 513.0063 549.39907">800</tspan></text>
<text xml:space="preserve" transform="matrix(.72144 0 -0 .72144 -60.58703 577.9612)" font-size="10.9091" font-family="URWPalladioL"><tspan y="-277.72203" x="554.85678">.</tspan></text>
<text xml:space="preserve" transform="matrix(.72144 0 -0 .72144 -60.58703 577.9612)" font-size="10.9091" font-family="TeXPalladioL"><tspan y="-277.72203" x="557.58377 563.03829">89</tspan></text>
<text xml:space="preserve" transform="matrix(.72144 0 -0 .72144 -60.58703 577.9612)" font-size="10.9091" font-family="URWPalladioL"><tspan y="-260.50703" x="167.91373 173.91373 179.13919 183.98284 187.5392 190.71375 196.67012">Section</tspan></text>
<text xml:space="preserve" transform="matrix(.72144 0 -0 .72144 -60.58703 577.9612)" font-size="10.9091" font-family="TeXPalladioL"><tspan y="-260.50703" x="222.44074 227.89528 233.34983 238.80437 244.25891 249.71346 301.0953 306.54988 312.00444 317.45899 322.91355 403.99">129361876050</tspan></text>
<text xml:space="preserve" transform="matrix(.72144 0 -0 .72144 -60.58703 577.9612)" font-size="10.9091" font-family="URWPalladioL"><tspan y="-260.50703" x="409.43974">.</tspan></text>
<text xml:space="preserve" transform="matrix(.72144 0 -0 .72144 -60.58703 577.9612)" font-size="10.9091" font-family="TeXPalladioL"><tspan y="-260.50703" x="412.16673 417.62129 453.41404">210</tspan></text>
<text xml:space="preserve" transform="matrix(.72144 0 -0 .72144 -60.58703 577.9612)" font-size="10.9091" font-family="URWPalladioL"><tspan y="-260.50703" x="458.8717">.</tspan></text>
<text xml:space="preserve" transform="matrix(.72144 0 -0 .72144 -60.58703 577.9612)" font-size="10.9091" font-family="TeXPalladioL"><tspan y="-260.50703" x="461.5997 467.05427 499.36705">160</tspan></text>
<text xml:space="preserve" transform="matrix(.72144 0 -0 .72144 -60.58703 577.9612)" font-size="10.9091" font-family="URWPalladioL"><tspan y="-260.50703" x="504.8247">.</tspan></text>
<text xml:space="preserve" transform="matrix(.72144 0 -0 .72144 -60.58703 577.9612)" font-size="10.9091" font-family="TeXPalladioL"><tspan y="-260.50703" x="507.5517 513.0062 549.399">120</tspan></text>
<text xml:space="preserve" transform="matrix(.72144 0 -0 .72144 -60.58703 577.9612)" font-size="10.9091" font-family="URWPalladioL"><tspan y="-260.50703" x="554.8567">.</tspan></text>
<text xml:space="preserve" transform="matrix(.72144 0 -0 .72144 -60.58703 577.9612)" font-size="10.9091" font-family="TeXPalladioL"><tspan y="-260.50703" x="557.5837 563.0382">25</tspan></text>
<text xml:space="preserve" transform="matrix(.72144 0 -0 .72144 -60.58703 577.9612)" font-size="10.9091" font-family="URWPalladioL"><tspan y="-243.29102" x="167.91367 175.64823 181.10277 187.65914 191.2155 194.39005 200.34642">Caption</tspan></text>
<text xml:space="preserve" transform="matrix(.72144 0 -0 .72144 -60.58703 577.9612)" font-size="10.9091" font-family="TeXPalladioL"><tspan y="-243.29102" x="222.44068 227.89522 233.34976 238.8043 244.25885">83435</tspan></text>
<text fill="#0000ff" xml:space="preserve" transform="matrix(.72144 0 -0 .72144 -60.58703 577.9612)" font-size="10.9091" font-family="TeXPalladioL" font-weight="bold"><tspan y="-243.29102" x="301.09867 306.55323 312.00779 317.46235 322.9169">53314</tspan></text>
<text xml:space="preserve" transform="matrix(.72144 0 -0 .72144 -60.58703 577.9612)" font-size="10.9091" font-family="TeXPalladioL"><tspan y="-243.29102" x="403.98567">0</tspan></text>
<text xml:space="preserve" transform="matrix(.72144 0 -0 .72144 -60.58703 577.9612)" font-size="10.9091" font-family="URWPalladioL"><tspan y="-243.29102" x="409.43968">.</tspan></text>
<text xml:space="preserve" transform="matrix(.72144 0 -0 .72144 -60.58703 577.9612)" font-size="10.9091" font-family="TeXPalladioL"><tspan y="-243.29102" x="412.16667 417.62123 453.41398">450</tspan></text>
<text xml:space="preserve" transform="matrix(.72144 0 -0 .72144 -60.58703 577.9612)" font-size="10.9091" font-family="URWPalladioL"><tspan y="-243.29102" x="458.87165">.</tspan></text>
<text xml:space="preserve" transform="matrix(.72144 0 -0 .72144 -60.58703 577.9612)" font-size="10.9091" font-family="TeXPalladioL"><tspan y="-243.29102" x="461.59965 467.0542 499.36698">450</tspan></text>
<text xml:space="preserve" transform="matrix(.72144 0 -0 .72144 -60.58703 577.9612)" font-size="10.9091" font-family="URWPalladioL"><tspan y="-243.29102" x="504.82466">.</tspan></text>
<text xml:space="preserve" transform="matrix(.72144 0 -0 .72144 -60.58703 577.9612)" font-size="10.9091" font-family="TeXPalladioL"><tspan y="-243.29102" x="507.55165 513.00619 549.3989">400</tspan></text>
<text xml:space="preserve" transform="matrix(.72144 0 -0 .72144 -60.58703 577.9612)" font-size="10.9091" font-family="URWPalladioL"><tspan y="-243.29102" x="554.8566">.</tspan></text>
<text xml:space="preserve" transform="matrix(.72144 0 -0 .72144 -60.58703 577.9612)" font-size="10.9091" font-family="TeXPalladioL"><tspan y="-243.29102" x="557.5836 563.03817">52</tspan></text>
<text xml:space="preserve" transform="matrix(.72144 0 -0 .72144 -60.58703 577.9612)" font-size="10.9091" font-family="URWPalladioL"><tspan y="-226.07602" x="167.9136 173.97907 179.93544 185.89182 189.44818 194.67365">Footer</tspan></text>
<text xml:space="preserve" transform="matrix(.72144 0 -0 .72144 -60.58703 577.9612)" font-size="10.9091" font-family="TeXPalladioL"><tspan y="-226.07602" x="222.44062 227.89516 233.3497 238.80425 244.25879 301.09519 306.54975 312.0043 317.45887 322.91343 403.98988">32457262520</tspan></text>
<text xml:space="preserve" transform="matrix(.72144 0 -0 .72144 -60.58703 577.9612)" font-size="10.9091" font-family="URWPalladioL"><tspan y="-226.07602" x="409.4396">.</tspan></text>
<text xml:space="preserve" transform="matrix(.72144 0 -0 .72144 -60.58703 577.9612)" font-size="10.9091" font-family="TeXPalladioL"><tspan y="-226.07602" x="412.1666 417.62117 453.4139">230</tspan></text>
<text xml:space="preserve" transform="matrix(.72144 0 -0 .72144 -60.58703 577.9612)" font-size="10.9091" font-family="URWPalladioL"><tspan y="-226.07602" x="458.87159">.</tspan></text>
<text xml:space="preserve" transform="matrix(.72144 0 -0 .72144 -60.58703 577.9612)" font-size="10.9091" font-family="TeXPalladioL"><tspan y="-226.07602" x="461.59959 467.05415 499.3669">200</tspan></text>
<text xml:space="preserve" transform="matrix(.72144 0 -0 .72144 -60.58703 577.9612)" font-size="10.9091" font-family="URWPalladioL"><tspan y="-226.07602" x="504.8246">.</tspan></text>
<text xml:space="preserve" transform="matrix(.72144 0 -0 .72144 -60.58703 577.9612)" font-size="10.9091" font-family="TeXPalladioL"><tspan y="-226.07602" x="507.55158 513.0061 549.39889">250</tspan></text>
<text xml:space="preserve" transform="matrix(.72144 0 -0 .72144 -60.58703 577.9612)" font-size="10.9091" font-family="URWPalladioL"><tspan y="-226.07602" x="554.85659">.</tspan></text>
<text xml:space="preserve" transform="matrix(.72144 0 -0 .72144 -60.58703 577.9612)" font-size="10.9091" font-family="TeXPalladioL"><tspan y="-226.07602" x="557.58358 563.0381">16</tspan></text>
<path transform="matrix(.72144,0,0,-.72144,5.4225695,419.49183)" stroke-width=".545" stroke-linecap="butt" stroke-miterlimit="10" stroke-linejoin="miter" fill="none" stroke="#000000" d="M 0 0 L 490.793 0 "/>
<text xml:space="preserve" transform="matrix(.72144 0 -0 .72144 -60.58703 577.9612)" font-size="10.9091" font-family="URWPalladioL" font-weight="bold"><tspan y="-203.385" x="93.489 100.15446 106.21992 117.12901 123.79447 130.45993 139.54721">PyMuPDF</tspan></text>
<text xml:space="preserve" transform="matrix(.72144 0 -0 .72144 -60.58703 577.9612)" font-size="10.9091" font-family="URWPalladioL"><tspan y="-203.385" x="167.914 174.5031 179.95764 184.26674 189.72129 195.78675 200.09584 205.55039 212.10675">Paragraph</tspan></text>
<text xml:space="preserve" transform="matrix(.72144 0 -0 .72144 -60.58703 577.9612)" font-size="10.9091" font-family="TeXPalladioL"><tspan y="-203.385" x="222.44101 227.89556 233.3501 238.80464 244.25919 249.71373 301.09559 306.55015 312.0047 317.45927 322.91383 328.36839 403.99028">3396502583830</tspan></text>
<text xml:space="preserve" transform="matrix(.72144 0 -0 .72144 -60.58703 577.9612)" font-size="10.9091" font-family="URWPalladioL"><tspan y="-203.385" x="409.44">.</tspan></text>
<text xml:space="preserve" transform="matrix(.72144 0 -0 .72144 -60.58703 577.9612)" font-size="10.9091" font-family="TeXPalladioL"><tspan y="-203.385" x="412.167 417.62156 453.4143">550</tspan></text>
<text xml:space="preserve" transform="matrix(.72144 0 -0 .72144 -60.58703 577.9612)" font-size="10.9091" font-family="URWPalladioL"><tspan y="-203.385" x="458.872">.</tspan></text>
<text xml:space="preserve" transform="matrix(.72144 0 -0 .72144 -60.58703 577.9612)" font-size="10.9091" font-family="TeXPalladioL"><tspan y="-203.385" x="461.6 467.05458">51</tspan></text>
<text fill="#0000ff" xml:space="preserve" transform="matrix(.72144 0 -0 .72144 -60.58703 577.9612)" font-size="10.9091" font-family="TeXPalladioL" font-weight="bold"><tspan y="-203.385" x="499.37">0</tspan></text>
<text fill="#0000ff" xml:space="preserve" transform="matrix(.72144 0 -0 .72144 -60.58703 577.9612)" font-size="10.9091" font-family="URWPalladioL" font-weight="bold"><tspan y="-203.385" x="504.82499">.</tspan></text>
<text fill="#0000ff" xml:space="preserve" transform="matrix(.72144 0 -0 .72144 -60.58703 577.9612)" font-size="10.9091" font-family="TeXPalladioL" font-weight="bold"><tspan y="-203.385" x="507.55198 513.00656">41</tspan></text>
<text fill="#0000ff" xml:space="preserve" transform="matrix(.72144 0 -0 .72144 -60.58703 577.9612)" font-size="10.9091" font-family="TeXPalladioL" font-weight="bold"><tspan y="-203.385" x="549.3993">0</tspan></text>
<text fill="#0000ff" xml:space="preserve" transform="matrix(.72144 0 -0 .72144 -60.58703 577.9612)" font-size="10.9091" font-family="URWPalladioL" font-weight="bold"><tspan y="-203.385" x="554.857">.</tspan></text>
<text fill="#0000ff" xml:space="preserve" transform="matrix(.72144 0 -0 .72144 -60.58703 577.9612)" font-size="10.9091" font-family="TeXPalladioL" font-weight="bold"><tspan y="-203.385" x="557.584 563.0385">65</tspan></text>
<path transform="matrix(.72144,0,0,-.72144,5.4225695,435.86204)" stroke-width=".545" stroke-linecap="butt" stroke-miterlimit="10" stroke-linejoin="miter" fill="none" stroke="#000000" d="M 0 0 L 490.793 0 "/>
<text xml:space="preserve" transform="matrix(.72144 0 -0 .72144 -60.58703 577.9612)" font-size="10.9091" font-family="URWPalladioL" font-weight="bold"><tspan y="-180.693" x="93.489 101.36537 106.81992 111.06356 117.72902 123.18357 126.8163 131.05994 136.51448 141.35813">RefExtract</tspan></text>
<text xml:space="preserve" transform="matrix(.72144 0 -0 .72144 -60.58703 577.9612)" font-size="10.9091" font-family="URWPalladioL"><tspan y="-180.693" x="167.914 175.20128 180.42675 184.05948 189.28495 193.53949 198.76496 205.11405 209.95769">Reference</tspan></text>
<text xml:space="preserve" transform="matrix(.72144 0 -0 .72144 -60.58703 577.9612)" font-size="10.9091" font-family="TeXPalladioL"><tspan y="-180.693" x="222.44101 227.89556 233.3501 238.80464 244.25919 301.09559 306.55015 312.0047 317.45927 322.91383 403.99028">40333384050</tspan></text>
<text xml:space="preserve" transform="matrix(.72144 0 -0 .72144 -60.58703 577.9612)" font-size="10.9091" font-family="URWPalladioL"><tspan y="-180.693" x="409.44">.</tspan></text>
<text xml:space="preserve" transform="matrix(.72144 0 -0 .72144 -60.58703 577.9612)" font-size="10.9091" font-family="TeXPalladioL"><tspan y="-180.693" x="412.167 417.62156 453.4143">550</tspan></text>
<text xml:space="preserve" transform="matrix(.72144 0 -0 .72144 -60.58703 577.9612)" font-size="10.9091" font-family="URWPalladioL"><tspan y="-180.693" x="458.872">.</tspan></text>
<text xml:space="preserve" transform="matrix(.72144 0 -0 .72144 -60.58703 577.9612)" font-size="10.9091" font-family="TeXPalladioL"><tspan y="-180.693" x="461.6 467.05458 499.36735">490</tspan></text>
<text xml:space="preserve" transform="matrix(.72144 0 -0 .72144 -60.58703 577.9612)" font-size="10.9091" font-family="URWPalladioL"><tspan y="-180.693" x="504.825">.</tspan></text>
<text xml:space="preserve" transform="matrix(.72144 0 -0 .72144 -60.58703 577.9612)" font-size="10.9091" font-family="TeXPalladioL"><tspan y="-180.693" x="507.552 513.00656 549.3993">440</tspan></text>
<text xml:space="preserve" transform="matrix(.72144 0 -0 .72144 -60.58703 577.9612)" font-size="10.9091" font-family="URWPalladioL"><tspan y="-180.693" x="554.857">.</tspan></text>
<text xml:space="preserve" transform="matrix(.72144 0 -0 .72144 -60.58703 577.9612)" font-size="10.9091" font-family="TeXPalladioL"><tspan y="-180.693" x="557.584 563.0385">55</tspan></text>
<path transform="matrix(.72144,0,0,-.72144,5.4225695,452.23295)" stroke-width=".545" stroke-linecap="butt" stroke-miterlimit="10" stroke-linejoin="miter" fill="none" stroke="#000000" d="M 0 0 L 490.793 0 "/>
<text xml:space="preserve" transform="matrix(.72144 0 -0 .72144 -60.58703 577.9612)" font-size="10.9091" font-family="URWPalladioL" font-weight="bold"><tspan y="-158.002" x="93.489 100.15446 104.9981 108.63083 114.08538 120.75084 125.59448 134.22357 140.88904 146.34358 150.58722 155.43087">ScienceParse</tspan></text>
<text xml:space="preserve" transform="matrix(.72144 0 -0 .72144 -60.58703 577.9612)" font-size="10.9091" font-family="URWPalladioL"><tspan y="-158.002" x="167.914 174.00127 177.17581 180.73218 183.90673">Title</tspan></text>
<text xml:space="preserve" transform="matrix(.72144 0 -0 .72144 -60.58703 577.9612)" font-size="10.9091" font-family="TeXPalladioL"><tspan y="-158.002" x="222.44101 227.89556 233.3501 238.80464 244.25919 301.09559 306.55015 312.0047 317.45927 322.91383 403.99028">11696116870</tspan></text>
<text xml:space="preserve" transform="matrix(.72144 0 -0 .72144 -60.58703 577.9612)" font-size="10.9091" font-family="URWPalladioL"><tspan y="-158.002" x="409.44">.</tspan></text>
<text xml:space="preserve" transform="matrix(.72144 0 -0 .72144 -60.58703 577.9612)" font-size="10.9091" font-family="TeXPalladioL"><tspan y="-158.002" x="412.167 417.62156 453.4143">790</tspan></text>
<text xml:space="preserve" transform="matrix(.72144 0 -0 .72144 -60.58703 577.9612)" font-size="10.9091" font-family="URWPalladioL"><tspan y="-158.002" x="458.872">.</tspan></text>
<text xml:space="preserve" transform="matrix(.72144 0 -0 .72144 -60.58703 577.9612)" font-size="10.9091" font-family="TeXPalladioL"><tspan y="-158.002" x="461.6 467.05458 499.36735">700</tspan></text>
<text xml:space="preserve" transform="matrix(.72144 0 -0 .72144 -60.58703 577.9612)" font-size="10.9091" font-family="URWPalladioL"><tspan y="-158.002" x="504.825">.</tspan></text>
<text xml:space="preserve" transform="matrix(.72144 0 -0 .72144 -60.58703 577.9612)" font-size="10.9091" font-family="TeXPalladioL"><tspan y="-158.002" x="507.552 513.00656 549.3993">700</tspan></text>
<text xml:space="preserve" transform="matrix(.72144 0 -0 .72144 -60.58703 577.9612)" font-size="10.9091" font-family="URWPalladioL"><tspan y="-158.002" x="554.857">.</tspan></text>
<text xml:space="preserve" transform="matrix(.72144 0 -0 .72144 -60.58703 577.9612)" font-size="10.9091" font-family="TeXPalladioL"><tspan y="-158.002" x="557.584 563.0385">70</tspan></text>
<text xml:space="preserve" transform="matrix(.72144 0 -0 .72144 -60.58703 577.9612)" font-size="10.9091" font-family="URWPalladioL"><tspan y="-140.786" x="167.91397 176.00852 182.5867 186.14307 192.49216 198.44853">Author</tspan></text>
<text xml:space="preserve" transform="matrix(.72144 0 -0 .72144 -60.58703 577.9612)" font-size="10.9091" font-family="TeXPalladioL"><tspan y="-140.786" x="222.44098 227.89553 233.35007">471</tspan></text>
<text fill="#0000ff" xml:space="preserve" transform="matrix(.72144 0 -0 .72144 -60.58703 577.9612)" font-size="10.9091" font-family="TeXPalladioL" font-weight="bold"><tspan y="-140.786" x="301.09898 306.55354 312.0081">471</tspan></text>
<text xml:space="preserve" transform="matrix(.72144 0 -0 .72144 -60.58703 577.9612)" font-size="10.9091" font-family="TeXPalladioL"><tspan y="-140.786" x="403.98597">0</tspan></text>
<text xml:space="preserve" transform="matrix(.72144 0 -0 .72144 -60.58703 577.9612)" font-size="10.9091" font-family="URWPalladioL"><tspan y="-140.786" x="409.43998">.</tspan></text>
<text xml:space="preserve" transform="matrix(.72144 0 -0 .72144 -60.58703 577.9612)" font-size="10.9091" font-family="TeXPalladioL"><tspan y="-140.786" x="412.16697 417.62153 453.41429">540</tspan></text>
<text xml:space="preserve" transform="matrix(.72144 0 -0 .72144 -60.58703 577.9612)" font-size="10.9091" font-family="URWPalladioL"><tspan y="-140.786" x="458.87196">.</tspan></text>
<text xml:space="preserve" transform="matrix(.72144 0 -0 .72144 -60.58703 577.9612)" font-size="10.9091" font-family="TeXPalladioL"><tspan y="-140.786" x="461.59996 467.0545 499.36729">520</tspan></text>
<text xml:space="preserve" transform="matrix(.72144 0 -0 .72144 -60.58703 577.9612)" font-size="10.9091" font-family="URWPalladioL"><tspan y="-140.786" x="504.82496">.</tspan></text>
<text xml:space="preserve" transform="matrix(.72144 0 -0 .72144 -60.58703 577.9612)" font-size="10.9091" font-family="TeXPalladioL"><tspan y="-140.786" x="507.55195 513.0065 549.39926">520</tspan></text>
<text xml:space="preserve" transform="matrix(.72144 0 -0 .72144 -60.58703 577.9612)" font-size="10.9091" font-family="URWPalladioL"><tspan y="-140.786" x="554.85696">.</tspan></text>
<text xml:space="preserve" transform="matrix(.72144 0 -0 .72144 -60.58703 577.9612)" font-size="10.9091" font-family="TeXPalladioL"><tspan y="-140.786" x="557.5839 563.03848">53</tspan></text>
<text xml:space="preserve" transform="matrix(.72144 0 -0 .72144 -60.58703 577.9612)" font-size="10.9091" font-family="URWPalladioL"><tspan y="-123.571" x="167.91391 176.40119 182.43392 187.05937 190.61574 194.92484 200.37938 205.22303">Abstract</tspan></text>
<text xml:space="preserve" transform="matrix(.72144 0 -0 .72144 -60.58703 577.9612)" font-size="10.9091" font-family="TeXPalladioL"><tspan y="-123.571" x="222.44092 227.89546 233.35 238.80455 244.2591 301.0955 306.55006 312.0046 317.45918 322.91374 403.99018">14150141490</tspan></text>
<text xml:space="preserve" transform="matrix(.72144 0 -0 .72144 -60.58703 577.9612)" font-size="10.9091" font-family="URWPalladioL"><tspan y="-123.571" x="409.4399">.</tspan></text>
<text xml:space="preserve" transform="matrix(.72144 0 -0 .72144 -60.58703 577.9612)" font-size="10.9091" font-family="TeXPalladioL"><tspan y="-123.571" x="412.1669 417.62147 453.4142">830</tspan></text>
<text xml:space="preserve" transform="matrix(.72144 0 -0 .72144 -60.58703 577.9612)" font-size="10.9091" font-family="URWPalladioL"><tspan y="-123.571" x="458.8719">.</tspan></text>
<text xml:space="preserve" transform="matrix(.72144 0 -0 .72144 -60.58703 577.9612)" font-size="10.9091" font-family="TeXPalladioL"><tspan y="-123.571" x="461.59989 467.05445">81</tspan></text>
<text fill="#0000ff" xml:space="preserve" transform="matrix(.72144 0 -0 .72144 -60.58703 577.9612)" font-size="10.9091" font-family="TeXPalladioL" font-weight="bold"><tspan y="-123.571" x="499.36988">0</tspan></text>
<text fill="#0000ff" xml:space="preserve" transform="matrix(.72144 0 -0 .72144 -60.58703 577.9612)" font-size="10.9091" font-family="URWPalladioL" font-weight="bold"><tspan y="-123.571" x="504.82487">.</tspan></text>
<text fill="#0000ff" xml:space="preserve" transform="matrix(.72144 0 -0 .72144 -60.58703 577.9612)" font-size="10.9091" font-family="TeXPalladioL" font-weight="bold"><tspan y="-123.571" x="507.55186 513.0064">73</tspan></text>
<text fill="#0000ff" xml:space="preserve" transform="matrix(.72144 0 -0 .72144 -60.58703 577.9612)" font-size="10.9091" font-family="TeXPalladioL" font-weight="bold"><tspan y="-123.571" x="549.3992">0</tspan></text>
<text fill="#0000ff" xml:space="preserve" transform="matrix(.72144 0 -0 .72144 -60.58703 577.9612)" font-size="10.9091" font-family="URWPalladioL" font-weight="bold"><tspan y="-123.571" x="554.8569">.</tspan></text>
<text fill="#0000ff" xml:space="preserve" transform="matrix(.72144 0 -0 .72144 -60.58703 577.9612)" font-size="10.9091" font-family="TeXPalladioL" font-weight="bold"><tspan y="-123.571" x="557.58389 563.0384">90</tspan></text>
<text xml:space="preserve" transform="matrix(.72144 0 -0 .72144 -60.58703 577.9612)" font-size="10.9091" font-family="URWPalladioL"><tspan y="-106.356" x="167.91385 175.20113 180.42659 184.05933 189.28479 193.53934 198.7648 205.11389 209.95754">Reference</tspan></text>
<text xml:space="preserve" transform="matrix(.72144 0 -0 .72144 -60.58703 577.9612)" font-size="10.9091" font-family="TeXPalladioL"><tspan y="-106.356" x="222.44086 227.8954 233.34995 238.80449 244.25904 301.09544 306.55 312.00456 317.4591 322.91368 403.9901">40333352000</tspan></text>
<text xml:space="preserve" transform="matrix(.72144 0 -0 .72144 -60.58703 577.9612)" font-size="10.9091" font-family="URWPalladioL"><tspan y="-106.356" x="409.43986">.</tspan></text>
<text xml:space="preserve" transform="matrix(.72144 0 -0 .72144 -60.58703 577.9612)" font-size="10.9091" font-family="TeXPalladioL"><tspan y="-106.356" x="412.16685 417.6214 453.41416">550</tspan></text>
<text xml:space="preserve" transform="matrix(.72144 0 -0 .72144 -60.58703 577.9612)" font-size="10.9091" font-family="URWPalladioL"><tspan y="-106.356" x="458.87184">.</tspan></text>
<text xml:space="preserve" transform="matrix(.72144 0 -0 .72144 -60.58703 577.9612)" font-size="10.9091" font-family="TeXPalladioL"><tspan y="-106.356" x="461.59983 467.05439 499.36717">490</tspan></text>
<text xml:space="preserve" transform="matrix(.72144 0 -0 .72144 -60.58703 577.9612)" font-size="10.9091" font-family="URWPalladioL"><tspan y="-106.356" x="504.82484">.</tspan></text>
<text xml:space="preserve" transform="matrix(.72144 0 -0 .72144 -60.58703 577.9612)" font-size="10.9091" font-family="TeXPalladioL"><tspan y="-106.356" x="507.55183 513.00637 549.3991">490</tspan></text>
<text xml:space="preserve" transform="matrix(.72144 0 -0 .72144 -60.58703 577.9612)" font-size="10.9091" font-family="URWPalladioL"><tspan y="-106.356" x="554.8568">.</tspan></text>
<text xml:space="preserve" transform="matrix(.72144 0 -0 .72144 -60.58703 577.9612)" font-size="10.9091" font-family="TeXPalladioL"><tspan y="-106.356" x="557.5838 563.0383">50</tspan></text>
<text xml:space="preserve" transform="matrix(.72144 0 -0 .72144 -60.58703 577.9612)" font-size="10.9091" font-family="URWPalladioL"><tspan y="-89.14" x="167.91379 174.50289 179.95743 184.26653 189.72107 195.78653 200.09563 205.55017 212.10654">Paragraph</tspan></text>
<text xml:space="preserve" transform="matrix(.72144 0 -0 .72144 -60.58703 577.9612)" font-size="10.9091" font-family="TeXPalladioL"><tspan y="-89.14" x="222.4408 227.89534 233.34989 238.80443 244.25897 249.71352 301.09538 306.54994 312.0045 317.45906 322.9136 328.36817 403.99006">3613183555290</tspan></text>
<text xml:space="preserve" transform="matrix(.72144 0 -0 .72144 -60.58703 577.9612)" font-size="10.9091" font-family="URWPalladioL"><tspan y="-89.14" x="409.4398">.</tspan></text>
<text xml:space="preserve" transform="matrix(.72144 0 -0 .72144 -60.58703 577.9612)" font-size="10.9091" font-family="TeXPalladioL"><tspan y="-89.14" x="412.16679 417.62135 453.4141">790</tspan></text>
<text xml:space="preserve" transform="matrix(.72144 0 -0 .72144 -60.58703 577.9612)" font-size="10.9091" font-family="URWPalladioL"><tspan y="-89.14" x="458.87178">.</tspan></text>
<text xml:space="preserve" transform="matrix(.72144 0 -0 .72144 -60.58703 577.9612)" font-size="10.9091" font-family="TeXPalladioL"><tspan y="-89.14" x="461.59977 467.05433 499.3671">760</tspan></text>
<text xml:space="preserve" transform="matrix(.72144 0 -0 .72144 -60.58703 577.9612)" font-size="10.9091" font-family="URWPalladioL"><tspan y="-89.14" x="504.82478">.</tspan></text>
<text xml:space="preserve" transform="matrix(.72144 0 -0 .72144 -60.58703 577.9612)" font-size="10.9091" font-family="TeXPalladioL"><tspan y="-89.14" x="507.55177 513.0063 549.39907">760</tspan></text>
<text xml:space="preserve" transform="matrix(.72144 0 -0 .72144 -60.58703 577.9612)" font-size="10.9091" font-family="URWPalladioL"><tspan y="-89.14" x="554.85678">.</tspan></text>
<text xml:space="preserve" transform="matrix(.72144 0 -0 .72144 -60.58703 577.9612)" font-size="10.9091" font-family="TeXPalladioL"><tspan y="-89.14" x="557.58377 563.03829">76</tspan></text>
<text xml:space="preserve" transform="matrix(.72144 0 -0 .72144 -60.58703 577.9612)" font-size="10.9091" font-family="URWPalladioL"><tspan y="-71.925" x="167.91373 173.91373 179.13919 183.98284 187.5392 190.71375 196.67012">Section</tspan></text>
<text xml:space="preserve" transform="matrix(.72144 0 -0 .72144 -60.58703 577.9612)" font-size="10.9091" font-family="TeXPalladioL"><tspan y="-71.925" x="222.44074 227.89528 233.34983 238.80437 244.25891 249.71346 301.0953 306.54988 312.00444 317.45899 322.91355 328.3681 403.99">1630771585560</tspan></text>
<text xml:space="preserve" transform="matrix(.72144 0 -0 .72144 -60.58703 577.9612)" font-size="10.9091" font-family="URWPalladioL"><tspan y="-71.925" x="409.43974">.</tspan></text>
<text xml:space="preserve" transform="matrix(.72144 0 -0 .72144 -60.58703 577.9612)" font-size="10.9091" font-family="TeXPalladioL"><tspan y="-71.925" x="412.16673 417.62129 453.41404">540</tspan></text>
<text xml:space="preserve" transform="matrix(.72144 0 -0 .72144 -60.58703 577.9612)" font-size="10.9091" font-family="URWPalladioL"><tspan y="-71.925" x="458.8717">.</tspan></text>
<text xml:space="preserve" transform="matrix(.72144 0 -0 .72144 -60.58703 577.9612)" font-size="10.9091" font-family="TeXPalladioL"><tspan y="-71.925" x="461.5997 467.05427 499.36705">490</tspan></text>
<text xml:space="preserve" transform="matrix(.72144 0 -0 .72144 -60.58703 577.9612)" font-size="10.9091" font-family="URWPalladioL"><tspan y="-71.925" x="504.8247">.</tspan></text>
<text xml:space="preserve" transform="matrix(.72144 0 -0 .72144 -60.58703 577.9612)" font-size="10.9091" font-family="TeXPalladioL"><tspan y="-71.925" x="507.5517 513.0062 549.399">490</tspan></text>
<text xml:space="preserve" transform="matrix(.72144 0 -0 .72144 -60.58703 577.9612)" font-size="10.9091" font-family="URWPalladioL"><tspan y="-71.925" x="554.8567">.</tspan></text>
<text xml:space="preserve" transform="matrix(.72144 0 -0 .72144 -60.58703 577.9612)" font-size="10.9091" font-family="TeXPalladioL"><tspan y="-71.925" x="557.5837 563.0382">50</tspan></text>
<path transform="matrix(.72144,0,0,-.72144,5.4225695,530.7025)" stroke-width=".545" stroke-linecap="butt" stroke-miterlimit="10" stroke-linejoin="miter" fill="none" stroke="#000000" d="M 0 0 L 490.793 0 "/>
<text xml:space="preserve" transform="matrix(.72144 0 -0 .72144 -60.58703 577.9612)" font-size="10.9091" font-family="URWPalladioL" font-weight="bold"><tspan y="-49.233" x="93.489 99.55446 105.00901 111.67447 118.33993 121.97266">Tabula</tspan></text>
<text xml:space="preserve" transform="matrix(.72144 0 -0 .72144 -60.58703 577.9612)" font-size="10.9091" font-family="URWPalladioL"><tspan y="-49.233" x="167.914 173.59764 179.05219 185.08492 188.25946">Table</tspan></text>
<text xml:space="preserve" transform="matrix(.72144 0 -0 .72144 -60.58703 577.9612)" font-size="10.9091" font-family="TeXPalladioL"><tspan y="-49.233" x="222.44101 227.89556 233.3501 238.80464 244.25919">10361</tspan></text>
<text fill="#0000ff" xml:space="preserve" transform="matrix(.72144 0 -0 .72144 -60.58703 577.9612)" font-size="10.9091" font-family="TeXPalladioL" font-weight="bold"><tspan y="-49.233" x="301.099 306.55357 312.00813 317.46269">9456</tspan></text>
<text xml:space="preserve" transform="matrix(.72144 0 -0 .72144 -60.58703 577.9612)" font-size="10.9091" font-family="TeXPalladioL"><tspan y="-49.233" x="403.986">0</tspan></text>
<text xml:space="preserve" transform="matrix(.72144 0 -0 .72144 -60.58703 577.9612)" font-size="10.9091" font-family="URWPalladioL"><tspan y="-49.233" x="409.44">.</tspan></text>
<text xml:space="preserve" transform="matrix(.72144 0 -0 .72144 -60.58703 577.9612)" font-size="10.9091" font-family="TeXPalladioL"><tspan y="-49.233" x="412.167 417.62156 453.4143">290</tspan></text>
<text xml:space="preserve" transform="matrix(.72144 0 -0 .72144 -60.58703 577.9612)" font-size="10.9091" font-family="URWPalladioL"><tspan y="-49.233" x="458.872">.</tspan></text>
<text xml:space="preserve" transform="matrix(.72144 0 -0 .72144 -60.58703 577.9612)" font-size="10.9091" font-family="TeXPalladioL"><tspan y="-49.233" x="461.6 467.05458">28</tspan></text>
<text fill="#0000ff" xml:space="preserve" transform="matrix(.72144 0 -0 .72144 -60.58703 577.9612)" font-size="10.9091" font-family="TeXPalladioL" font-weight="bold"><tspan y="-49.233" x="499.37">0</tspan></text>
<text fill="#0000ff" xml:space="preserve" transform="matrix(.72144 0 -0 .72144 -60.58703 577.9612)" font-size="10.9091" font-family="URWPalladioL" font-weight="bold"><tspan y="-49.233" x="504.82499">.</tspan></text>
<text fill="#0000ff" xml:space="preserve" transform="matrix(.72144 0 -0 .72144 -60.58703 577.9612)" font-size="10.9091" font-family="TeXPalladioL" font-weight="bold"><tspan y="-49.233" x="507.55198 513.00656">20</tspan></text>
<text fill="#0000ff" xml:space="preserve" transform="matrix(.72144 0 -0 .72144 -60.58703 577.9612)" font-size="10.9091" font-family="TeXPalladioL" font-weight="bold"><tspan y="-49.233" x="549.3993">0</tspan></text>
<text fill="#0000ff" xml:space="preserve" transform="matrix(.72144 0 -0 .72144 -60.58703 577.9612)" font-size="10.9091" font-family="URWPalladioL" font-weight="bold"><tspan y="-49.233" x="554.857">.</tspan></text>
<text fill="#0000ff" xml:space="preserve" transform="matrix(.72144 0 -0 .72144 -60.58703 577.9612)" font-size="10.9091" font-family="TeXPalladioL" font-weight="bold"><tspan y="-49.233" x="557.584 563.0385">46</tspan></text>
<path transform="matrix(.72144,0,0,-.72144,5.4225695,547.19107)" stroke-width=".873" stroke-linecap="butt" stroke-miterlimit="10" stroke-linejoin="miter" fill="none" stroke="#000000" d="M 0 0 L 490.793 0 "/>
</g>
</g>
</svg>
