<?xml version="1.0" encoding="UTF-8" standalone="no"?>
<!DOCTYPE svg PUBLIC "-//W3C//DTD SVG 1.1//EN" "http://www.w3.org/Graphics/SVG/1.1/DTD/svg11.dtd">
<svg xmlns="http://www.w3.org/2000/svg" xmlns:xlink="http://www.w3.org/1999/xlink" version="1.1" width="347.715pt" height="282.282pt" viewBox="0 0 347.715 282.282">
<g enable-background="new">
<g>
<g>
<clipPath id="cp0">
<path transform="matrix(1,0,0,-1,0,282.282)" d="M 0 0 L 350.784 0 L 350.784 298.944 L 0 298.944 Z "/>
</clipPath>
<g clip-path="url(#cp0)">
<g>
<clipPath id="cp1">
<path transform="matrix(1,0,0,-1,-72.576,309.354)" d="M 0 0 L 460.8 0 L 460.8 345.6 L 0 345.6 Z "/>
</clipPath>
<g clip-path="url(#cp1)">
<path transform="matrix(1,0,0,-1,-72.576,309.354)" d="M 0 0 L 460.8 0 L 460.8 345.6 L 0 345.6 Z " fill="#ffffff"/>
<path transform="matrix(1,0,0,-1,-72.576,309.354)" d="M 115.2 86.4 L 414.72 86.4 L 414.72 304.128 L 115.2 304.128 Z " fill="#ffffff"/>
<path transform="matrix(1,0,0,-1,-72.576,309.354)" d="M 115.2 59.890909 L 175.104 59.890909 L 175.104 86.4 L 115.2 86.4 Z " fill="#ffffff"/>
<path transform="matrix(1,0,0,-1,-72.576,309.354)" stroke-width="1" stroke-linecap="butt" stroke-miterlimit="10" stroke-linejoin="miter" fill="none" stroke="#000000" d="M 115.2 59.890909 L 175.104 59.890909 L 175.104 86.4 L 115.2 86.4 Z "/>
<text xml:space="preserve" transform="matrix(1 0 -0 1 53.451005 233.09137)" font-size="11" font-family="DejaVuSans"><tspan y="0" x="0 7.3365 14.321501 21.053502 28.038502 34.8035">Adobe </tspan></text>
<text xml:space="preserve" transform="matrix(1 0 -0 1 51.12288 245.40387)" font-size="11" font-family="DejaVuSans"><tspan y="0" x="0 3.4980002 10.450001 16.962002 21.274003 25.795002 32.538003 38.588"> Extract</tspan></text>
<path transform="matrix(1,0,0,-1,-72.576,309.354)" d="M 175.104 59.890909 L 235.008 59.890909 L 235.008 86.4 L 175.104 86.4 Z " fill="#ffffff"/>
<path transform="matrix(1,0,0,-1,-72.576,309.354)" stroke-width="1" stroke-linecap="butt" stroke-miterlimit="10" stroke-linejoin="miter" fill="none" stroke="#000000" d="M 175.104 59.890909 L 235.008 59.890909 L 235.008 86.4 L 175.104 86.4 Z "/>
<text xml:space="preserve" transform="matrix(1 0 -0 1 109.47219 239.24762)" font-size="11" font-family="DejaVuSans"><tspan y="0" x="0 7.678 14.4210009 25.135003 31.900002 34.958 41.690004">Camelot</tspan></text>
<path transform="matrix(1,0,0,-1,-72.576,309.354)" d="M 235.008 59.890909 L 294.912 59.890909 L 294.912 86.4 L 235.008 86.4 Z " fill="#ffffff"/>
<path transform="matrix(1,0,0,-1,-72.576,309.354)" stroke-width="1" stroke-linecap="butt" stroke-miterlimit="10" stroke-linejoin="miter" fill="none" stroke="#000000" d="M 235.008 59.890909 L 294.912 59.890909 L 294.912 86.4 L 235.008 86.4 Z "/>
<text xml:space="preserve" transform="matrix(1 0 -0 1 174.09494 239.24762)" font-size="11" font-family="DejaVuSans"><tspan y="0" x="0 8.525001 12.8116259 19.543625 26.528626 29.586627">Grobid</tspan></text>
<path transform="matrix(1,0,0,-1,-72.576,309.354)" d="M 294.912 59.890909 L 354.816 59.890909 L 354.816 86.4 L 294.912 86.4 Z " fill="#ffffff"/>
<path transform="matrix(1,0,0,-1,-72.576,309.354)" stroke-width="1" stroke-linecap="butt" stroke-miterlimit="10" stroke-linejoin="miter" fill="none" stroke="#000000" d="M 294.912 59.890909 L 354.816 59.890909 L 354.816 86.4 L 294.912 86.4 Z "/>
<text xml:space="preserve" transform="matrix(1 0 -0 1 234.71772 239.24762)" font-size="11" font-family="DejaVuSans"><tspan y="0" x="0 6.6330006 13.618001 17.490002 24.826502 30.876503">PdfAct</tspan></text>
<path transform="matrix(1,0,0,-1,-72.576,309.354)" d="M 354.816 59.890909 L 414.72 59.890909 L 414.72 86.4 L 354.816 86.4 Z " fill="#ffffff"/>
<path transform="matrix(1,0,0,-1,-72.576,309.354)" stroke-width="1" stroke-linecap="butt" stroke-miterlimit="10" stroke-linejoin="miter" fill="none" stroke="#000000" d="M 354.816 59.890909 L 414.72 59.890909 L 414.72 86.4 L 354.816 86.4 Z "/>
<text xml:space="preserve" transform="matrix(1 0 -0 1 294.52796 239.24762)" font-size="11" font-family="DejaVuSans"><tspan y="0" x="0 4.9085 11.651501 18.636502 25.6105 28.6685">Tabula</tspan></text>
<path transform="matrix(1,0,0,-1,-72.576,309.354)" d="M 81.13125 33.381818 L 115.2 33.381818 L 115.2 59.890909 L 81.13125 59.890909 Z " fill="#9ab4d6"/>
<path transform="matrix(1,0,0,-1,-72.576,309.354)" stroke-width="1" stroke-linecap="butt" stroke-miterlimit="10" stroke-linejoin="miter" fill="none" stroke="#000000" d="M 81.13125 33.381818 L 115.2 33.381818 L 115.2 59.890909 L 81.13125 59.890909 Z "/>
<text xml:space="preserve" transform="matrix(1 0 -0 1 11.962128 265.7567)" font-size="11" font-family="DejaVuSans"><tspan y="0" x="0 4.9085 11.651501 18.636502 21.694502">Table</tspan></text>
<path transform="matrix(1,0,0,-1,-72.576,309.354)" d="M 115.2 33.381818 L 175.104 33.381818 L 175.104 59.890909 L 115.2 59.890909 Z " fill="#ffffff"/>
<path transform="matrix(1,0,0,-1,-72.576,309.354)" stroke-width="1" stroke-linecap="butt" stroke-miterlimit="10" stroke-linejoin="miter" fill="none" stroke="#000000" d="M 115.2 33.381818 L 175.104 33.381818 L 175.104 59.890909 L 115.2 59.890909 Z "/>
<text xml:space="preserve" transform="matrix(1 0 -0 1 60.325998 265.7567)" font-size="11" font-family="DejaVuSans"><tspan y="0" x="0 6.9960005 10.494 17.490002">0.47</tspan></text>
<path transform="matrix(1,0,0,-1,-72.576,309.354)" d="M 175.104 33.381818 L 235.008 33.381818 L 235.008 59.890909 L 175.104 59.890909 Z " fill="#ffffff"/>
<path transform="matrix(1,0,0,-1,-72.576,309.354)" stroke-width="1" stroke-linecap="butt" stroke-miterlimit="10" stroke-linejoin="miter" fill="none" stroke="#000000" d="M 175.104 33.381818 L 235.008 33.381818 L 235.008 59.890909 L 175.104 59.890909 Z "/>
<text xml:space="preserve" transform="matrix(1 0 -0 1 120.23 265.7567)" font-size="11" font-family="DejaVuSans"><tspan y="0" x="0 6.9960005 10.494 17.490002">0.30</tspan></text>
<path transform="matrix(1,0,0,-1,-72.576,309.354)" d="M 235.008 33.381818 L 294.912 33.381818 L 294.912 59.890909 L 235.008 59.890909 Z " fill="#ffffff"/>
<path transform="matrix(1,0,0,-1,-72.576,309.354)" stroke-width="1" stroke-linecap="butt" stroke-miterlimit="10" stroke-linejoin="miter" fill="none" stroke="#000000" d="M 235.008 33.381818 L 294.912 33.381818 L 294.912 59.890909 L 235.008 59.890909 Z "/>
<text xml:space="preserve" transform="matrix(1 0 -0 1 180.134 265.7567)" font-size="11" font-family="DejaVuSans"><tspan y="0" x="0 6.9960005 10.494 17.490002">0.23</tspan></text>
<path transform="matrix(1,0,0,-1,-72.576,309.354)" d="M 294.912 33.381818 L 354.816 33.381818 L 354.816 59.890909 L 294.912 59.890909 Z " fill="#ffffff"/>
<path transform="matrix(1,0,0,-1,-72.576,309.354)" stroke-width="1" stroke-linecap="butt" stroke-miterlimit="10" stroke-linejoin="miter" fill="none" stroke="#000000" d="M 294.912 33.381818 L 354.816 33.381818 L 354.816 59.890909 L 294.912 59.890909 Z "/>
<text xml:space="preserve" transform="matrix(1 0 -0 1 240.03803 265.7567)" font-size="11" font-family="DejaVuSans"><tspan y="0" x="0 6.9960005 10.494 17.490002">0.00</tspan></text>
<path transform="matrix(1,0,0,-1,-72.576,309.354)" d="M 354.816 33.381818 L 414.72 33.381818 L 414.72 59.890909 L 354.816 59.890909 Z " fill="#ffffff"/>
<path transform="matrix(1,0,0,-1,-72.576,309.354)" stroke-width="1" stroke-linecap="butt" stroke-miterlimit="10" stroke-linejoin="miter" fill="none" stroke="#000000" d="M 354.816 33.381818 L 414.72 33.381818 L 414.72 59.890909 L 354.816 59.890909 Z "/>
<text xml:space="preserve" transform="matrix(1 0 -0 1 299.94203 265.7567)" font-size="11" font-family="DejaVuSans"><tspan y="0" x="0 6.9960005 10.494 17.490002">0.28</tspan></text>
<clipPath id="cp2">
<path transform="matrix(1,0,0,-1,-72.576,309.354)" d="M 115.2 86.4 L 414.71998 86.4 L 414.71998 304.128 L 115.2 304.128 Z "/>
</clipPath>
<g clip-path="url(#cp2)">
<path transform="matrix(1,0,0,-1,-72.576,309.354)" d="M 128.81455 86.4 L 153.56827 86.4 L 153.56827 188.73217 L 128.81455 188.73217 Z " fill="#9ab4d6"/>
</g>
<clipPath id="cp3">
<path transform="matrix(1,0,0,-1,-72.576,309.354)" d="M 115.2 86.4 L 414.71998 86.4 L 414.71998 304.128 L 115.2 304.128 Z "/>
</clipPath>
<g clip-path="url(#cp3)">
<path transform="matrix(1,0,0,-1,-72.576,309.354)" d="M 190.69884 86.4 L 215.45256 86.4 L 215.45256 151.7184 L 190.69884 151.7184 Z " fill="#9ab4d6"/>
</g>
<clipPath id="cp4">
<path transform="matrix(1,0,0,-1,-72.576,309.354)" d="M 115.2 86.4 L 414.71998 86.4 L 414.71998 304.128 L 115.2 304.128 Z "/>
</clipPath>
<g clip-path="url(#cp4)">
<path transform="matrix(1,0,0,-1,-72.576,309.354)" d="M 252.58315 86.4 L 277.33686 86.4 L 277.33686 136.47745 L 252.58315 136.47745 Z " fill="#9ab4d6"/>
</g>
<clipPath id="cp5">
<path transform="matrix(1,0,0,-1,-72.576,309.354)" d="M 115.2 86.4 L 414.71998 86.4 L 414.71998 304.128 L 115.2 304.128 Z "/>
</clipPath>
<g clip-path="url(#cp5)">
<path transform="matrix(1,0,0,-1,-72.576,309.354)" d="M 314.46745 86.4 L 339.22117 86.4 L 314.46745 86.4 Z " fill="#9ab4d6"/>
</g>
<clipPath id="cp6">
<path transform="matrix(1,0,0,-1,-72.576,309.354)" d="M 115.2 86.4 L 414.71998 86.4 L 414.71998 304.128 L 115.2 304.128 Z "/>
</clipPath>
<g clip-path="url(#cp6)">
<path transform="matrix(1,0,0,-1,-72.576,309.354)" d="M 376.35176 86.4 L 401.10548 86.4 L 401.10548 147.36385 L 376.35176 147.36385 Z " fill="#9ab4d6"/>
</g>
<path transform="matrix(1,0,0,-1,-72.576,309.354)" d="M 115.2 86.4 L 111.7 86.4 "/>
<path transform="matrix(1,0,0,-1,-72.576,309.354)" stroke-width=".8" stroke-linecap="butt" stroke-linejoin="round" fill="none" stroke="#000000" d="M 115.2 86.4 L 111.7 86.4 "/>
<text xml:space="preserve" transform="matrix(1 0 -0 1 19.71775 226.75089)" font-size="10" font-family="DejaVuSans"><tspan y="0" x="0 6.3600008 9.540001">0.0</tspan></text>
<path transform="matrix(1,0,0,-1,-72.576,309.354)" d="M 115.2 129.9456 L 111.7 129.9456 "/>
<path transform="matrix(1,0,0,-1,-72.576,309.354)" stroke-width=".8" stroke-linecap="butt" stroke-linejoin="round" fill="none" stroke="#000000" d="M 115.2 129.9456 L 111.7 129.9456 "/>
<text xml:space="preserve" transform="matrix(1 0 -0 1 19.71775 183.20528)" font-size="10" font-family="DejaVuSans"><tspan y="0" x="0 6.3600008 9.540001">0.2</tspan></text>
<path transform="matrix(1,0,0,-1,-72.576,309.354)" d="M 115.2 173.4912 L 111.7 173.4912 "/>
<path transform="matrix(1,0,0,-1,-72.576,309.354)" stroke-width=".8" stroke-linecap="butt" stroke-linejoin="round" fill="none" stroke="#000000" d="M 115.2 173.4912 L 111.7 173.4912 "/>
<text xml:space="preserve" transform="matrix(1 0 -0 1 19.71775 139.65969)" font-size="10" font-family="DejaVuSans"><tspan y="0" x="0 6.3600008 9.540001">0.4</tspan></text>
<path transform="matrix(1,0,0,-1,-72.576,309.354)" d="M 115.2 217.0368 L 111.7 217.0368 "/>
<path transform="matrix(1,0,0,-1,-72.576,309.354)" stroke-width=".8" stroke-linecap="butt" stroke-linejoin="round" fill="none" stroke="#000000" d="M 115.2 217.0368 L 111.7 217.0368 "/>
<text xml:space="preserve" transform="matrix(1 0 -0 1 19.71775 96.114078)" font-size="10" font-family="DejaVuSans"><tspan y="0" x="0 6.3600008 9.540001">0.6</tspan></text>
<path transform="matrix(1,0,0,-1,-72.576,309.354)" d="M 115.2 260.5824 L 111.7 260.5824 "/>
<path transform="matrix(1,0,0,-1,-72.576,309.354)" stroke-width=".8" stroke-linecap="butt" stroke-linejoin="round" fill="none" stroke="#000000" d="M 115.2 260.5824 L 111.7 260.5824 "/>
<text xml:space="preserve" transform="matrix(1 0 -0 1 19.71775 52.56848)" font-size="10" font-family="DejaVuSans"><tspan y="0" x="0 6.3600008 9.540001">0.8</tspan></text>
<path transform="matrix(1,0,0,-1,-72.576,309.354)" d="M 115.2 304.128 L 111.7 304.128 "/>
<path transform="matrix(1,0,0,-1,-72.576,309.354)" stroke-width=".8" stroke-linecap="butt" stroke-linejoin="round" fill="none" stroke="#000000" d="M 115.2 304.128 L 111.7 304.128 "/>
<text xml:space="preserve" transform="matrix(1 0 -0 1 19.71775 9.022888)" font-size="10" font-family="DejaVuSans"><tspan y="0" x="0 6.3600008 9.540001">1.0</tspan></text>
<text xml:space="preserve" transform="matrix(0 -1 1 0 13.436501 137.91033)" font-size="11" font-family="DejaVuSans"><tspan y="0" x="0 6.325001 13.321001 16.819 23.804 29.854 36.586 40.872625">F1 Score</tspan></text>
<path transform="matrix(1,0,0,-1,-72.576,309.354)" stroke-width=".8" stroke-linecap="square" stroke-miterlimit="10" stroke-linejoin="miter" fill="none" stroke="#000000" d="M 115.2 86.4 L 115.2 304.128 "/>
<path transform="matrix(1,0,0,-1,-72.576,309.354)" stroke-width=".8" stroke-linecap="square" stroke-miterlimit="10" stroke-linejoin="miter" fill="none" stroke="#000000" d="M 414.72 86.4 L 414.72 304.128 "/>
<path transform="matrix(1,0,0,-1,-72.576,309.354)" stroke-width=".8" stroke-linecap="square" stroke-miterlimit="10" stroke-linejoin="miter" fill="none" stroke="#000000" d="M 115.2 86.4 L 414.72 86.4 "/>
<path transform="matrix(1,0,0,-1,-72.576,309.354)" stroke-width=".8" stroke-linecap="square" stroke-miterlimit="10" stroke-linejoin="miter" fill="none" stroke="#000000" d="M 115.2 304.128 L 414.72 304.128 "/>
<text xml:space="preserve" transform="matrix(1 0 -0 1 144.32932 -.7739868)" font-size="12" font-family="DejaVuSans"><tspan y="0" x="0 5.347625 12.703625 20.323626 23.659626 31.039628 34.85563 42.43963 49.54363 54.247629 59.179628 66.53563 73.13563 77.83963 81.17563 88.51963">Table Extraction</tspan></text>
</g>
</g>
</g>
</g>
</g>
</g>
</svg>
